Ronzino-Regular.ufo
<glyph name="exclam" format="2">
  <advance width="250"/>
  <unicode hex="0021"/>
  <outline>
    <contour>
      <point x="94" y="212" type="line"/>
      <point x="156" y="212" type="line"/>
      <point x="175" y="540" type="line"/>
      <point x="175" y="680" type="line"/>
      <point x="75" y="680" type="line"/>
      <point x="75" y="540" type="line"/>
    </contour>
    <component base="period" xOffset="21"/>
  </outline>
</glyph>
<glyph name="numbersign" format="2">
  <advance width="626"/>
  <unicode hex="0023"/>
  <outline>
    <contour>
      <point x="92" y="0" type="line"/>
      <point x="165" y="0" type="line"/>
      <point x="308" y="680" type="line"/>
      <point x="236" y="680" type="line"/>
    </contour>
    <contour>
      <point x="26" y="177" type="line"/>
      <point x="547" y="177" type="line"/>
      <point x="560" y="244" type="line"/>
      <point x="40" y="244" type="line"/>
    </contour>
    <contour>
      <point x="320" y="0" type="line"/>
      <point x="392" y="0" type="line"/>
      <point x="532" y="680" type="line"/>
      <point x="460" y="680" type="line"/>
    </contour>
    <contour>
      <point x="67" y="440" type="line"/>
      <point x="589" y="440" type="line"/>
      <point x="602" y="506" type="line"/>
      <point x="81" y="506" type="line"/>
    </contour>
  </outline>
</glyph>
<glyph name="dollar" format="2">
  <advance width="620"/>
  <unicode hex="0024"/>
  <anchor x="324.906" y="0" name="bottom"/>
  <anchor x="306.767" y="680" name="top"/>
  <outline>
    <contour>
      <point x="322" y="-14" type="curve" smooth="yes"/>
      <point x="469" y="-14"/>
      <point x="566" y="66"/>
      <point x="565" y="185" type="curve" smooth="yes"/>
      <point x="561" y="451"/>
      <point x="169" y="332"/>
      <point x="167" y="513" type="curve" smooth="yes"/>
      <point x="166" y="577"/>
      <point x="220" y="620"/>
      <point x="303" y="620" type="curve" smooth="yes"/>
      <point x="381" y="620"/>
      <point x="438" y="576"/>
      <point x="454" y="506" type="curve"/>
      <point x="545" y="539" type="line"/>
      <point x="520" y="637"/>
      <point x="427" y="694"/>
      <point x="311" y="694" type="curve" smooth="yes"/>
      <point x="171" y="694"/>
      <point x="79" y="619"/>
      <point x="80" y="507" type="curve" smooth="yes"/>
      <point x="84" y="251"/>
      <point x="474" y="377"/>
      <point x="477" y="179" type="curve" smooth="yes"/>
      <point x="478" y="106"/>
      <point x="420" y="61"/>
      <point x="328" y="61" type="curve" smooth="yes"/>
      <point x="241" y="61"/>
      <point x="177" y="110"/>
      <point x="159" y="194" type="curve"/>
      <point x="69" y="162" type="line"/>
      <point x="93" y="55"/>
      <point x="196" y="-14"/>
    </contour>
    <contour>
      <point x="278" y="-100" type="line"/>
      <point x="350" y="-100" type="line"/>
      <point x="350" y="780" type="line"/>
      <point x="278" y="780" type="line"/>
    </contour>
  </outline>
</glyph>
<glyph name="ampersand" format="2">
  <advance width="627"/>
  <unicode hex="0026"/>
  <outline>
    <contour>
      <point x="568" y="-68" type="curve"/>
      <point x="647" y="-25" type="line"/>
      <point x="598" y="104"/>
      <point x="504" y="200"/>
      <point x="414" y="274" type="curve" smooth="yes"/>
      <point x="288" y="378"/>
      <point x="179" y="430"/>
      <point x="179" y="527" type="curve" smooth="yes"/>
      <point x="179" y="584"/>
      <point x="219" y="619"/>
      <point x="285" y="619" type="curve" smooth="yes"/>
      <point x="345" y="619"/>
      <point x="386" y="579"/>
      <point x="398" y="508" type="curve"/>
      <point x="482" y="540" type="line"/>
      <point x="462" y="633"/>
      <point x="388" y="692"/>
      <point x="291" y="692" type="curve" smooth="yes"/>
      <point x="167" y="692"/>
      <point x="90" y="617"/>
      <point x="90" y="521" type="curve" smooth="yes"/>
      <point x="90" y="406"/>
      <point x="196" y="344"/>
      <point x="319" y="243" type="curve" smooth="yes"/>
      <point x="423" y="158"/>
      <point x="532" y="50"/>
    </contour>
    <contour>
      <point x="498" y="-17"/>
      <point x="567" y="158"/>
      <point x="565" y="373" type="curve"/>
      <point x="483" y="373" type="line"/>
      <point x="484" y="214"/>
      <point x="452" y="58"/>
      <point x="289" y="58" type="curve" smooth="yes"/>
      <point x="195" y="58"/>
      <point x="129" y="110"/>
      <point x="129" y="192" type="curve" smooth="yes"/>
      <point x="129" y="250"/>
      <point x="156" y="300"/>
      <point x="218" y="336" type="curve"/>
      <point x="173" y="371" type="line"/>
      <point x="84" y="330"/>
      <point x="37" y="259"/>
      <point x="37" y="178" type="curve" smooth="yes"/>
      <point x="37" y="64"/>
      <point x="138" y="-17"/>
      <point x="282" y="-17" type="curve" smooth="yes"/>
    </contour>
  </outline>
</glyph>
<glyph name="quotesingle" format="2">
  <advance width="185"/>
  <unicode hex="0027"/>
  <outline>
    <contour>
      <point x="60" y="413" type="line"/>
      <point x="124" y="413" type="line"/>
      <point x="138" y="681" type="line"/>
      <point x="47" y="681" type="line"/>
    </contour>
  </outline>
</glyph>
<glyph name="parenleft" format="2">
  <advance width="270"/>
  <unicode hex="0028"/>
  <outline>
    <contour>
      <point x="200" y="-232" type="curve"/>
      <point x="260" y="-210" type="line"/>
      <point x="182" y="-88"/>
      <point x="138" y="68"/>
      <point x="138" y="232" type="curve" smooth="yes"/>
      <point x="138" y="398"/>
      <point x="181" y="554"/>
      <point x="259" y="672" type="curve"/>
      <point x="200" y="694" type="line"/>
      <point x="104" y="570"/>
      <point x="48" y="396"/>
      <point x="48" y="232" type="curve" smooth="yes"/>
      <point x="48" y="67"/>
      <point x="104" y="-108"/>
    </contour>
  </outline>
</glyph>
<glyph name="asterisk" format="2">
  <advance width="378"/>
  <unicode hex="002A"/>
  <outline>
    <contour>
      <point x="44" y="580" type="line"/>
      <point x="100" y="562" type="line"/>
      <point x="156" y="554" type="line"/>
      <point x="156" y="558" type="line"/>
      <point x="112" y="516" type="line"/>
      <point x="78" y="466" type="line"/>
      <point x="130" y="428" type="line"/>
      <point x="166" y="476" type="line"/>
      <point x="191" y="524" type="line"/>
      <point x="187" y="524" type="line"/>
      <point x="212" y="476" type="line"/>
      <point x="248" y="428" type="line"/>
      <point x="300" y="466" type="line"/>
      <point x="266" y="516" type="line"/>
      <point x="222" y="558" type="line"/>
      <point x="222" y="554" type="line"/>
      <point x="278" y="562" type="line"/>
      <point x="334" y="580" type="line"/>
      <point x="316" y="644" type="line"/>
      <point x="258" y="626" type="line"/>
      <point x="210" y="600" type="line"/>
      <point x="214" y="596" type="line"/>
      <point x="222" y="652" type="line"/>
      <point x="222" y="712" type="line"/>
      <point x="156" y="712" type="line"/>
      <point x="156" y="652" type="line"/>
      <point x="164" y="596" type="line"/>
      <point x="168" y="600" type="line"/>
      <point x="120" y="626" type="line"/>
      <point x="62" y="644" type="line"/>
    </contour>
  </outline>
</glyph>
<glyph name="plus" format="2">
  <advance width="560"/>
  <unicode hex="002B"/>
  <outline>
    <contour>
      <point x="243" y="72" type="line"/>
      <point x="317" y="72" type="line"/>
      <point x="317" y="500" type="line"/>
      <point x="243" y="500" type="line"/>
    </contour>
    <contour>
      <point x="48" y="248" type="line"/>
      <point x="512" y="248" type="line"/>
      <point x="512" y="320" type="line"/>
      <point x="48" y="320" type="line"/>
    </contour>
  </outline>
</glyph>
<glyph name="comma" format="2">
  <advance width="210"/>
  <unicode hex="002C"/>
  <outline>
    <contour>
      <point x="58" y="-136" type="line"/>
      <point x="122" y="-116"/>
      <point x="162" y="-60"/>
      <point x="162" y="8" type="curve" smooth="yes"/>
      <point x="162" y="116" type="line"/>
      <point x="48" y="116" type="line"/>
      <point x="48" y="0" type="line"/>
      <point x="108" y="0" type="line"/>
      <point x="108" y="-8" type="line" smooth="yes"/>
      <point x="108" y="-48"/>
      <point x="82" y="-78"/>
      <point x="40" y="-88" type="curve"/>
    </contour>
  </outline>
</glyph>
<glyph name="hyphen" format="2">
  <advance width="370"/>
  <unicode hex="002D"/>
  <outline>
    <contour>
      <point x="52" y="227" type="line"/>
      <point x="318" y="227" type="line"/>
      <point x="318" y="301" type="line"/>
      <point x="52" y="301" type="line"/>
    </contour>
  </outline>
</glyph>
<glyph name="zero" format="2">
  <advance width="624"/>
  <unicode hex="0030"/>
  <outline>
    <contour>
      <point x="312" y="-14" type="curve" smooth="yes"/>
      <point x="472" y="-14"/>
      <point x="578" y="128"/>
      <point x="578" y="340" type="curve" smooth="yes"/>
      <point x="578" y="552"/>
      <point x="472" y="694"/>
      <point x="312" y="694" type="curve" smooth="yes"/>
      <point x="152" y="694"/>
      <point x="46" y="552"/>
      <point x="46" y="340" type="curve" smooth="yes"/>
      <point x="46" y="128"/>
      <point x="152" y="-14"/>
    </contour>
    <contour>
      <point x="312" y="64" type="curve" smooth="yes"/>
      <point x="208" y="64"/>
      <point x="138" y="175"/>
      <point x="138" y="341" type="curve" smooth="yes"/>
      <point x="138" y="507"/>
      <point x="208" y="618"/>
      <point x="312" y="618" type="curve" smooth="yes"/>
      <point x="416" y="618"/>
      <point x="486" y="507"/>
      <point x="486" y="341" type="curve" smooth="yes"/>
      <point x="486" y="175"/>
      <point x="416" y="64"/>
    </contour>
  </outline>
</glyph>
<glyph name="one" format="2">
  <advance width="375"/>
  <unicode hex="0031"/>
  <outline>
    <contour>
      <point x="204" y="0" type="line"/>
      <point x="292" y="0" type="line"/>
      <point x="292" y="680" type="line"/>
      <point x="214" y="680" type="line"/>
      <point x="186" y="609"/>
      <point x="124" y="560"/>
      <point x="36" y="548" type="curve"/>
      <point x="36" y="462" type="line"/>
      <point x="124" y="472"/>
      <point x="189" y="515"/>
      <point x="212" y="576" type="curve"/>
      <point x="204" y="576" type="line"/>
    </contour>
  </outline>
</glyph>
<glyph name="two" format="2">
  <advance width="540"/>
  <unicode hex="0032"/>
  <outline>
    <contour>
      <point x="31" y="0" type="line"/>
      <point x="501" y="0" type="line"/>
      <point x="501" y="82" type="line"/>
      <point x="139" y="82" type="line"/>
      <point x="144" y="72" type="line"/>
      <point x="168" y="141"/>
      <point x="236" y="187"/>
      <point x="305" y="236" type="curve" smooth="yes"/>
      <point x="396" y="300"/>
      <point x="488" y="369"/>
      <point x="488" y="500" type="curve" smooth="yes"/>
      <point x="488" y="616"/>
      <point x="403" y="694"/>
      <point x="271" y="694" type="curve" smooth="yes"/>
      <point x="151" y="694"/>
      <point x="50" y="624"/>
      <point x="26" y="516" type="curve"/>
      <point x="112" y="491" type="line"/>
      <point x="128" y="571"/>
      <point x="187" y="614"/>
      <point x="269" y="614" type="curve" smooth="yes"/>
      <point x="346" y="614"/>
      <point x="398" y="569"/>
      <point x="398" y="496" type="curve" smooth="yes"/>
      <point x="398" y="400"/>
      <point x="315" y="342"/>
      <point x="227" y="278" type="curve" smooth="yes"/>
      <point x="140" y="214"/>
      <point x="49" y="144"/>
      <point x="34" y="24" type="curve" smooth="yes"/>
    </contour>
  </outline>
</glyph>
<glyph name="three" format="2">
  <advance width="556"/>
  <unicode hex="0033"/>
  <outline>
    <contour>
      <point x="278" y="-14" type="curve" smooth="yes"/>
      <point x="418" y="-14"/>
      <point x="512" y="66"/>
      <point x="512" y="190" type="curve" smooth="yes"/>
      <point x="512" y="285"/>
      <point x="458" y="354"/>
      <point x="372" y="368" type="curve"/>
      <point x="372" y="360" type="line"/>
      <point x="445" y="375"/>
      <point x="492" y="435"/>
      <point x="492" y="514" type="curve" smooth="yes"/>
      <point x="492" y="621"/>
      <point x="405" y="694"/>
      <point x="277" y="694" type="curve" smooth="yes"/>
      <point x="155" y="694"/>
      <point x="64" y="628"/>
      <point x="52" y="532" type="curve"/>
      <point x="136" y="508" type="line"/>
      <point x="144" y="576"/>
      <point x="198" y="620"/>
      <point x="276" y="620" type="curve" smooth="yes"/>
      <point x="353" y="620"/>
      <point x="402" y="576"/>
      <point x="402" y="508" type="curve" smooth="yes"/>
      <point x="402" y="440"/>
      <point x="351" y="396"/>
      <point x="272" y="396" type="curve" smooth="yes"/>
      <point x="200" y="396" type="line"/>
      <point x="200" y="328" type="line"/>
      <point x="276" y="328" type="line" smooth="yes"/>
      <point x="365" y="328"/>
      <point x="422" y="276"/>
      <point x="422" y="194" type="curve" smooth="yes"/>
      <point x="422" y="112"/>
      <point x="365" y="60"/>
      <point x="276" y="60" type="curve" smooth="yes"/>
      <point x="188" y="60"/>
      <point x="127" y="112"/>
      <point x="120" y="196" type="curve"/>
      <point x="28" y="180" type="line"/>
      <point x="36" y="64"/>
      <point x="138" y="-14"/>
    </contour>
  </outline>
</glyph>
<glyph name="four" format="2">
  <advance width="547"/>
  <unicode hex="0034"/>
  <outline>
    <contour>
      <point x="350" y="0" type="line"/>
      <point x="438" y="0" type="line"/>
      <point x="438" y="680" type="line"/>
      <point x="354" y="680" type="line"/>
      <point x="16" y="240" type="line"/>
      <point x="16" y="160" type="line"/>
      <point x="522" y="160" type="line"/>
      <point x="522" y="236" type="line"/>
      <point x="84" y="236" type="line"/>
      <point x="97" y="228" type="line"/>
      <point x="364" y="580" type="line"/>
      <point x="350" y="580" type="line"/>
    </contour>
  </outline>
</glyph>
<glyph name="five" format="2">
  <advance width="568"/>
  <unicode hex="0035"/>
  <outline>
    <contour>
      <point x="283" y="-14" type="curve" smooth="yes"/>
      <point x="429" y="-14"/>
      <point x="529" y="84"/>
      <point x="529" y="227" type="curve" smooth="yes"/>
      <point x="529" y="358"/>
      <point x="439" y="448"/>
      <point x="307" y="448" type="curve" smooth="yes"/>
      <point x="226" y="448"/>
      <point x="157" y="414"/>
      <point x="135" y="364" type="curve"/>
      <point x="143" y="364" type="line"/>
      <point x="175" y="602" type="line"/>
      <point x="491" y="602" type="line"/>
      <point x="491" y="680" type="line"/>
      <point x="111" y="680" type="line"/>
      <point x="67" y="332" type="line"/>
      <point x="155" y="312" type="line"/>
      <point x="180" y="354"/>
      <point x="227" y="378"/>
      <point x="285" y="378" type="curve" smooth="yes"/>
      <point x="379" y="378"/>
      <point x="439" y="318"/>
      <point x="439" y="224" type="curve" smooth="yes"/>
      <point x="439" y="124"/>
      <point x="379" y="60"/>
      <point x="285" y="60" type="curve" smooth="yes"/>
      <point x="201" y="60"/>
      <point x="141" y="115"/>
      <point x="131" y="200" type="curve"/>
      <point x="37" y="178" type="line"/>
      <point x="52" y="63"/>
      <point x="152" y="-14"/>
    </contour>
  </outline>
</glyph>
<glyph name="six" format="2">
  <advance width="594"/>
  <unicode hex="0036"/>
  <outline>
    <contour>
      <point x="309" y="-14" type="curve" smooth="yes"/>
      <point x="447" y="-14"/>
      <point x="543" y="81"/>
      <point x="543" y="221" type="curve" smooth="yes"/>
      <point x="543" y="352"/>
      <point x="451" y="444"/>
      <point x="318" y="444" type="curve" smooth="yes"/>
      <point x="219" y="444"/>
      <point x="145" y="402"/>
      <point x="124" y="339" type="curve"/>
      <point x="133" y="339" type="line"/>
      <point x="132" y="518"/>
      <point x="209" y="631"/>
      <point x="316" y="631" type="curve" smooth="yes"/>
      <point x="374" y="631"/>
      <point x="419" y="595"/>
      <point x="437" y="536" type="curve"/>
      <point x="521" y="567" type="line"/>
      <point x="492" y="650"/>
      <point x="414" y="703"/>
      <point x="322" y="703" type="curve" smooth="yes"/>
      <point x="143" y="703"/>
      <point x="46" y="536"/>
      <point x="46" y="314" type="curve" smooth="yes"/>
      <point x="46" y="125"/>
      <point x="122" y="-14"/>
    </contour>
    <contour>
      <point x="305" y="62" type="curve" smooth="yes"/>
      <point x="213" y="62"/>
      <point x="151" y="127"/>
      <point x="151" y="226" type="curve" smooth="yes"/>
      <point x="151" y="318"/>
      <point x="212" y="376"/>
      <point x="305" y="376" type="curve" smooth="yes"/>
      <point x="397" y="376"/>
      <point x="453" y="315"/>
      <point x="453" y="222" type="curve" smooth="yes"/>
      <point x="453" y="126"/>
      <point x="396" y="62"/>
    </contour>
  </outline>
</glyph>
<glyph name="seven" format="2">
  <advance width="473"/>
  <unicode hex="0037"/>
  <outline>
    <contour>
      <point x="125" y="0" type="curve"/>
      <point x="219" y="0" type="line"/>
      <point x="226" y="229"/>
      <point x="309" y="441"/>
      <point x="457" y="609" type="curve"/>
      <point x="457" y="680" type="line"/>
      <point x="23" y="680" type="line"/>
      <point x="23" y="602" type="line"/>
      <point x="363" y="602" type="line"/>
      <point x="359" y="610" type="line"/>
      <point x="229" y="459"/>
      <point x="136" y="224"/>
    </contour>
  </outline>
</glyph>
<glyph name="eight" format="2">
  <advance width="604"/>
  <unicode hex="0038"/>
  <outline>
    <contour>
      <point x="302" y="-14" type="curve" smooth="yes"/>
      <point x="455" y="-14"/>
      <point x="560" y="69"/>
      <point x="560" y="188" type="curve" smooth="yes"/>
      <point x="560" y="274"/>
      <point x="504" y="346"/>
      <point x="416" y="372" type="curve"/>
      <point x="416" y="364" type="line"/>
      <point x="488" y="382"/>
      <point x="534" y="440"/>
      <point x="534" y="514" type="curve" smooth="yes"/>
      <point x="534" y="621"/>
      <point x="440" y="694"/>
      <point x="302" y="694" type="curve" smooth="yes"/>
      <point x="164" y="694"/>
      <point x="70" y="621"/>
      <point x="70" y="514" type="curve" smooth="yes"/>
      <point x="70" y="440"/>
      <point x="116" y="382"/>
      <point x="188" y="364" type="curve"/>
      <point x="188" y="372" type="line"/>
      <point x="100" y="346"/>
      <point x="44" y="274"/>
      <point x="44" y="188" type="curve" smooth="yes"/>
      <point x="44" y="69"/>
      <point x="149" y="-14"/>
    </contour>
    <contour>
      <point x="302" y="60" type="curve" smooth="yes"/>
      <point x="202" y="60"/>
      <point x="138" y="113"/>
      <point x="138" y="196" type="curve" smooth="yes"/>
      <point x="138" y="279"/>
      <point x="202" y="332"/>
      <point x="302" y="332" type="curve" smooth="yes"/>
      <point x="402" y="332"/>
      <point x="466" y="279"/>
      <point x="466" y="196" type="curve" smooth="yes"/>
      <point x="466" y="113"/>
      <point x="402" y="60"/>
    </contour>
    <contour>
      <point x="302" y="398" type="curve" smooth="yes"/>
      <point x="215" y="398"/>
      <point x="160" y="442"/>
      <point x="160" y="510" type="curve" smooth="yes"/>
      <point x="160" y="578"/>
      <point x="215" y="622"/>
      <point x="302" y="622" type="curve" smooth="yes"/>
      <point x="389" y="622"/>
      <point x="444" y="578"/>
      <point x="444" y="510" type="curve" smooth="yes"/>
      <point x="444" y="442"/>
      <point x="389" y="398"/>
    </contour>
  </outline>
</glyph>
<glyph name="equal" format="2">
  <advance width="560"/>
  <unicode hex="003D"/>
  <outline>
    <contour>
      <point x="64" y="164" type="line"/>
      <point x="496" y="164" type="line"/>
      <point x="496" y="236" type="line"/>
      <point x="64" y="236" type="line"/>
    </contour>
    <contour>
      <point x="64" y="333" type="line"/>
      <point x="496" y="333" type="line"/>
      <point x="496" y="404" type="line"/>
      <point x="64" y="404" type="line"/>
    </contour>
  </outline>
</glyph>
<glyph name="greater" format="2">
  <advance width="560"/>
  <unicode hex="003E"/>
  <outline>
    <contour>
      <point x="52" y="24" type="line"/>
      <point x="516" y="250" type="line"/>
      <point x="516" y="316" type="line"/>
      <point x="52" y="544" type="line"/>
      <point x="52" y="460" type="line"/>
      <point x="434" y="280" type="line"/>
      <point x="434" y="288" type="line"/>
      <point x="52" y="112" type="line"/>
    </contour>
  </outline>
</glyph>
<glyph name="question" format="2">
  <advance width="440"/>
  <unicode hex="003F"/>
  <outline>
    <contour>
      <point x="176" y="212" type="line"/>
      <point x="256" y="212" type="line"/>
      <point x="256" y="220" type="line" smooth="yes"/>
      <point x="256" y="367"/>
      <point x="428" y="383"/>
      <point x="428" y="522" type="curve" smooth="yes"/>
      <point x="428" y="624"/>
      <point x="347" y="694"/>
      <point x="229" y="694" type="curve" smooth="yes"/>
      <point x="108" y="694"/>
      <point x="23" y="618"/>
      <point x="6" y="545" type="curve"/>
      <point x="93" y="516" type="line"/>
      <point x="102" y="571"/>
      <point x="153" y="619"/>
      <point x="225" y="619" type="curve" smooth="yes"/>
      <point x="294" y="619"/>
      <point x="336" y="577"/>
      <point x="336" y="518" type="curve" smooth="yes"/>
      <point x="336" y="406"/>
      <point x="189" y="398"/>
      <point x="178" y="240" type="curve" smooth="yes"/>
    </contour>
    <component base="period" xOffset="114"/>
  </outline>
</glyph>
<glyph name="at" format="2">
  <advance width="952"/>
  <unicode hex="0040"/>
  <outline>
    <contour>
      <point x="480" y="-186" type="curve" smooth="yes"/>
      <point x="587" y="-186"/>
      <point x="682" y="-156"/>
      <point x="740" y="-112" type="curve"/>
      <point x="701" y="-52" type="line"/>
      <point x="647" y="-89"/>
      <point x="566" y="-114"/>
      <point x="477" y="-114" type="curve" smooth="yes"/>
      <point x="271" y="-114"/>
      <point x="133" y="34"/>
      <point x="133" y="253" type="curve" smooth="yes"/>
      <point x="133" y="476"/>
      <point x="270" y="624"/>
      <point x="496" y="624" type="curve" smooth="yes"/>
      <point x="687" y="624"/>
      <point x="828" y="521"/>
      <point x="828" y="308" type="curve" smooth="yes"/>
      <point x="828" y="186"/>
      <point x="787" y="99"/>
      <point x="710" y="99" type="curve" smooth="yes"/>
      <point x="659" y="99"/>
      <point x="638" y="137"/>
      <point x="652" y="200" type="curve" smooth="yes"/>
      <point x="714" y="488" type="line"/>
      <point x="630" y="488" type="line"/>
      <point x="606" y="373" type="line"/>
      <point x="614" y="373" type="line"/>
      <point x="618" y="447"/>
      <point x="564" y="500"/>
      <point x="484" y="500" type="curve" smooth="yes"/>
      <point x="351" y="500"/>
      <point x="238" y="362"/>
      <point x="238" y="202" type="curve" smooth="yes"/>
      <point x="238" y="94"/>
      <point x="297" y="32"/>
      <point x="392" y="32" type="curve" smooth="yes"/>
      <point x="480" y="32"/>
      <point x="567" y="85"/>
      <point x="590" y="166" type="curve"/>
      <point x="582" y="166" type="line"/>
      <point x="568" y="86"/>
      <point x="614" y="32"/>
      <point x="694" y="32" type="curve" smooth="yes"/>
      <point x="822" y="32"/>
      <point x="908" y="147"/>
      <point x="908" y="313" type="curve" smooth="yes"/>
      <point x="908" y="543"/>
      <point x="742" y="694"/>
      <point x="494" y="694" type="curve" smooth="yes"/>
      <point x="228" y="694"/>
      <point x="50" y="517"/>
      <point x="50" y="250" type="curve" smooth="yes"/>
      <point x="50" y="-11"/>
      <point x="222" y="-186"/>
    </contour>
    <contour>
      <point x="422" y="99" type="curve" smooth="yes"/>
      <point x="363" y="99"/>
      <point x="328" y="140"/>
      <point x="328" y="210" type="curve" smooth="yes"/>
      <point x="328" y="329"/>
      <point x="405" y="432"/>
      <point x="496" y="432" type="curve" smooth="yes"/>
      <point x="554" y="432"/>
      <point x="590" y="391"/>
      <point x="590" y="321" type="curve" smooth="yes"/>
      <point x="590" y="202"/>
      <point x="515" y="99"/>
    </contour>
  </outline>
</glyph>
<glyph name="A" format="2">
  <advance width="624"/>
  <unicode hex="0041"/>
  <anchor x="603" y="8" name="ogonek"/>
  <anchor x="307" y="680" name="top"/>
  <outline>
    <contour>
      <point x="7" y="0" type="line"/>
      <point x="101" y="0" type="line"/>
      <point x="309" y="600" type="line"/>
      <point x="301" y="600" type="line"/>
      <point x="511" y="0" type="line"/>
      <point x="613" y="0" type="line"/>
      <point x="359" y="680" type="line"/>
      <point x="259" y="680" type="line"/>
    </contour>
    <contour>
      <point x="157" y="190" type="line"/>
      <point x="455" y="190" type="line"/>
      <point x="455" y="262" type="line"/>
      <point x="157" y="262" type="line"/>
    </contour>
  </outline>
</glyph>
<glyph name="B" format="2">
  <advance width="632"/>
  <unicode hex="0042"/>
  <outline>
    <contour>
      <point x="83" y="0" type="line"/>
      <point x="373" y="0" type="line" smooth="yes"/>
      <point x="505" y="0"/>
      <point x="589" y="71"/>
      <point x="589" y="184" type="curve" smooth="yes"/>
      <point x="589" y="290"/>
      <point x="518" y="359"/>
      <point x="407" y="361" type="curve"/>
      <point x="407" y="353" type="line"/>
      <point x="502" y="360"/>
      <point x="563" y="421"/>
      <point x="563" y="510" type="curve" smooth="yes"/>
      <point x="563" y="614"/>
      <point x="484" y="680"/>
      <point x="359" y="680" type="curve" smooth="yes"/>
      <point x="83" y="680" type="line"/>
    </contour>
    <contour>
      <point x="177" y="67" type="line"/>
      <point x="177" y="614" type="line"/>
      <point x="169" y="606" type="line"/>
      <point x="347" y="606" type="line" smooth="yes"/>
      <point x="422" y="606"/>
      <point x="467" y="566"/>
      <point x="467" y="498" type="curve" smooth="yes"/>
      <point x="467" y="428"/>
      <point x="422" y="387"/>
      <point x="345" y="387" type="curve" smooth="yes"/>
      <point x="169" y="387" type="line"/>
      <point x="169" y="314" type="line"/>
      <point x="367" y="314" type="line" smooth="yes"/>
      <point x="443" y="314"/>
      <point x="488" y="269"/>
      <point x="488" y="194" type="curve" smooth="yes"/>
      <point x="488" y="119"/>
      <point x="442" y="74"/>
      <point x="363" y="74" type="curve" smooth="yes"/>
      <point x="169" y="74" type="line"/>
    </contour>
  </outline>
</glyph>
<glyph name="C" format="2">
  <advance width="670"/>
  <unicode hex="0043"/>
  <anchor x="362" y="0" name="bottom"/>
  <anchor x="351" y="680" name="top"/>
  <outline>
    <contour>
      <point x="353" y="-14" type="curve" smooth="yes"/>
      <point x="500" y="-14"/>
      <point x="618" y="80"/>
      <point x="643" y="231" type="curve"/>
      <point x="547" y="246" type="line"/>
      <point x="531" y="134"/>
      <point x="456" y="63"/>
      <point x="354" y="63" type="curve" smooth="yes"/>
      <point x="225" y="63"/>
      <point x="143" y="172"/>
      <point x="143" y="344" type="curve" smooth="yes"/>
      <point x="143" y="513"/>
      <point x="225" y="620"/>
      <point x="351" y="620" type="curve" smooth="yes"/>
      <point x="447" y="620"/>
      <point x="517" y="556"/>
      <point x="535" y="456" type="curve"/>
      <point x="627" y="480" type="line"/>
      <point x="595" y="610"/>
      <point x="488" y="694"/>
      <point x="347" y="694" type="curve" smooth="yes"/>
      <point x="166" y="694"/>
      <point x="43" y="551"/>
      <point x="43" y="342" type="curve" smooth="yes"/>
      <point x="43" y="130"/>
      <point x="169" y="-14"/>
    </contour>
  </outline>
</glyph>
<glyph name="D" format="2">
  <advance width="694"/>
  <unicode hex="0044"/>
  <anchor x="347" y="0" name="bottom"/>
  <anchor x="175" y="340" name="center"/>
  <anchor x="327" y="680" name="top"/>
  <outline>
    <contour>
      <point x="83" y="0" type="line"/>
      <point x="326" y="0" type="line" smooth="yes"/>
      <point x="525" y="0"/>
      <point x="651" y="134"/>
      <point x="651" y="344" type="curve" smooth="yes"/>
      <point x="651" y="549"/>
      <point x="526" y="680"/>
      <point x="329" y="680" type="curve" smooth="yes"/>
      <point x="83" y="680" type="line"/>
    </contour>
    <contour>
      <point x="177" y="67" type="line"/>
      <point x="177" y="615" type="line"/>
      <point x="168" y="607" type="line"/>
      <point x="317" y="607" type="line" smooth="yes"/>
      <point x="464" y="607"/>
      <point x="551" y="509"/>
      <point x="551" y="342" type="curve" smooth="yes"/>
      <point x="551" y="174"/>
      <point x="465" y="74"/>
      <point x="319" y="74" type="curve" smooth="yes"/>
      <point x="168" y="74" type="line"/>
    </contour>
  </outline>
</glyph>
<glyph name="E" format="2">
  <advance width="578"/>
  <unicode hex="0045"/>
  <anchor x="535" y="8" name="ogonek"/>
  <anchor x="315" y="680" name="top"/>
  <outline>
    <contour>
      <point x="83" y="0" type="line"/>
      <point x="543" y="0" type="line"/>
      <point x="543" y="74" type="line"/>
      <point x="169" y="74" type="line"/>
      <point x="177" y="66" type="line"/>
      <point x="177" y="614" type="line"/>
      <point x="169" y="606" type="line"/>
      <point x="537" y="606" type="line"/>
      <point x="537" y="680" type="line"/>
      <point x="83" y="680" type="line"/>
    </contour>
    <contour>
      <point x="169" y="314" type="line"/>
      <point x="503" y="314" type="line"/>
      <point x="503" y="387" type="line"/>
      <point x="169" y="387" type="line"/>
    </contour>
  </outline>
</glyph>
<glyph name="F" format="2">
  <advance width="544"/>
  <unicode hex="0046"/>
  <outline>
    <contour>
      <point x="83" y="0" type="line"/>
      <point x="177" y="0" type="line"/>
      <point x="177" y="613" type="line"/>
      <point x="169" y="606" type="line"/>
      <point x="525" y="606" type="line"/>
      <point x="525" y="680" type="line"/>
      <point x="83" y="680" type="line"/>
    </contour>
    <contour>
      <point x="169" y="312" type="line"/>
      <point x="469" y="312" type="line"/>
      <point x="469" y="386" type="line"/>
      <point x="169" y="386" type="line"/>
    </contour>
  </outline>
</glyph>
<glyph name="G" format="2">
  <advance width="692"/>
  <unicode hex="0047"/>
  <note>
Versione senza gamba?
</note>
  <anchor x="382" y="0" name="bottom"/>
  <anchor x="355" y="680" name="top"/>
  <outline>
    <contour>
      <point x="369" y="-14" type="curve" smooth="yes"/>
      <point x="468" y="-14"/>
      <point x="573" y="19"/>
      <point x="631" y="77" type="curve"/>
      <point x="631" y="347" type="line"/>
      <point x="344" y="347" type="line"/>
      <point x="344" y="273" type="line"/>
      <point x="545" y="273" type="line"/>
      <point x="545" y="103" type="line"/>
      <point x="509" y="77"/>
      <point x="436" y="62"/>
      <point x="379" y="62" type="curve" smooth="yes"/>
      <point x="223" y="62"/>
      <point x="142" y="175"/>
      <point x="142" y="347" type="curve" smooth="yes"/>
      <point x="142" y="516"/>
      <point x="227" y="620"/>
      <point x="355" y="620" type="curve" smooth="yes"/>
      <point x="449" y="620"/>
      <point x="517" y="564"/>
      <point x="533" y="472" type="curve"/>
      <point x="627" y="494" type="line"/>
      <point x="603" y="614"/>
      <point x="493" y="694"/>
      <point x="357" y="694" type="curve" smooth="yes"/>
      <point x="170" y="694"/>
      <point x="43" y="552"/>
      <point x="43" y="342" type="curve" smooth="yes"/>
      <point x="43" y="131"/>
      <point x="167" y="-14"/>
    </contour>
  </outline>
</glyph>
<glyph name="H" format="2">
  <advance width="696"/>
  <unicode hex="0048"/>
  <anchor x="348" y="0" name="bottom"/>
  <anchor x="348" y="510" name="center"/>
  <anchor x="348" y="680" name="top"/>
  <anchor x="23" y="680" name="topleft"/>
  <outline>
    <contour>
      <point x="519" y="0" type="line"/>
      <point x="613" y="0" type="line"/>
      <point x="613" y="680" type="line"/>
      <point x="519" y="680" type="line"/>
    </contour>
    <contour>
      <point x="83" y="0" type="line"/>
      <point x="177" y="0" type="line"/>
      <point x="177" y="680" type="line"/>
      <point x="83" y="680" type="line"/>
    </contour>
    <contour>
      <point x="169" y="320" type="line"/>
      <point x="527" y="320" type="line"/>
      <point x="527" y="396" type="line"/>
      <point x="169" y="396" type="line"/>
    </contour>
  </outline>
</glyph>
<glyph name="I" format="2">
  <advance width="260"/>
  <unicode hex="0049"/>
  <anchor x="169" y="8" name="ogonek"/>
  <anchor x="130" y="680" name="top"/>
  <outline>
    <contour>
      <point x="83" y="0" type="line"/>
      <point x="177" y="0" type="line"/>
      <point x="177" y="680" type="line"/>
      <point x="83" y="680" type="line"/>
    </contour>
  </outline>
</glyph>
<glyph name="J" format="2">
  <advance width="522"/>
  <unicode hex="004A"/>
  <anchor x="261" y="0" name="bottom"/>
  <anchor x="391" y="680" name="top"/>
  <outline>
    <contour>
      <point x="236" y="-14" type="curve" smooth="yes"/>
      <point x="365" y="-14"/>
      <point x="447" y="68"/>
      <point x="447" y="198" type="curve" smooth="yes"/>
      <point x="447" y="680" type="line"/>
      <point x="353" y="680" type="line"/>
      <point x="353" y="195" type="line" smooth="yes"/>
      <point x="353" y="113"/>
      <point x="311" y="64"/>
      <point x="239" y="64" type="curve" smooth="yes"/>
      <point x="157" y="64"/>
      <point x="111" y="126"/>
      <point x="115" y="232" type="curve"/>
      <point x="21" y="220" type="line"/>
      <point x="17" y="77"/>
      <point x="101" y="-14"/>
    </contour>
  </outline>
</glyph>
<glyph name="K" format="2">
  <advance width="632"/>
  <unicode hex="004B"/>
  <anchor x="339" y="0" name="bottom"/>
  <anchor x="327" y="680" name="top"/>
  <outline>
    <contour>
      <point x="83" y="0" type="line"/>
      <point x="177" y="0" type="line"/>
      <point x="177" y="251" type="line"/>
      <point x="169" y="231" type="line"/>
      <point x="601" y="680" type="line"/>
      <point x="489" y="680" type="line"/>
      <point x="169" y="342" type="line"/>
      <point x="177" y="342" type="line"/>
      <point x="177" y="680" type="line"/>
      <point x="83" y="680" type="line"/>
    </contour>
    <contour>
      <point x="509" y="0" type="line"/>
      <point x="623" y="0" type="line"/>
      <point x="323" y="402" type="line"/>
      <point x="263" y="340" type="line"/>
    </contour>
  </outline>
</glyph>
<glyph name="L" format="2">
  <advance width="524"/>
  <unicode hex="004C"/>
  <anchor x="311" y="0" name="bottom"/>
  <anchor x="151" y="680" name="top"/>
  <anchor x="219" y="532" name="topright"/>
  <outline>
    <contour>
      <point x="83" y="0" type="line"/>
      <point x="177" y="0" type="line"/>
      <point x="177" y="680" type="line"/>
      <point x="83" y="680" type="line"/>
    </contour>
    <contour>
      <point x="169" y="0" type="line"/>
      <point x="513" y="0" type="line"/>
      <point x="513" y="80" type="line"/>
      <point x="169" y="80" type="line"/>
    </contour>
  </outline>
</glyph>
<glyph name="M" format="2">
  <advance width="844"/>
  <unicode hex="004D"/>
  <outline>
    <contour>
      <point x="83" y="0" type="line"/>
      <point x="167" y="0" type="line"/>
      <point x="167" y="588" type="line"/>
      <point x="159" y="588" type="line"/>
      <point x="377" y="0" type="line"/>
      <point x="461" y="0" type="line"/>
      <point x="677" y="590" type="line"/>
      <point x="669" y="590" type="line"/>
      <point x="669" y="0" type="line"/>
      <point x="761" y="0" type="line"/>
      <point x="761" y="680" type="line"/>
      <point x="631" y="680" type="line"/>
      <point x="419" y="94" type="line"/>
      <point x="429" y="94" type="line"/>
      <point x="211" y="680" type="line"/>
      <point x="83" y="680" type="line"/>
    </contour>
  </outline>
</glyph>
<glyph name="N" format="2">
  <advance width="704"/>
  <unicode hex="004E"/>
  <anchor x="363" y="0" name="bottom"/>
  <anchor x="354" y="680" name="top"/>
  <outline>
    <contour>
      <point x="83" y="0" type="line"/>
      <point x="169" y="0" type="line"/>
      <point x="169" y="590" type="line"/>
      <point x="161" y="590" type="line"/>
      <point x="507" y="0" type="line"/>
      <point x="621" y="0" type="line"/>
      <point x="621" y="680" type="line"/>
      <point x="535" y="680" type="line"/>
      <point x="535" y="106" type="line"/>
      <point x="543" y="106" type="line"/>
      <point x="205" y="680" type="line"/>
      <point x="83" y="680" type="line"/>
    </contour>
  </outline>
</glyph>
<glyph name="O" format="2">
  <advance width="718"/>
  <unicode hex="004F"/>
  <anchor x="361" y="335" name="center"/>
  <anchor x="359" y="680" name="top"/>
  <outline>
    <contour>
      <point x="359" y="-14" type="curve" smooth="yes"/>
      <point x="547" y="-14"/>
      <point x="675" y="130"/>
      <point x="675" y="340" type="curve" smooth="yes"/>
      <point x="675" y="551"/>
      <point x="547" y="694"/>
      <point x="359" y="694" type="curve" smooth="yes"/>
      <point x="171" y="694"/>
      <point x="43" y="551"/>
      <point x="43" y="340" type="curve" smooth="yes"/>
      <point x="43" y="130"/>
      <point x="171" y="-14"/>
    </contour>
    <contour>
      <point x="359" y="62" type="curve" smooth="yes"/>
      <point x="227" y="62"/>
      <point x="143" y="171"/>
      <point x="143" y="341" type="curve" smooth="yes"/>
      <point x="143" y="512"/>
      <point x="227" y="620"/>
      <point x="359" y="620" type="curve" smooth="yes"/>
      <point x="491" y="620"/>
      <point x="575" y="512"/>
      <point x="575" y="341" type="curve" smooth="yes"/>
      <point x="575" y="171"/>
      <point x="491" y="62"/>
    </contour>
  </outline>
</glyph>
<glyph name="P" format="2">
  <advance width="610"/>
  <unicode hex="0050"/>
  <outline>
    <contour>
      <point x="83" y="0" type="line"/>
      <point x="177" y="0" type="line"/>
      <point x="177" y="614" type="line"/>
      <point x="169" y="606" type="line"/>
      <point x="351" y="606" type="line" smooth="yes"/>
      <point x="433" y="606"/>
      <point x="481" y="560"/>
      <point x="481" y="482" type="curve" smooth="yes"/>
      <point x="481" y="402"/>
      <point x="431" y="354"/>
      <point x="347" y="354" type="curve" smooth="yes"/>
      <point x="169" y="354" type="line"/>
      <point x="169" y="280" type="line"/>
      <point x="335" y="280" type="line" smooth="yes"/>
      <point x="484" y="280"/>
      <point x="579" y="359"/>
      <point x="579" y="484" type="curve" smooth="yes"/>
      <point x="579" y="604"/>
      <point x="486" y="680"/>
      <point x="339" y="680" type="curve" smooth="yes"/>
      <point x="83" y="680" type="line"/>
    </contour>
  </outline>
</glyph>
<glyph name="R" format="2">
  <advance width="640"/>
  <unicode hex="0052"/>
  <anchor x="351" y="0" name="bottom"/>
  <anchor x="321" y="680" name="top"/>
  <outline>
    <contour>
      <point x="83" y="0" type="line"/>
      <point x="177" y="0" type="line"/>
      <point x="177" y="614" type="line"/>
      <point x="169" y="606" type="line"/>
      <point x="351" y="606" type="line" smooth="yes"/>
      <point x="429" y="606"/>
      <point x="475" y="564"/>
      <point x="475" y="494" type="curve" smooth="yes"/>
      <point x="475" y="421"/>
      <point x="427" y="378"/>
      <point x="347" y="378" type="curve" smooth="yes"/>
      <point x="169" y="378" type="line"/>
      <point x="169" y="304" type="line"/>
      <point x="299" y="304" type="line" smooth="yes"/>
      <point x="351" y="304"/>
      <point x="395" y="276"/>
      <point x="415" y="228" type="curve" smooth="yes"/>
      <point x="509" y="0" type="line"/>
      <point x="619" y="0" type="line"/>
      <point x="495" y="260" type="line" smooth="yes"/>
      <point x="475" y="302"/>
      <point x="441" y="324"/>
      <point x="407" y="324" type="curve"/>
      <point x="407" y="316" type="line"/>
      <point x="507" y="328"/>
      <point x="573" y="394"/>
      <point x="573" y="494" type="curve" smooth="yes"/>
      <point x="573" y="608"/>
      <point x="488" y="680"/>
      <point x="353" y="680" type="curve" smooth="yes"/>
      <point x="83" y="680" type="line"/>
    </contour>
  </outline>
</glyph>
<glyph name="S" format="2">
  <advance width="606"/>
  <unicode hex="0053"/>
  <note>
Falls to the right
</note>
  <anchor x="314" y="0" name="bottom"/>
  <anchor x="295" y="680" name="top"/>
  <outline>
    <contour>
      <point x="311" y="-14" type="curve" smooth="yes"/>
      <point x="464" y="-14"/>
      <point x="567" y="68"/>
      <point x="565" y="193" type="curve" smooth="yes"/>
      <point x="561" y="457"/>
      <point x="160" y="332"/>
      <point x="158" y="510" type="curve" smooth="yes"/>
      <point x="157" y="576"/>
      <point x="213" y="620"/>
      <point x="300" y="620" type="curve" smooth="yes"/>
      <point x="381" y="620"/>
      <point x="441" y="576"/>
      <point x="459" y="506" type="curve"/>
      <point x="553" y="539" type="line"/>
      <point x="527" y="637"/>
      <point x="430" y="694"/>
      <point x="308" y="694" type="curve" smooth="yes"/>
      <point x="161" y="694"/>
      <point x="66" y="618"/>
      <point x="67" y="501" type="curve" smooth="yes"/>
      <point x="70" y="246"/>
      <point x="470" y="372"/>
      <point x="473" y="183" type="curve" smooth="yes"/>
      <point x="474" y="109"/>
      <point x="413" y="62"/>
      <point x="317" y="62" type="curve" smooth="yes"/>
      <point x="227" y="62"/>
      <point x="159" y="111"/>
      <point x="140" y="194" type="curve"/>
      <point x="46" y="162" type="line"/>
      <point x="71" y="55"/>
      <point x="179" y="-14"/>
    </contour>
  </outline>
</glyph>
<glyph name="T" format="2">
  <advance width="562"/>
  <unicode hex="0054"/>
  <anchor x="283" y="0" name="bottom"/>
  <anchor x="281" y="372" name="center"/>
  <anchor x="281" y="680" name="top"/>
  <outline>
    <contour>
      <point x="234" y="0" type="line"/>
      <point x="328" y="0" type="line"/>
      <point x="328" y="614" type="line"/>
      <point x="234" y="614" type="line"/>
    </contour>
    <contour>
      <point x="11" y="606" type="line"/>
      <point x="551" y="606" type="line"/>
      <point x="551" y="680" type="line"/>
      <point x="11" y="680" type="line"/>
    </contour>
  </outline>
</glyph>
<glyph name="U" format="2">
  <advance width="686"/>
  <unicode hex="0055"/>
  <anchor x="445" y="11" name="ogonek"/>
  <anchor x="343" y="680" name="top"/>
  <outline>
    <contour>
      <point x="343" y="-14" type="curve" smooth="yes"/>
      <point x="509" y="-14"/>
      <point x="615" y="90"/>
      <point x="615" y="254" type="curve" smooth="yes"/>
      <point x="615" y="680" type="line"/>
      <point x="527" y="680" type="line"/>
      <point x="527" y="248" type="line" smooth="yes"/>
      <point x="527" y="134"/>
      <point x="459" y="66"/>
      <point x="345" y="66" type="curve" smooth="yes"/>
      <point x="232" y="66"/>
      <point x="165" y="134"/>
      <point x="165" y="248" type="curve" smooth="yes"/>
      <point x="165" y="680" type="line"/>
      <point x="71" y="680" type="line"/>
      <point x="71" y="254" type="line" smooth="yes"/>
      <point x="71" y="90"/>
      <point x="177" y="-14"/>
    </contour>
  </outline>
</glyph>
<glyph name="V" format="2">
  <advance width="614"/>
  <unicode hex="0056"/>
  <outline>
    <contour>
      <point x="259" y="0" type="line"/>
      <point x="359" y="0" type="line"/>
      <point x="601" y="680" type="line"/>
      <point x="508" y="680" type="line"/>
      <point x="308" y="100" type="line"/>
      <point x="319" y="100" type="line"/>
      <point x="115" y="680" type="line"/>
      <point x="13" y="680" type="line"/>
    </contour>
  </outline>
</glyph>
<glyph name="W" format="2">
  <advance width="884"/>
  <unicode hex="0057"/>
  <anchor x="442" y="0" name="bottom"/>
  <anchor x="442" y="680" name="top"/>
  <outline>
    <contour>
      <point x="202" y="0" type="line"/>
      <point x="305" y="0" type="line"/>
      <point x="451" y="596" type="line"/>
      <point x="443" y="596" type="line"/>
      <point x="585" y="0" type="line"/>
      <point x="693" y="0" type="line"/>
      <point x="872" y="680" type="line"/>
      <point x="781" y="680" type="line"/>
      <point x="639" y="84" type="line"/>
      <point x="648" y="84" type="line"/>
      <point x="502" y="680" type="line"/>
      <point x="395" y="680" type="line"/>
      <point x="253" y="84" type="line"/>
      <point x="262" y="84" type="line"/>
      <point x="112" y="680" type="line"/>
      <point x="17" y="680" type="line"/>
    </contour>
  </outline>
</glyph>
<glyph name="X" format="2">
  <advance width="598"/>
  <unicode hex="0058"/>
  <outline>
    <contour>
      <point x="481" y="0" type="line"/>
      <point x="591" y="0" type="line"/>
      <point x="131" y="680" type="line"/>
      <point x="23" y="680" type="line"/>
    </contour>
    <contour>
      <point x="7" y="0" type="line"/>
      <point x="111" y="0" type="line"/>
      <point x="303" y="280" type="line"/>
      <point x="253" y="356" type="line"/>
    </contour>
    <contour>
      <point x="351" y="340" type="line"/>
      <point x="585" y="680" type="line"/>
      <point x="483" y="680" type="line"/>
      <point x="301" y="416" type="line"/>
    </contour>
  </outline>
</glyph>
<glyph name="Y" format="2">
  <advance width="582"/>
  <unicode hex="0059"/>
  <anchor x="295" y="680" name="top"/>
  <outline>
    <contour>
      <point x="249" y="0" type="line"/>
      <point x="343" y="0" type="line"/>
      <point x="343" y="270" type="line"/>
      <point x="573" y="680" type="line"/>
      <point x="475" y="680" type="line"/>
      <point x="297" y="350" type="line"/>
      <point x="305" y="350" type="line"/>
      <point x="113" y="680" type="line"/>
      <point x="9" y="680" type="line"/>
      <point x="249" y="272" type="line"/>
    </contour>
  </outline>
</glyph>
<glyph name="Z" format="2">
  <advance width="542"/>
  <unicode hex="005A"/>
  <anchor x="271" y="0" name="bottom"/>
  <anchor x="271" y="340" name="center"/>
  <anchor x="267" y="680" name="top"/>
  <outline>
    <contour>
      <point x="25" y="0" type="line"/>
      <point x="517" y="0" type="line"/>
      <point x="517" y="74" type="line"/>
      <point x="127" y="74" type="line"/>
      <point x="131" y="66" type="line"/>
      <point x="515" y="622" type="line"/>
      <point x="515" y="680" type="line"/>
      <point x="35" y="680" type="line"/>
      <point x="35" y="606" type="line"/>
      <point x="413" y="606" type="line"/>
      <point x="409" y="614" type="line"/>
      <point x="25" y="60" type="line"/>
    </contour>
  </outline>
</glyph>
<glyph name="bracketleft" format="2">
  <advance width="299"/>
  <unicode hex="005B"/>
  <outline>
    <contour>
      <point x="69" y="-218" type="line"/>
      <point x="289" y="-218" type="line"/>
      <point x="289" y="-148" type="line"/>
      <point x="147" y="-148" type="line"/>
      <point x="155" y="-156" type="line"/>
      <point x="155" y="620" type="line"/>
      <point x="147" y="612" type="line"/>
      <point x="288" y="612" type="line"/>
      <point x="288" y="680" type="line"/>
      <point x="69" y="680" type="line"/>
    </contour>
  </outline>
</glyph>
<glyph name="asciicircum" format="2">
  <advance width="544"/>
  <unicode hex="005E"/>
  <outline>
    <contour>
      <point x="40" y="280" type="line"/>
      <point x="124" y="280" type="line"/>
      <point x="278" y="632" type="line"/>
      <point x="270" y="632" type="line"/>
      <point x="424" y="280" type="line"/>
      <point x="504" y="280" type="line"/>
      <point x="308" y="712" type="line"/>
      <point x="240" y="712" type="line"/>
    </contour>
  </outline>
</glyph>
<glyph name="a" format="2">
  <advance width="544"/>
  <unicode hex="0061"/>
  <anchor x="479" y="8" name="ogonek"/>
  <anchor x="269" y="532" name="top"/>
  <outline>
    <contour>
      <point x="207" y="-12" type="curve" smooth="yes"/>
      <point x="308" y="-12"/>
      <point x="386" y="47"/>
      <point x="397" y="148" type="curve"/>
      <point x="389" y="148" type="line"/>
      <point x="389" y="73"/>
      <point x="393" y="33"/>
      <point x="404" y="0" type="curve"/>
      <point x="487" y="0" type="line"/>
      <point x="478" y="37"/>
      <point x="473" y="76"/>
      <point x="473" y="125" type="curve" smooth="yes"/>
      <point x="473" y="358" type="line" smooth="yes"/>
      <point x="473" y="475"/>
      <point x="391" y="544"/>
      <point x="270" y="544" type="curve" smooth="yes"/>
      <point x="163" y="544"/>
      <point x="73" y="484"/>
      <point x="50" y="408" type="curve"/>
      <point x="130" y="372" type="line"/>
      <point x="146" y="430"/>
      <point x="199" y="474"/>
      <point x="270" y="474" type="curve" smooth="yes"/>
      <point x="342" y="474"/>
      <point x="387" y="429"/>
      <point x="387" y="353" type="curve" smooth="yes"/>
      <point x="387" y="274" type="line" smooth="yes"/>
      <point x="387" y="140"/>
      <point x="320" y="60"/>
      <point x="223" y="60" type="curve" smooth="yes"/>
      <point x="167" y="60"/>
      <point x="131" y="93"/>
      <point x="131" y="146" type="curve" smooth="yes"/>
      <point x="131" y="191"/>
      <point x="159" y="239"/>
      <point x="267" y="254" type="curve" smooth="yes"/>
      <point x="395" y="272" type="line"/>
      <point x="395" y="332" type="line"/>
      <point x="223" y="308" type="line" smooth="yes"/>
      <point x="102" y="291"/>
      <point x="43" y="224"/>
      <point x="43" y="140" type="curve" smooth="yes"/>
      <point x="43" y="50"/>
      <point x="110" y="-12"/>
    </contour>
  </outline>
</glyph>
<glyph name="c" format="2">
  <advance width="528"/>
  <unicode hex="0063"/>
  <anchor x="275" y="0" name="bottom"/>
  <anchor x="276" y="532" name="top"/>
  <outline>
    <contour>
      <point x="281" y="-12" type="curve" smooth="yes"/>
      <point x="399" y="-12"/>
      <point x="490" y="63"/>
      <point x="505" y="172" type="curve"/>
      <point x="421" y="190" type="line"/>
      <point x="409" y="111"/>
      <point x="354" y="60"/>
      <point x="279" y="60" type="curve" smooth="yes"/>
      <point x="184" y="60"/>
      <point x="123" y="141"/>
      <point x="123" y="268" type="curve" smooth="yes"/>
      <point x="123" y="394"/>
      <point x="183" y="474"/>
      <point x="277" y="474" type="curve" smooth="yes"/>
      <point x="348" y="474"/>
      <point x="402" y="427"/>
      <point x="415" y="352" type="curve"/>
      <point x="499" y="376" type="line"/>
      <point x="479" y="476"/>
      <point x="392" y="544"/>
      <point x="279" y="544" type="curve" smooth="yes"/>
      <point x="134" y="544"/>
      <point x="33" y="431"/>
      <point x="33" y="266" type="curve" smooth="yes"/>
      <point x="33" y="101"/>
      <point x="134" y="-12"/>
    </contour>
  </outline>
</glyph>
<glyph name="d" format="2">
  <advance width="594"/>
  <unicode hex="0064"/>
  <anchor x="297" y="0" name="bottom"/>
  <anchor x="444" y="570" name="center"/>
  <anchor x="297" y="532" name="top"/>
  <anchor x="525" y="532" name="topright"/>
  <outline>
    <contour>
      <point x="265" y="-12" type="curve" smooth="yes"/>
      <point x="359" y="-12"/>
      <point x="433" y="41"/>
      <point x="449" y="123" type="curve"/>
      <point x="441" y="123" type="line"/>
      <point x="441" y="0" type="line"/>
      <point x="525" y="0" type="line"/>
      <point x="525" y="712" type="line"/>
      <point x="439" y="712" type="line"/>
      <point x="439" y="420" type="line"/>
      <point x="447" y="420" type="line"/>
      <point x="423" y="496"/>
      <point x="353" y="544"/>
      <point x="263" y="544" type="curve" smooth="yes"/>
      <point x="126" y="544"/>
      <point x="33" y="432"/>
      <point x="33" y="268" type="curve" smooth="yes"/>
      <point x="33" y="102"/>
      <point x="125" y="-12"/>
    </contour>
    <contour>
      <point x="280" y="62" type="curve" smooth="yes"/>
      <point x="183" y="62"/>
      <point x="122" y="142"/>
      <point x="122" y="267" type="curve" smooth="yes"/>
      <point x="122" y="392"/>
      <point x="184" y="472"/>
      <point x="281" y="472" type="curve" smooth="yes"/>
      <point x="378" y="472"/>
      <point x="439" y="393"/>
      <point x="439" y="268" type="curve" smooth="yes"/>
      <point x="439" y="142"/>
      <point x="377" y="62"/>
    </contour>
  </outline>
</glyph>
<glyph name="e" format="2">
  <advance width="546"/>
  <unicode hex="0065"/>
  <anchor x="360" y="11" name="ogonek"/>
  <anchor x="275" y="532" name="top"/>
  <outline>
    <contour>
      <point x="285" y="-12" type="curve" smooth="yes"/>
      <point x="397" y="-12"/>
      <point x="485" y="50"/>
      <point x="509" y="154" type="curve"/>
      <point x="427" y="176" type="line"/>
      <point x="412" y="106"/>
      <point x="357" y="60"/>
      <point x="284" y="60" type="curve" smooth="yes"/>
      <point x="185" y="60"/>
      <point x="122" y="142"/>
      <point x="122" y="270" type="curve" smooth="yes"/>
      <point x="122" y="395"/>
      <point x="183" y="474"/>
      <point x="279" y="474" type="curve" smooth="yes"/>
      <point x="364" y="474"/>
      <point x="421" y="409"/>
      <point x="423" y="308" type="curve"/>
      <point x="431" y="316" type="line"/>
      <point x="114" y="316" type="line"/>
      <point x="114" y="248" type="line"/>
      <point x="509" y="248" type="line"/>
      <point x="525" y="428"/>
      <point x="426" y="544"/>
      <point x="277" y="544" type="curve" smooth="yes"/>
      <point x="132" y="544"/>
      <point x="33" y="432"/>
      <point x="33" y="268" type="curve" smooth="yes"/>
      <point x="33" y="102"/>
      <point x="135" y="-12"/>
    </contour>
  </outline>
</glyph>
<glyph name="f" format="2">
  <advance width="292"/>
  <unicode hex="0066"/>
  <note>
Controlla curva
</note>
  <outline>
    <contour>
      <point x="83" y="0" type="line"/>
      <point x="169" y="0" type="line"/>
      <point x="169" y="584" type="line" smooth="yes"/>
      <point x="169" y="644"/>
      <point x="212" y="666"/>
      <point x="286" y="644" type="curve"/>
      <point x="299" y="712" type="line"/>
      <point x="163" y="750"/>
      <point x="83" y="701"/>
      <point x="83" y="582" type="curve" smooth="yes"/>
    </contour>
    <contour>
      <point x="9" y="466" type="line"/>
      <point x="269" y="466" type="line"/>
      <point x="269" y="532" type="line"/>
      <point x="9" y="532" type="line"/>
    </contour>
  </outline>
</glyph>
<glyph name="g" format="2">
  <advance width="587"/>
  <unicode hex="0067"/>
  <anchor x="286" y="532" name="top"/>
  <outline>
    <contour>
      <point x="283" y="-230" type="curve" smooth="yes"/>
      <point x="429" y="-230"/>
      <point x="523" y="-149"/>
      <point x="523" y="-20" type="curve" smooth="yes"/>
      <point x="523" y="532" type="line"/>
      <point x="439" y="532" type="line"/>
      <point x="439" y="418" type="line"/>
      <point x="447" y="418" type="line"/>
      <point x="425" y="494"/>
      <point x="351" y="544"/>
      <point x="263" y="544" type="curve" smooth="yes"/>
      <point x="131" y="544"/>
      <point x="35" y="434"/>
      <point x="35" y="272" type="curve" smooth="yes"/>
      <point x="35" y="110"/>
      <point x="128" y="0"/>
      <point x="263" y="0" type="curve" smooth="yes"/>
      <point x="358" y="0"/>
      <point x="431" y="55"/>
      <point x="445" y="136" type="curve"/>
      <point x="437" y="136" type="line"/>
      <point x="437" y="-30" type="line" smooth="yes"/>
      <point x="437" y="-112"/>
      <point x="382" y="-158"/>
      <point x="283" y="-158" type="curve" smooth="yes"/>
      <point x="196" y="-158"/>
      <point x="138" y="-121"/>
      <point x="117" y="-61" type="curve"/>
      <point x="42" y="-89" type="line"/>
      <point x="71" y="-176"/>
      <point x="165" y="-230"/>
    </contour>
    <contour>
      <point x="281" y="71" type="curve" smooth="yes"/>
      <point x="186" y="71"/>
      <point x="125" y="149"/>
      <point x="125" y="272" type="curve" smooth="yes"/>
      <point x="125" y="394"/>
      <point x="186" y="472"/>
      <point x="281" y="472" type="curve" smooth="yes"/>
      <point x="376" y="472"/>
      <point x="437" y="394"/>
      <point x="437" y="272" type="curve" smooth="yes"/>
      <point x="437" y="149"/>
      <point x="376" y="71"/>
    </contour>
  </outline>
</glyph>
<glyph name="h" format="2">
  <advance width="572"/>
  <unicode hex="0068"/>
  <anchor x="286" y="0" name="bottom"/>
  <anchor x="145" y="570" name="center"/>
  <anchor x="286" y="712" name="top"/>
  <outline>
    <contour>
      <point x="69" y="0" type="line"/>
      <point x="155" y="0" type="line"/>
      <point x="155" y="240" type="line" smooth="yes"/>
      <point x="155" y="388"/>
      <point x="211" y="470"/>
      <point x="305" y="470" type="curve" smooth="yes"/>
      <point x="379" y="470"/>
      <point x="425" y="419"/>
      <point x="425" y="328" type="curve" smooth="yes"/>
      <point x="425" y="0" type="line"/>
      <point x="511" y="0" type="line"/>
      <point x="511" y="356" type="line" smooth="yes"/>
      <point x="511" y="468"/>
      <point x="437" y="544"/>
      <point x="331" y="544" type="curve" smooth="yes"/>
      <point x="233" y="544"/>
      <point x="159" y="480"/>
      <point x="147" y="388" type="curve"/>
      <point x="155" y="388" type="line"/>
      <point x="155" y="712" type="line"/>
      <point x="69" y="712" type="line"/>
    </contour>
  </outline>
</glyph>
<glyph name="k" format="2">
  <advance width="518"/>
  <unicode hex="006B"/>
  <anchor x="291" y="0" name="bottom"/>
  <outline>
    <contour>
      <point x="69" y="0" type="line"/>
      <point x="155" y="0" type="line"/>
      <point x="155" y="196" type="line"/>
      <point x="147" y="180" type="line"/>
      <point x="501" y="532" type="line"/>
      <point x="399" y="532" type="line"/>
      <point x="147" y="280" type="line"/>
      <point x="155" y="280" type="line"/>
      <point x="155" y="712" type="line"/>
      <point x="69" y="712" type="line"/>
    </contour>
    <contour>
      <point x="417" y="0" type="line"/>
      <point x="519" y="0" type="line"/>
      <point x="289" y="332" type="line"/>
      <point x="233" y="276" type="line"/>
    </contour>
  </outline>
</glyph>
<glyph name="l" format="2">
  <advance width="224"/>
  <unicode hex="006C"/>
  <anchor x="112" y="0" name="bottom"/>
  <anchor x="115" y="692" name="top"/>
  <anchor x="155" y="532" name="topright"/>
  <outline>
    <contour>
      <point x="69" y="0" type="line"/>
      <point x="155" y="0" type="line"/>
      <point x="155" y="712" type="line"/>
      <point x="69" y="712" type="line"/>
    </contour>
  </outline>
</glyph>
<glyph name="n" format="2">
  <advance width="567"/>
  <unicode hex="006E"/>
  <anchor x="292" y="0" name="bottom"/>
  <anchor x="288" y="532" name="top"/>
  <outline>
    <contour>
      <point x="64" y="0" type="line"/>
      <point x="150" y="0" type="line"/>
      <point x="150" y="240" type="line" smooth="yes"/>
      <point x="150" y="385"/>
      <point x="206" y="470"/>
      <point x="300" y="470" type="curve" smooth="yes"/>
      <point x="375" y="470"/>
      <point x="420" y="417"/>
      <point x="420" y="328" type="curve" smooth="yes"/>
      <point x="420" y="0" type="line"/>
      <point x="506" y="0" type="line"/>
      <point x="506" y="356" type="line" smooth="yes"/>
      <point x="506" y="468"/>
      <point x="432" y="544"/>
      <point x="326" y="544" type="curve" smooth="yes"/>
      <point x="228" y="544"/>
      <point x="152" y="480"/>
      <point x="140" y="388" type="curve"/>
      <point x="148" y="388" type="line"/>
      <point x="148" y="532" type="line"/>
      <point x="64" y="532" type="line"/>
    </contour>
  </outline>
</glyph>
<glyph name="o" format="2">
  <advance width="562"/>
  <unicode hex="006F"/>
  <anchor x="281" y="264" name="center"/>
  <anchor x="280" y="532" name="top"/>
  <outline>
    <contour>
      <point x="281" y="-12" type="curve" smooth="yes"/>
      <point x="428" y="-12"/>
      <point x="529" y="101"/>
      <point x="529" y="266" type="curve" smooth="yes"/>
      <point x="529" y="431"/>
      <point x="428" y="544"/>
      <point x="281" y="544" type="curve" smooth="yes"/>
      <point x="134" y="544"/>
      <point x="33" y="431"/>
      <point x="33" y="266" type="curve" smooth="yes"/>
      <point x="33" y="101"/>
      <point x="134" y="-12"/>
    </contour>
    <contour>
      <point x="281" y="60" type="curve" smooth="yes"/>
      <point x="184" y="60"/>
      <point x="123" y="140"/>
      <point x="123" y="267" type="curve" smooth="yes"/>
      <point x="123" y="394"/>
      <point x="184" y="474"/>
      <point x="281" y="474" type="curve" smooth="yes"/>
      <point x="378" y="474"/>
      <point x="439" y="394"/>
      <point x="439" y="267" type="curve" smooth="yes"/>
      <point x="439" y="140"/>
      <point x="378" y="60"/>
    </contour>
  </outline>
</glyph>
<glyph name="p" format="2">
  <advance width="590"/>
  <unicode hex="0070"/>
  <outline>
    <contour>
      <point x="67" y="-218" type="line"/>
      <point x="153" y="-218" type="line"/>
      <point x="153" y="112" type="line"/>
      <point x="145" y="112" type="line"/>
      <point x="169" y="36"/>
      <point x="241" y="-12"/>
      <point x="329" y="-12" type="curve" smooth="yes"/>
      <point x="464" y="-12"/>
      <point x="557" y="101"/>
      <point x="557" y="266" type="curve" smooth="yes"/>
      <point x="557" y="431"/>
      <point x="466" y="544"/>
      <point x="333" y="544" type="curve" smooth="yes"/>
      <point x="241" y="544"/>
      <point x="165" y="492"/>
      <point x="143" y="412" type="curve"/>
      <point x="151" y="412" type="line"/>
      <point x="151" y="532" type="line"/>
      <point x="67" y="532" type="line"/>
    </contour>
    <contour>
      <point x="311" y="60" type="curve" smooth="yes"/>
      <point x="214" y="60"/>
      <point x="153" y="140"/>
      <point x="153" y="266" type="curve" smooth="yes"/>
      <point x="153" y="392"/>
      <point x="214" y="472"/>
      <point x="311" y="472" type="curve" smooth="yes"/>
      <point x="407" y="472"/>
      <point x="468" y="391"/>
      <point x="468" y="264" type="curve" smooth="yes"/>
      <point x="468" y="139"/>
      <point x="407" y="60"/>
    </contour>
  </outline>
</glyph>
<glyph name="q" format="2">
  <advance width="591"/>
  <unicode hex="0071"/>
  <outline>
    <contour>
      <point x="438" y="-218" type="line"/>
      <point x="524" y="-218" type="line"/>
      <point x="524" y="532" type="line"/>
      <point x="440" y="532" type="line"/>
      <point x="440" y="420" type="line"/>
      <point x="448" y="420" type="line"/>
      <point x="424" y="496"/>
      <point x="353" y="544"/>
      <point x="263" y="544" type="curve" smooth="yes"/>
      <point x="126" y="544"/>
      <point x="33" y="432"/>
      <point x="33" y="268" type="curve" smooth="yes"/>
      <point x="33" y="102"/>
      <point x="125" y="-12"/>
      <point x="265" y="-12" type="curve" smooth="yes"/>
      <point x="359" y="-12"/>
      <point x="430" y="41"/>
      <point x="446" y="123" type="curve"/>
      <point x="438" y="123" type="line"/>
    </contour>
    <contour>
      <point x="280" y="62" type="curve" smooth="yes"/>
      <point x="183" y="62"/>
      <point x="122" y="142"/>
      <point x="122" y="267" type="curve" smooth="yes"/>
      <point x="122" y="392"/>
      <point x="183" y="472"/>
      <point x="280" y="472" type="curve" smooth="yes"/>
      <point x="377" y="472"/>
      <point x="438" y="392"/>
      <point x="438" y="267" type="curve" smooth="yes"/>
      <point x="438" y="142"/>
      <point x="377" y="62"/>
    </contour>
  </outline>
</glyph>
<glyph name="r" format="2">
  <advance width="359"/>
  <unicode hex="0072"/>
  <anchor x="109" y="0" name="bottom"/>
  <anchor x="211" y="532" name="top"/>
  <outline>
    <contour>
      <point x="64" y="0" type="line"/>
      <point x="150" y="0" type="line"/>
      <point x="150" y="285" type="line" smooth="yes"/>
      <point x="150" y="400"/>
      <point x="196" y="464"/>
      <point x="278" y="464" type="curve" smooth="yes"/>
      <point x="292" y="464"/>
      <point x="307" y="462"/>
      <point x="324" y="458" type="curve"/>
      <point x="324" y="538" type="line"/>
      <point x="309" y="542"/>
      <point x="295" y="544"/>
      <point x="280" y="544" type="curve" smooth="yes"/>
      <point x="197" y="544"/>
      <point x="143" y="485"/>
      <point x="140" y="378" type="curve"/>
      <point x="148" y="378" type="line"/>
      <point x="148" y="532" type="line"/>
      <point x="64" y="532" type="line"/>
    </contour>
  </outline>
</glyph>
<glyph name="s" format="2">
  <advance width="478"/>
  <unicode hex="0073"/>
  <note>
Falls to the left
</note>
  <anchor x="243" y="0" name="bottom"/>
  <anchor x="235" y="532" name="top"/>
  <outline>
    <contour>
      <point x="248" y="-12" type="curve" smooth="yes"/>
      <point x="369" y="-12"/>
      <point x="449" y="49"/>
      <point x="449" y="148" type="curve" smooth="yes"/>
      <point x="450" y="352"/>
      <point x="127" y="270"/>
      <point x="126" y="397" type="curve" smooth="yes"/>
      <point x="125" y="446"/>
      <point x="167" y="476"/>
      <point x="235" y="476" type="curve" smooth="yes"/>
      <point x="297" y="476"/>
      <point x="344" y="444"/>
      <point x="357" y="393" type="curve"/>
      <point x="436" y="422" type="line"/>
      <point x="409" y="508"/>
      <point x="321" y="544"/>
      <point x="236" y="544" type="curve" smooth="yes"/>
      <point x="136" y="544"/>
      <point x="44" y="490"/>
      <point x="44" y="392" type="curve" smooth="yes"/>
      <point x="44" y="195"/>
      <point x="364" y="272"/>
      <point x="365" y="147" type="curve" smooth="yes"/>
      <point x="366" y="90"/>
      <point x="319" y="58"/>
      <point x="247" y="58" type="curve" smooth="yes"/>
      <point x="174" y="58"/>
      <point x="122" y="96"/>
      <point x="111" y="159" type="curve"/>
      <point x="25" y="137" type="line"/>
      <point x="46" y="48"/>
      <point x="133" y="-12"/>
    </contour>
  </outline>
</glyph>
<glyph name="t" format="2">
  <advance width="345"/>
  <unicode hex="0074"/>
  <note>
Controlla curva
</note>
  <anchor x="201" y="0" name="bottom"/>
  <anchor x="157" y="340" name="center"/>
  <anchor x="189" y="544" name="topright"/>
  <outline>
    <contour>
      <point x="315" y="0" type="curve"/>
      <point x="305" y="68" type="line"/>
      <point x="228" y="42"/>
      <point x="183" y="60"/>
      <point x="183" y="116" type="curve" smooth="yes"/>
      <point x="183" y="688" type="line"/>
      <point x="99" y="636" type="line"/>
      <point x="99" y="522" type="line"/>
      <point x="97" y="522" type="line"/>
      <point x="97" y="108" type="line" smooth="yes"/>
      <point x="97" y="7"/>
      <point x="182" y="-35"/>
    </contour>
    <contour>
      <point x="15" y="466" type="line"/>
      <point x="301" y="466" type="line"/>
      <point x="301" y="532" type="line"/>
      <point x="15" y="532" type="line"/>
    </contour>
  </outline>
</glyph>
<glyph name="u" format="2">
  <advance width="577"/>
  <unicode hex="0075"/>
  <anchor x="504" y="8" name="ogonek"/>
  <anchor x="281" y="532" name="top"/>
  <outline>
    <contour>
      <point x="247" y="-12" type="curve" smooth="yes"/>
      <point x="347" y="-12"/>
      <point x="415" y="46"/>
      <point x="423" y="136" type="curve"/>
      <point x="415" y="136" type="line"/>
      <point x="415" y="64"/>
      <point x="419" y="33"/>
      <point x="430" y="0" type="curve"/>
      <point x="513" y="0" type="line"/>
      <point x="504" y="37"/>
      <point x="499" y="76"/>
      <point x="499" y="125" type="curve" smooth="yes"/>
      <point x="499" y="532" type="line"/>
      <point x="413" y="532" type="line"/>
      <point x="413" y="272" type="line" smooth="yes"/>
      <point x="413" y="140"/>
      <point x="360" y="62"/>
      <point x="269" y="62" type="curve" smooth="yes"/>
      <point x="192" y="62"/>
      <point x="147" y="118"/>
      <point x="147" y="212" type="curve" smooth="yes"/>
      <point x="147" y="532" type="line"/>
      <point x="61" y="532" type="line"/>
      <point x="61" y="186" type="line" smooth="yes"/>
      <point x="61" y="65"/>
      <point x="133" y="-12"/>
    </contour>
  </outline>
</glyph>
<glyph name="v" format="2">
  <advance width="478"/>
  <unicode hex="0076"/>
  <outline>
    <contour>
      <point x="195" y="0" type="line"/>
      <point x="291" y="0" type="line"/>
      <point x="477" y="532" type="line"/>
      <point x="393" y="532" type="line"/>
      <point x="243" y="80" type="line"/>
      <point x="251" y="80" type="line"/>
      <point x="93" y="532" type="line"/>
      <point x="1" y="532" type="line"/>
    </contour>
  </outline>
</glyph>
<glyph name="w" format="2">
  <advance width="712"/>
  <unicode hex="0077"/>
  <anchor x="356" y="0" name="bottom"/>
  <anchor x="356" y="532" name="top"/>
  <outline>
    <contour>
      <point x="157" y="0" type="line"/>
      <point x="255" y="0" type="line"/>
      <point x="361" y="432" type="line"/>
      <point x="353" y="432" type="line"/>
      <point x="462" y="0" type="line"/>
      <point x="558" y="0" type="line"/>
      <point x="705" y="532" type="line"/>
      <point x="623" y="532" type="line"/>
      <point x="510" y="82" type="line"/>
      <point x="518" y="82" type="line"/>
      <point x="403" y="532" type="line"/>
      <point x="316" y="532" type="line"/>
      <point x="208" y="80" type="line"/>
      <point x="217" y="80" type="line"/>
      <point x="97" y="532" type="line"/>
      <point x="7" y="532" type="line"/>
    </contour>
  </outline>
</glyph>
<glyph name="x" format="2">
  <advance width="466"/>
  <unicode hex="0078"/>
  <outline>
    <contour>
      <point x="1" y="0" type="line"/>
      <point x="95" y="0" type="line"/>
      <point x="231" y="206" type="line"/>
      <point x="223" y="206" type="line"/>
      <point x="361" y="0" type="line"/>
      <point x="463" y="0" type="line"/>
      <point x="273" y="280" type="line"/>
      <point x="273" y="264" type="line"/>
      <point x="457" y="532" type="line"/>
      <point x="363" y="532" type="line"/>
      <point x="231" y="336" type="line"/>
      <point x="239" y="336" type="line"/>
      <point x="109" y="532" type="line"/>
      <point x="7" y="532" type="line"/>
      <point x="189" y="260" type="line"/>
      <point x="189" y="276" type="line"/>
    </contour>
  </outline>
</glyph>
<glyph name="y" format="2">
  <advance width="489"/>
  <unicode hex="0079"/>
  <anchor x="246" y="532" name="top"/>
  <outline>
    <contour>
      <point x="0" y="-208" type="line"/>
      <point x="37" y="-221"/>
      <point x="70" y="-228"/>
      <point x="100" y="-228" type="curve" smooth="yes"/>
      <point x="164" y="-228"/>
      <point x="211" y="-197"/>
      <point x="234" y="-137" type="curve" smooth="yes"/>
      <point x="488" y="532" type="line"/>
      <point x="404" y="532" type="line"/>
      <point x="244" y="96" type="line"/>
      <point x="252" y="96" type="line"/>
      <point x="96" y="532" type="line"/>
      <point x="2" y="532" type="line"/>
      <point x="206" y="-12" type="line"/>
      <point x="206" y="8" type="line"/>
      <point x="166" y="-100" type="line" smooth="yes"/>
      <point x="153" y="-136"/>
      <point x="124" y="-155"/>
      <point x="86" y="-155" type="curve" smooth="yes"/>
      <point x="64" y="-155"/>
      <point x="39" y="-148"/>
      <point x="12" y="-136" type="curve"/>
    </contour>
  </outline>
</glyph>
<glyph name="z" format="2">
  <advance width="442"/>
  <unicode hex="007A"/>
  <anchor x="221" y="0" name="bottom"/>
  <anchor x="221" y="266" name="center"/>
  <anchor x="222" y="532" name="top"/>
  <outline>
    <contour>
      <point x="16" y="0" type="line"/>
      <point x="424" y="0" type="line"/>
      <point x="424" y="68" type="line"/>
      <point x="117" y="68" type="line"/>
      <point x="121" y="60" type="line"/>
      <point x="421" y="470" type="line"/>
      <point x="421" y="532" type="line"/>
      <point x="23" y="532" type="line"/>
      <point x="23" y="464" type="line"/>
      <point x="324" y="464" type="line"/>
      <point x="320" y="472" type="line"/>
      <point x="16" y="60" type="line"/>
    </contour>
  </outline>
</glyph>
<glyph name="braceleft" format="2">
  <advance width="307"/>
  <unicode hex="007B"/>
  <outline>
    <contour>
      <point x="297" y="-220" type="curve"/>
      <point x="287" y="-164" type="line"/>
      <point x="215" y="-176"/>
      <point x="181" y="-152"/>
      <point x="183" y="-96" type="curve" smooth="yes"/>
      <point x="193" y="144" type="line" smooth="yes"/>
      <point x="195" y="199"/>
      <point x="164" y="233"/>
      <point x="110" y="236" type="curve"/>
      <point x="110" y="228" type="line"/>
      <point x="164" y="232"/>
      <point x="195" y="266"/>
      <point x="193" y="320" type="curve" smooth="yes"/>
      <point x="183" y="562" type="line" smooth="yes"/>
      <point x="181" y="618"/>
      <point x="215" y="640"/>
      <point x="287" y="628" type="curve"/>
      <point x="294" y="684" type="line"/>
      <point x="162" y="716"/>
      <point x="88" y="671"/>
      <point x="99" y="562" type="curve" smooth="yes"/>
      <point x="121" y="336" type="line" smooth="yes"/>
      <point x="125" y="291"/>
      <point x="106" y="267"/>
      <point x="67" y="267" type="curve" smooth="yes"/>
      <point x="25" y="267" type="line"/>
      <point x="25" y="198" type="line"/>
      <point x="67" y="198" type="line" smooth="yes"/>
      <point x="106" y="198"/>
      <point x="125" y="174"/>
      <point x="121" y="130" type="curve" smooth="yes"/>
      <point x="99" y="-96" type="line" smooth="yes"/>
      <point x="88" y="-206"/>
      <point x="163" y="-252"/>
    </contour>
  </outline>
</glyph>
<glyph name="bar" format="2">
  <advance width="244"/>
  <unicode hex="007C"/>
  <outline>
    <contour>
      <point x="83" y="-230" type="line"/>
      <point x="161" y="-230" type="line"/>
      <point x="161" y="694" type="line"/>
      <point x="83" y="694" type="line"/>
    </contour>
  </outline>
</glyph>
<glyph name="asciitilde" format="2">
  <advance width="560"/>
  <unicode hex="007E"/>
  <outline>
    <contour>
      <point x="376" y="218" type="curve" smooth="yes"/>
      <point x="447" y="218"/>
      <point x="500" y="266"/>
      <point x="512" y="341" type="curve"/>
      <point x="444" y="361" type="line"/>
      <point x="438" y="320"/>
      <point x="410" y="294"/>
      <point x="372" y="294" type="curve" smooth="yes"/>
      <point x="312" y="294"/>
      <point x="268" y="360"/>
      <point x="184" y="360" type="curve" smooth="yes"/>
      <point x="113" y="360"/>
      <point x="60" y="312"/>
      <point x="48" y="236" type="curve"/>
      <point x="116" y="216" type="line"/>
      <point x="122" y="258"/>
      <point x="150" y="284"/>
      <point x="188" y="284" type="curve" smooth="yes"/>
      <point x="248" y="284"/>
      <point x="292" y="218"/>
    </contour>
  </outline>
</glyph>
<glyph name="cent" format="2">
  <advance width="580"/>
  <unicode hex="00A2"/>
  <outline>
    <component base="c" xOffset="22" yOffset="24" identifier="F722376E"/>
    <contour>
      <point x="257" y="-108" type="line"/>
      <point x="329" y="-108" type="line"/>
      <point x="329" y="668" type="line"/>
      <point x="257" y="668" type="line"/>
    </contour>
  </outline>
</glyph>
<glyph name="currency" format="2">
  <advance width="620"/>
  <unicode hex="00A4"/>
  <outline>
    <contour>
      <point x="310" y="114" type="curve" smooth="yes"/>
      <point x="419" y="114"/>
      <point x="494" y="185"/>
      <point x="494" y="290" type="curve" smooth="yes"/>
      <point x="494" y="395"/>
      <point x="419" y="466"/>
      <point x="310" y="466" type="curve" smooth="yes"/>
      <point x="201" y="466"/>
      <point x="126" y="395"/>
      <point x="126" y="290" type="curve" smooth="yes"/>
      <point x="126" y="185"/>
      <point x="201" y="114"/>
    </contour>
    <contour>
      <point x="128" y="80" type="line"/>
      <point x="214" y="166" type="line"/>
      <point x="170" y="208" type="line"/>
      <point x="84" y="124" type="line"/>
    </contour>
    <contour>
      <point x="170" y="372" type="line"/>
      <point x="214" y="412" type="line"/>
      <point x="128" y="498" type="line"/>
      <point x="84" y="454" type="line"/>
    </contour>
    <contour>
      <point x="310" y="186" type="curve" smooth="yes"/>
      <point x="246" y="186"/>
      <point x="206" y="227"/>
      <point x="206" y="291" type="curve" smooth="yes"/>
      <point x="206" y="355"/>
      <point x="246" y="396"/>
      <point x="310" y="396" type="curve" smooth="yes"/>
      <point x="374" y="396"/>
      <point x="414" y="355"/>
      <point x="414" y="291" type="curve" smooth="yes"/>
      <point x="414" y="227"/>
      <point x="374" y="186"/>
    </contour>
    <contour>
      <point x="492" y="80" type="line"/>
      <point x="536" y="124" type="line"/>
      <point x="450" y="208" type="line"/>
      <point x="406" y="166" type="line"/>
    </contour>
    <contour>
      <point x="450" y="372" type="line"/>
      <point x="536" y="454" type="line"/>
      <point x="492" y="498" type="line"/>
      <point x="406" y="412" type="line"/>
    </contour>
  </outline>
</glyph>
<glyph name="yen" format="2">
  <advance width="620"/>
  <unicode hex="00A5"/>
  <outline>
    <component base="Y" xOffset="26"/>
    <contour>
      <point x="106" y="274" type="line"/>
      <point x="537" y="274" type="line"/>
      <point x="537" y="338" type="line"/>
      <point x="106" y="338" type="line"/>
    </contour>
    <contour>
      <point x="106" y="164" type="line"/>
      <point x="537" y="164" type="line"/>
      <point x="537" y="228" type="line"/>
      <point x="106" y="228" type="line"/>
    </contour>
  </outline>
</glyph>
<glyph name="brokenbar" format="2">
  <advance width="244"/>
  <unicode hex="00A6"/>
  <outline>
    <contour>
      <point x="83" y="-230" type="line"/>
      <point x="161" y="-230" type="line"/>
      <point x="161" y="142" type="line"/>
      <point x="83" y="142" type="line"/>
    </contour>
    <contour>
      <point x="83" y="342" type="line"/>
      <point x="161" y="342" type="line"/>
      <point x="161" y="694" type="line"/>
      <point x="83" y="694" type="line"/>
    </contour>
  </outline>
</glyph>
<glyph name="section" format="2">
  <advance width="634"/>
  <unicode hex="00A7"/>
  <note>
Storto? Controlla attacchi interrotti
</note>
  <outline>
    <contour>
      <point x="313" y="-233" type="curve" smooth="yes"/>
      <point x="455" y="-233"/>
      <point x="551" y="-159"/>
      <point x="549" y="-48" type="curve" smooth="yes"/>
      <point x="546" y="196"/>
      <point x="165" y="96"/>
      <point x="164" y="267" type="curve" smooth="yes"/>
      <point x="163" y="314"/>
      <point x="196" y="349"/>
      <point x="251" y="361" type="curve"/>
      <point x="251" y="421" type="line"/>
      <point x="144" y="406"/>
      <point x="78" y="341"/>
      <point x="79" y="251" type="curve" smooth="yes"/>
      <point x="82" y="10"/>
      <point x="461" y="128"/>
      <point x="464" y="-54" type="curve" smooth="yes"/>
      <point x="465" y="-121"/>
      <point x="408" y="-162"/>
      <point x="319" y="-162" type="curve" smooth="yes"/>
      <point x="235" y="-162"/>
      <point x="172" y="-117"/>
      <point x="154" y="-40" type="curve"/>
      <point x="67" y="-69" type="line"/>
      <point x="90" y="-169"/>
      <point x="191" y="-233"/>
    </contour>
    <contour>
      <point x="366" y="51" type="line"/>
      <point x="483" y="65"/>
      <point x="559" y="124"/>
      <point x="557" y="223" type="curve" smooth="yes"/>
      <point x="554" y="467"/>
      <point x="173" y="357"/>
      <point x="172" y="528" type="curve" smooth="yes"/>
      <point x="171" y="587"/>
      <point x="223" y="627"/>
      <point x="304" y="627" type="curve" smooth="yes"/>
      <point x="379" y="627"/>
      <point x="435" y="586"/>
      <point x="451" y="521" type="curve"/>
      <point x="539" y="552" type="line"/>
      <point x="514" y="643"/>
      <point x="424" y="696"/>
      <point x="311" y="696" type="curve" smooth="yes"/>
      <point x="174" y="696"/>
      <point x="86" y="626"/>
      <point x="87" y="522" type="curve" smooth="yes"/>
      <point x="90" y="281"/>
      <point x="469" y="399"/>
      <point x="472" y="217" type="curve" smooth="yes"/>
      <point x="473" y="160"/>
      <point x="432" y="132"/>
      <point x="366" y="122" type="curve"/>
    </contour>
  </outline>
</glyph>
<glyph name="copyright" format="2">
  <advance width="804"/>
  <unicode hex="00A9"/>
  <outline>
    <contour>
      <point x="402" y="-18" type="curve" smooth="yes"/>
      <point x="608" y="-18"/>
      <point x="758" y="135"/>
      <point x="758" y="340" type="curve" smooth="yes"/>
      <point x="758" y="545"/>
      <point x="608" y="698"/>
      <point x="402" y="698" type="curve" smooth="yes"/>
      <point x="196" y="698"/>
      <point x="46" y="545"/>
      <point x="46" y="340" type="curve" smooth="yes"/>
      <point x="46" y="135"/>
      <point x="196" y="-18"/>
    </contour>
    <contour>
      <point x="402" y="46" type="curve" smooth="yes"/>
      <point x="237" y="46"/>
      <point x="124" y="163"/>
      <point x="124" y="340" type="curve" smooth="yes"/>
      <point x="124" y="517"/>
      <point x="237" y="634"/>
      <point x="402" y="634" type="curve" smooth="yes"/>
      <point x="567" y="634"/>
      <point x="680" y="517"/>
      <point x="680" y="340" type="curve" smooth="yes"/>
      <point x="680" y="163"/>
      <point x="567" y="46"/>
    </contour>
    <contour>
      <point x="406" y="152" type="curve" smooth="yes"/>
      <point x="490" y="152"/>
      <point x="552" y="204"/>
      <point x="564" y="276" type="curve"/>
      <point x="485" y="296" type="line"/>
      <point x="478" y="243"/>
      <point x="449" y="212"/>
      <point x="404" y="212" type="curve" smooth="yes"/>
      <point x="349" y="212"/>
      <point x="314" y="260"/>
      <point x="314" y="342" type="curve" smooth="yes"/>
      <point x="314" y="422"/>
      <point x="348" y="469"/>
      <point x="402" y="469" type="curve" smooth="yes"/>
      <point x="445" y="469"/>
      <point x="475" y="439"/>
      <point x="481" y="388" type="curve"/>
      <point x="560" y="408" type="line"/>
      <point x="550" y="478"/>
      <point x="484" y="528"/>
      <point x="404" y="528" type="curve" smooth="yes"/>
      <point x="300" y="528"/>
      <point x="230" y="450"/>
      <point x="230" y="340" type="curve" smooth="yes"/>
      <point x="230" y="230"/>
      <point x="300" y="152"/>
    </contour>
  </outline>
</glyph>
<glyph name="guillemetleft" format="2">
  <advance width="565"/>
  <unicode hex="00AB"/>
  <outline>
    <contour>
      <point x="272" y="50" type="line"/>
      <point x="272" y="140" type="line"/>
      <point x="77" y="258" type="line"/>
      <point x="77" y="250" type="line"/>
      <point x="270" y="368" type="line"/>
      <point x="270" y="456" type="line"/>
      <point x="26" y="292" type="line"/>
      <point x="26" y="214" type="line"/>
    </contour>
    <contour>
      <point x="518" y="50" type="line"/>
      <point x="518" y="140" type="line"/>
      <point x="323" y="258" type="line"/>
      <point x="323" y="250" type="line"/>
      <point x="516" y="368" type="line"/>
      <point x="516" y="456" type="line"/>
      <point x="272" y="292" type="line"/>
      <point x="272" y="214" type="line"/>
    </contour>
  </outline>
</glyph>
<glyph name="logicalnot" format="2">
  <advance width="560"/>
  <unicode hex="00AC"/>
  <outline>
    <contour>
      <point x="424" y="144" type="line"/>
      <point x="500" y="144" type="line"/>
      <point x="500" y="320" type="line"/>
      <point x="56" y="320" type="line"/>
      <point x="56" y="250" type="line"/>
      <point x="432" y="250" type="line"/>
      <point x="424" y="258" type="line"/>
    </contour>
  </outline>
</glyph>
<glyph name="registered" format="2">
  <advance width="804"/>
  <unicode hex="00AE"/>
  <outline>
    <contour>
      <point x="270" y="170" type="line"/>
      <point x="344" y="170" type="line"/>
      <point x="344" y="502" type="line"/>
      <point x="320" y="474" type="line"/>
      <point x="424" y="474" type="line" smooth="yes"/>
      <point x="450" y="474"/>
      <point x="466" y="458"/>
      <point x="466" y="426" type="curve" smooth="yes"/>
      <point x="466" y="394"/>
      <point x="450" y="378"/>
      <point x="422" y="378" type="curve" smooth="yes"/>
      <point x="324" y="378" type="line"/>
      <point x="324" y="322" type="line"/>
      <point x="406" y="322" type="line" smooth="yes"/>
      <point x="422" y="322"/>
      <point x="434" y="315"/>
      <point x="441" y="297" type="curve" smooth="yes"/>
      <point x="492" y="170" type="line"/>
      <point x="580" y="170" type="line"/>
      <point x="505" y="322" type="line" smooth="yes"/>
      <point x="495" y="342"/>
      <point x="468" y="357"/>
      <point x="442" y="353" type="curve"/>
      <point x="442" y="338" type="line"/>
      <point x="505" y="339"/>
      <point x="544" y="374"/>
      <point x="544" y="428" type="curve" smooth="yes"/>
      <point x="544" y="487"/>
      <point x="496" y="530"/>
      <point x="424" y="530" type="curve" smooth="yes"/>
      <point x="270" y="530" type="line"/>
    </contour>
    <contour>
      <point x="402" y="-18" type="curve" smooth="yes"/>
      <point x="608" y="-18"/>
      <point x="758" y="135"/>
      <point x="758" y="340" type="curve" smooth="yes"/>
      <point x="758" y="545"/>
      <point x="608" y="698"/>
      <point x="402" y="698" type="curve" smooth="yes"/>
      <point x="196" y="698"/>
      <point x="46" y="545"/>
      <point x="46" y="340" type="curve" smooth="yes"/>
      <point x="46" y="135"/>
      <point x="196" y="-18"/>
    </contour>
    <contour>
      <point x="402" y="46" type="curve" smooth="yes"/>
      <point x="237" y="46"/>
      <point x="124" y="163"/>
      <point x="124" y="340" type="curve" smooth="yes"/>
      <point x="124" y="517"/>
      <point x="237" y="634"/>
      <point x="402" y="634" type="curve" smooth="yes"/>
      <point x="567" y="634"/>
      <point x="680" y="517"/>
      <point x="680" y="340" type="curve" smooth="yes"/>
      <point x="680" y="163"/>
      <point x="567" y="46"/>
    </contour>
  </outline>
</glyph>
<glyph name="degree" format="2">
  <advance width="348"/>
  <unicode hex="00B0"/>
  <outline>
    <contour>
      <point x="173" y="420" type="curve" smooth="yes"/>
      <point x="253" y="420"/>
      <point x="312" y="477"/>
      <point x="312" y="554" type="curve" smooth="yes"/>
      <point x="312" y="631"/>
      <point x="253" y="688"/>
      <point x="173" y="688" type="curve" smooth="yes"/>
      <point x="94" y="688"/>
      <point x="36" y="631"/>
      <point x="36" y="554" type="curve" smooth="yes"/>
      <point x="36" y="477"/>
      <point x="94" y="420"/>
    </contour>
    <contour>
      <point x="173" y="477" type="curve" smooth="yes"/>
      <point x="127" y="477"/>
      <point x="96" y="508"/>
      <point x="96" y="554" type="curve" smooth="yes"/>
      <point x="96" y="600"/>
      <point x="127" y="632"/>
      <point x="173" y="632" type="curve" smooth="yes"/>
      <point x="220" y="632"/>
      <point x="252" y="600"/>
      <point x="252" y="554" type="curve" smooth="yes"/>
      <point x="252" y="508"/>
      <point x="220" y="477"/>
    </contour>
  </outline>
</glyph>
<glyph name="plusminus" format="2">
  <advance width="560"/>
  <unicode hex="00B1"/>
  <outline>
    <contour>
      <point x="64" y="0" type="line"/>
      <point x="496" y="0" type="line"/>
      <point x="496" y="72" type="line"/>
      <point x="64" y="72" type="line"/>
    </contour>
    <contour>
      <point x="243" y="120" type="line"/>
      <point x="317" y="120" type="line"/>
      <point x="317" y="512" type="line"/>
      <point x="243" y="512" type="line"/>
    </contour>
    <contour>
      <point x="64" y="282" type="line"/>
      <point x="496" y="282" type="line"/>
      <point x="496" y="352" type="line"/>
      <point x="64" y="352" type="line"/>
    </contour>
  </outline>
</glyph>
<glyph name="micro" format="2">
  <advance width="617"/>
  <unicode hex="00B5"/>
  <outline>
    <contour>
      <point x="289" y="-12" type="curve" smooth="yes"/>
      <point x="380" y="-12"/>
      <point x="457" y="46"/>
      <point x="463" y="132" type="curve"/>
      <point x="455" y="132" type="line"/>
      <point x="455" y="60"/>
      <point x="459" y="33"/>
      <point x="470" y="0" type="curve"/>
      <point x="553" y="0" type="line"/>
      <point x="544" y="37"/>
      <point x="539" y="76"/>
      <point x="539" y="125" type="curve" smooth="yes"/>
      <point x="539" y="532" type="line"/>
      <point x="453" y="532" type="line"/>
      <point x="453" y="272" type="line" smooth="yes"/>
      <point x="453" y="144"/>
      <point x="393" y="62"/>
      <point x="299" y="62" type="curve" smooth="yes"/>
      <point x="210" y="62"/>
      <point x="153" y="133"/>
      <point x="153" y="244" type="curve" smooth="yes"/>
      <point x="153" y="532" type="line"/>
      <point x="67" y="532" type="line"/>
      <point x="67" y="-218" type="line"/>
      <point x="153" y="-218" type="line"/>
      <point x="151" y="84" type="line"/>
      <point x="145" y="84" type="line"/>
      <point x="163" y="27"/>
      <point x="215" y="-12"/>
    </contour>
  </outline>
</glyph>
<glyph name="paragraph" format="2">
  <advance width="778"/>
  <unicode hex="00B6"/>
  <outline>
    <contour>
      <point x="341" y="0" type="curve" smooth="yes"/>
      <point x="354" y="0" type="line"/>
      <point x="354" y="680" type="line"/>
      <point x="341" y="680" type="line" smooth="yes"/>
      <point x="195" y="680"/>
      <point x="59" y="544"/>
      <point x="59" y="340" type="curve" smooth="yes"/>
      <point x="59" y="136"/>
      <point x="190" y="0"/>
    </contour>
    <contour>
      <point x="518" y="22" type="line"/>
      <point x="601" y="22" type="line"/>
      <point x="601" y="680" type="line"/>
      <point x="518" y="680" type="line"/>
    </contour>
    <contour>
      <point x="350" y="680" type="line"/>
      <point x="350" y="613" type="line"/>
      <point x="677" y="613" type="line"/>
      <point x="677" y="680" type="line"/>
    </contour>
    <contour>
      <point x="350" y="67" type="line"/>
      <point x="350" y="0" type="line"/>
      <point x="677" y="0" type="line"/>
      <point x="677" y="67" type="line"/>
    </contour>
  </outline>
</glyph>
<glyph name="ordmasculine" format="2">
  <advance width="373"/>
  <unicode hex="00BA"/>
  <outline>
    <contour>
      <point x="186" y="322" type="curve" smooth="yes"/>
      <point x="286" y="322"/>
      <point x="355" y="397"/>
      <point x="355" y="505" type="curve" smooth="yes"/>
      <point x="355" y="614"/>
      <point x="286" y="688"/>
      <point x="186" y="688" type="curve" smooth="yes"/>
      <point x="87" y="688"/>
      <point x="18" y="614"/>
      <point x="18" y="505" type="curve" smooth="yes"/>
      <point x="18" y="397"/>
      <point x="86" y="322"/>
    </contour>
    <contour>
      <point x="186" y="376" type="curve" smooth="yes"/>
      <point x="130" y="376"/>
      <point x="94" y="427"/>
      <point x="94" y="506" type="curve" smooth="yes"/>
      <point x="94" y="585"/>
      <point x="130" y="635"/>
      <point x="186" y="635" type="curve" smooth="yes"/>
      <point x="243" y="635"/>
      <point x="278" y="585"/>
      <point x="278" y="506" type="curve" smooth="yes"/>
      <point x="278" y="427"/>
      <point x="243" y="376"/>
    </contour>
  </outline>
</glyph>
<glyph name="AE" format="2">
  <advance width="925"/>
  <unicode hex="00C6"/>
  <outline>
    <contour>
      <point x="6" y="0" type="line"/>
      <point x="103" y="0" type="line"/>
      <point x="411" y="606" type="line"/>
      <point x="446" y="606" type="line"/>
      <point x="446" y="0" type="line"/>
      <point x="890" y="0" type="line"/>
      <point x="890" y="74" type="line"/>
      <point x="532" y="74" type="line"/>
      <point x="540" y="66" type="line"/>
      <point x="540" y="614" type="line"/>
      <point x="532" y="606" type="line"/>
      <point x="884" y="606" type="line"/>
      <point x="884" y="680" type="line"/>
      <point x="368" y="680" type="line"/>
    </contour>
    <contour>
      <point x="188" y="188" type="line"/>
      <point x="454" y="188" type="line"/>
      <point x="454" y="260" type="line"/>
      <point x="188" y="260" type="line"/>
    </contour>
    <contour>
      <point x="532" y="314" type="line"/>
      <point x="852" y="314" type="line"/>
      <point x="852" y="387" type="line"/>
      <point x="532" y="387" type="line"/>
    </contour>
  </outline>
</glyph>
<glyph name="Eth" format="2">
  <advance width="700"/>
  <unicode hex="00D0"/>
  <outline>
    <contour>
      <point x="20" y="327" type="line"/>
      <point x="336" y="327" type="line"/>
      <point x="336" y="393" type="line"/>
      <point x="20" y="393" type="line"/>
    </contour>
    <component base="D" xOffset="6"/>
  </outline>
</glyph>
<glyph name="multiply" format="2">
  <advance width="560"/>
  <unicode hex="00D7"/>
  <outline>
    <contour>
      <point x="120" y="88" type="line"/>
      <point x="487" y="434" type="line"/>
      <point x="440" y="484" type="line"/>
      <point x="72" y="139" type="line"/>
    </contour>
    <contour>
      <point x="440" y="88" type="line"/>
      <point x="488" y="139" type="line"/>
      <point x="120" y="484" type="line"/>
      <point x="73" y="434" type="line"/>
    </contour>
  </outline>
</glyph>
<glyph name="Thorn" format="2">
  <advance width="603"/>
  <unicode hex="00DE"/>
  <outline>
    <contour>
      <point x="169" y="144" type="line"/>
      <point x="343" y="144" type="line" smooth="yes"/>
      <point x="486" y="144"/>
      <point x="577" y="221"/>
      <point x="577" y="342" type="curve" smooth="yes"/>
      <point x="577" y="461"/>
      <point x="488" y="536"/>
      <point x="347" y="536" type="curve" smooth="yes"/>
      <point x="169" y="536" type="line"/>
      <point x="169" y="462" type="line"/>
      <point x="353" y="462" type="line" smooth="yes"/>
      <point x="431" y="462"/>
      <point x="477" y="417"/>
      <point x="477" y="342" type="curve" smooth="yes"/>
      <point x="477" y="264"/>
      <point x="430" y="218"/>
      <point x="351" y="218" type="curve" smooth="yes"/>
      <point x="169" y="218" type="line"/>
    </contour>
    <contour>
      <point x="83" y="0" type="line"/>
      <point x="177" y="0" type="line"/>
      <point x="177" y="681" type="line"/>
      <point x="83" y="681" type="line"/>
    </contour>
  </outline>
</glyph>
<glyph name="germandbls" format="2">
  <advance width="568"/>
  <unicode hex="00DF"/>
  <outline>
    <contour>
      <point x="372" y="-12" type="curve" smooth="yes"/>
      <point x="484" y="-12"/>
      <point x="556" y="43"/>
      <point x="556" y="137" type="curve" smooth="yes"/>
      <point x="556" y="329"/>
      <point x="338" y="250"/>
      <point x="338" y="362" type="curve" smooth="yes"/>
      <point x="338" y="446"/>
      <point x="462" y="429"/>
      <point x="462" y="562" type="curve" smooth="yes"/>
      <point x="462" y="658"/>
      <point x="390" y="714"/>
      <point x="276" y="714" type="curve" smooth="yes"/>
      <point x="150" y="714"/>
      <point x="70" y="643"/>
      <point x="70" y="530" type="curve" smooth="yes"/>
      <point x="70" y="0" type="line"/>
      <point x="156" y="0" type="line"/>
      <point x="156" y="526" type="line" smooth="yes"/>
      <point x="156" y="601"/>
      <point x="201" y="646"/>
      <point x="276" y="646" type="curve" smooth="yes"/>
      <point x="339" y="646"/>
      <point x="376" y="615"/>
      <point x="376" y="562" type="curve" smooth="yes"/>
      <point x="376" y="467"/>
      <point x="260" y="478"/>
      <point x="260" y="360" type="curve" smooth="yes"/>
      <point x="260" y="182"/>
      <point x="472" y="256"/>
      <point x="472" y="136" type="curve" smooth="yes"/>
      <point x="472" y="88"/>
      <point x="435" y="58"/>
      <point x="376" y="58" type="curve" smooth="yes"/>
      <point x="328" y="58"/>
      <point x="276" y="77"/>
      <point x="240" y="108" type="curve"/>
      <point x="212" y="28" type="line"/>
      <point x="256" y="4"/>
      <point x="316" y="-12"/>
    </contour>
  </outline>
</glyph>
<glyph name="ae" format="2">
  <advance width="900"/>
  <unicode hex="00E6"/>
  <outline>
    <contour>
      <point x="207" y="-12" type="curve" smooth="yes"/>
      <point x="308" y="-12"/>
      <point x="415" y="47"/>
      <point x="436" y="148" type="curve"/>
      <point x="473" y="358" type="line"/>
      <point x="473" y="475"/>
      <point x="391" y="544"/>
      <point x="270" y="544" type="curve" smooth="yes"/>
      <point x="163" y="544"/>
      <point x="73" y="484"/>
      <point x="50" y="408" type="curve"/>
      <point x="130" y="372" type="line"/>
      <point x="146" y="430"/>
      <point x="199" y="474"/>
      <point x="270" y="474" type="curve" smooth="yes"/>
      <point x="342" y="474"/>
      <point x="387" y="429"/>
      <point x="387" y="353" type="curve" smooth="yes"/>
      <point x="387" y="274" type="line" smooth="yes"/>
      <point x="387" y="140"/>
      <point x="320" y="60"/>
      <point x="223" y="60" type="curve" smooth="yes"/>
      <point x="167" y="60"/>
      <point x="131" y="93"/>
      <point x="131" y="146" type="curve" smooth="yes"/>
      <point x="131" y="192"/>
      <point x="159" y="239"/>
      <point x="267" y="254" type="curve" smooth="yes"/>
      <point x="395" y="272" type="line"/>
      <point x="395" y="332" type="line"/>
      <point x="223" y="308" type="line" smooth="yes"/>
      <point x="102" y="291"/>
      <point x="43" y="224"/>
      <point x="43" y="140" type="curve" smooth="yes"/>
      <point x="43" y="50"/>
      <point x="110" y="-12"/>
    </contour>
    <contour>
      <point x="639" y="-12" type="curve" smooth="yes"/>
      <point x="751" y="-12"/>
      <point x="839" y="50"/>
      <point x="863" y="154" type="curve"/>
      <point x="781" y="176" type="line"/>
      <point x="766" y="106"/>
      <point x="711" y="60"/>
      <point x="638" y="60" type="curve" smooth="yes"/>
      <point x="539" y="60"/>
      <point x="476" y="142"/>
      <point x="476" y="270" type="curve" smooth="yes"/>
      <point x="476" y="395"/>
      <point x="537" y="474"/>
      <point x="633" y="474" type="curve" smooth="yes"/>
      <point x="718" y="474"/>
      <point x="775" y="409"/>
      <point x="777" y="308" type="curve"/>
      <point x="785" y="316" type="line"/>
      <point x="468" y="316" type="line"/>
      <point x="468" y="248" type="line"/>
      <point x="863" y="248" type="line"/>
      <point x="879" y="428"/>
      <point x="780" y="544"/>
      <point x="631" y="544" type="curve" smooth="yes"/>
      <point x="486" y="544"/>
      <point x="387" y="432"/>
      <point x="387" y="268" type="curve" smooth="yes"/>
      <point x="387" y="102"/>
      <point x="489" y="-12"/>
    </contour>
  </outline>
</glyph>
<glyph name="eth" format="2">
  <advance width="564"/>
  <unicode hex="00F0"/>
  <outline>
    <contour>
      <point x="282" y="-12" type="curve" smooth="yes"/>
      <point x="426" y="-12"/>
      <point x="531" y="92"/>
      <point x="531" y="272" type="curve" smooth="yes"/>
      <point x="531" y="500"/>
      <point x="387" y="676"/>
      <point x="155" y="744" type="curve"/>
      <point x="127" y="692" type="line"/>
      <point x="267" y="652"/>
      <point x="365" y="559"/>
      <point x="409" y="439" type="curve"/>
      <point x="416" y="439" type="line"/>
      <point x="392" y="485"/>
      <point x="336" y="510"/>
      <point x="267" y="510" type="curve" smooth="yes"/>
      <point x="128" y="510"/>
      <point x="33" y="405"/>
      <point x="33" y="252" type="curve" smooth="yes"/>
      <point x="33" y="95"/>
      <point x="134" y="-12"/>
    </contour>
    <contour>
      <point x="283" y="60" type="curve" smooth="yes"/>
      <point x="185" y="60"/>
      <point x="122" y="134"/>
      <point x="122" y="250" type="curve" smooth="yes"/>
      <point x="122" y="366"/>
      <point x="184" y="440"/>
      <point x="281" y="440" type="curve" smooth="yes"/>
      <point x="379" y="440"/>
      <point x="441" y="365"/>
      <point x="441" y="248" type="curve" smooth="yes"/>
      <point x="441" y="133"/>
      <point x="380" y="60"/>
    </contour>
    <contour>
      <point x="179" y="560" type="line"/>
      <point x="459" y="668" type="line"/>
      <point x="435" y="728" type="line"/>
      <point x="155" y="618" type="line"/>
    </contour>
  </outline>
</glyph>
<glyph name="divide" format="2">
  <advance width="560"/>
  <unicode hex="00F7"/>
  <outline>
    <contour>
      <point x="234" y="398" type="line"/>
      <point x="326" y="398" type="line"/>
      <point x="326" y="492" type="line"/>
      <point x="234" y="492" type="line"/>
    </contour>
    <contour>
      <point x="234" y="80" type="line"/>
      <point x="326" y="80" type="line"/>
      <point x="326" y="174" type="line"/>
      <point x="234" y="174" type="line"/>
    </contour>
    <component base="minus"/>
  </outline>
</glyph>
<glyph name="thorn" format="2">
  <advance width="592"/>
  <unicode hex="00FE"/>
  <outline>
    <contour>
      <point x="69" y="-218" type="line"/>
      <point x="155" y="-218" type="line"/>
      <point x="155" y="112" type="line"/>
      <point x="147" y="112" type="line"/>
      <point x="171" y="36"/>
      <point x="243" y="-12"/>
      <point x="331" y="-12" type="curve" smooth="yes"/>
      <point x="466" y="-12"/>
      <point x="559" y="101"/>
      <point x="559" y="266" type="curve" smooth="yes"/>
      <point x="559" y="431"/>
      <point x="468" y="544"/>
      <point x="335" y="544" type="curve" smooth="yes"/>
      <point x="243" y="544"/>
      <point x="169" y="496"/>
      <point x="147" y="416" type="curve"/>
      <point x="155" y="416" type="line"/>
      <point x="155" y="712" type="line"/>
      <point x="69" y="712" type="line"/>
    </contour>
    <contour>
      <point x="313" y="60" type="curve" smooth="yes"/>
      <point x="216" y="60"/>
      <point x="155" y="140"/>
      <point x="155" y="266" type="curve" smooth="yes"/>
      <point x="155" y="392"/>
      <point x="216" y="472"/>
      <point x="313" y="472" type="curve" smooth="yes"/>
      <point x="409" y="472"/>
      <point x="470" y="391"/>
      <point x="470" y="264" type="curve" smooth="yes"/>
      <point x="470" y="139"/>
      <point x="409" y="60"/>
    </contour>
  </outline>
</glyph>
<glyph name="dcroat" format="2">
  <advance width="588"/>
  <unicode hex="0111"/>
  <outline>
    <component base="d"/>
    <contour>
      <point x="282" y="602" type="line"/>
      <point x="582" y="602" type="line"/>
      <point x="582" y="660" type="line"/>
      <point x="282" y="660" type="line"/>
    </contour>
  </outline>
</glyph>
<glyph name="eogonek" format="2">
  <advance width="540"/>
  <unicode hex="0119"/>
  <outline>
    <contour>
      <point x="413" y="-199" type="curve"/>
      <point x="396" y="-145" type="line"/>
      <point x="340" y="-175"/>
      <point x="296" y="-156"/>
      <point x="296" y="-112" type="curve" smooth="yes"/>
      <point x="296" y="-67"/>
      <point x="340" y="-19"/>
      <point x="389" y="11" type="curve"/>
      <point x="326" y="11" type="line"/>
      <point x="262" y="-26"/>
      <point x="225" y="-78"/>
      <point x="225" y="-130" type="curve" smooth="yes"/>
      <point x="225" y="-212"/>
      <point x="323" y="-242"/>
    </contour>
    <component base="e"/>
  </outline>
</glyph>
<glyph name="Hbar" format="2">
  <advance width="704"/>
  <unicode hex="0126"/>
  <outline>
    <contour>
      <point x="44" y="524" type="line"/>
      <point x="660" y="524" type="line"/>
      <point x="660" y="588" type="line"/>
      <point x="44" y="588" type="line"/>
    </contour>
    <component base="H" xOffset="6"/>
  </outline>
</glyph>
<glyph name="hbar" format="2">
  <advance width="572"/>
  <unicode hex="0127"/>
  <outline>
    <component base="h"/>
    <contour>
      <point x="10" y="608" type="line"/>
      <point x="306" y="608" type="line"/>
      <point x="306" y="666" type="line"/>
      <point x="10" y="666" type="line"/>
    </contour>
  </outline>
</glyph>
<glyph name="idotless" format="2">
  <advance width="214"/>
  <unicode hex="0131"/>
  <anchor x="107" y="0" name="bottom"/>
  <anchor x="142" y="8" name="ogonek"/>
  <anchor x="107" y="532" name="top"/>
  <outline>
    <contour>
      <point x="64" y="0" type="line"/>
      <point x="150" y="0" type="line"/>
      <point x="150" y="532" type="line"/>
      <point x="64" y="532" type="line"/>
    </contour>
  </outline>
</glyph>
<glyph name="kgreenlandic" format="2">
  <advance width="516"/>
  <unicode hex="0138"/>
  <outline>
    <contour>
      <point x="64" y="0" type="line"/>
      <point x="150" y="0" type="line"/>
      <point x="150" y="188" type="line"/>
      <point x="142" y="172" type="line"/>
      <point x="498" y="532" type="line"/>
      <point x="396" y="532" type="line"/>
      <point x="142" y="272" type="line"/>
      <point x="150" y="272" type="line"/>
      <point x="150" y="532" type="line"/>
      <point x="64" y="532" type="line"/>
    </contour>
    <contour>
      <point x="416" y="0" type="line"/>
      <point x="520" y="0" type="line"/>
      <point x="278" y="331" type="line"/>
      <point x="222" y="272" type="line"/>
    </contour>
  </outline>
</glyph>
<glyph name="Ldot" format="2">
  <advance width="524"/>
  <unicode hex="013F"/>
  <outline>
    <contour>
      <point x="334" y="326" type="line"/>
      <point x="432" y="326" type="line"/>
      <point x="432" y="426" type="line"/>
      <point x="334" y="426" type="line"/>
    </contour>
    <component base="L"/>
  </outline>
</glyph>
<glyph name="ldot" format="2">
  <advance width="304"/>
  <unicode hex="0140"/>
  <outline>
    <contour>
      <point x="202" y="324" type="line"/>
      <point x="296" y="324" type="line"/>
      <point x="296" y="420" type="line"/>
      <point x="202" y="420" type="line"/>
    </contour>
    <component base="l"/>
  </outline>
</glyph>
<glyph name="Lslash" format="2">
  <advance width="530"/>
  <unicode hex="0141"/>
  <outline>
    <component base="L" xOffset="6"/>
    <contour>
      <point x="27" y="246" type="line"/>
      <point x="377" y="360" type="line"/>
      <point x="355" y="428" type="line"/>
      <point x="5" y="312" type="line"/>
    </contour>
  </outline>
</glyph>
<glyph name="lslash" format="2">
  <advance width="288"/>
  <unicode hex="0142"/>
  <outline>
    <contour>
      <point x="140" y="346" type="line"/>
      <point x="140" y="423" type="line"/>
      <point x="2" y="372" type="line"/>
      <point x="24" y="303" type="line"/>
    </contour>
    <component base="l" xOffset="34"/>
    <contour>
      <point x="150" y="433" type="line"/>
      <point x="150" y="356" type="line"/>
      <point x="296" y="410" type="line"/>
      <point x="274" y="478" type="line"/>
    </contour>
  </outline>
</glyph>
<glyph name="Eng" format="2">
  <advance width="704"/>
  <unicode hex="014A"/>
  <outline>
    <contour>
      <point x="407" y="-220" type="line"/>
      <point x="535" y="-256"/>
      <point x="621" y="-210"/>
      <point x="621" y="-106" type="curve" smooth="yes"/>
      <point x="621" y="680" type="line"/>
      <point x="535" y="680" type="line"/>
      <point x="535" y="98" type="line"/>
      <point x="543" y="98" type="line"/>
      <point x="205" y="680" type="line"/>
      <point x="83" y="680" type="line"/>
      <point x="83" y="0" type="line"/>
      <point x="169" y="0" type="line"/>
      <point x="169" y="590" type="line"/>
      <point x="161" y="590" type="line"/>
      <point x="543" y="-54" type="line"/>
      <point x="535" y="-22" type="line"/>
      <point x="535" y="-98" type="line" smooth="yes"/>
      <point x="535" y="-154"/>
      <point x="490" y="-172"/>
      <point x="419" y="-144" type="curve"/>
    </contour>
  </outline>
</glyph>
<glyph name="eng" format="2">
  <advance width="567"/>
  <unicode hex="014B"/>
  <outline>
    <contour>
      <point x="292" y="-216" type="line"/>
      <point x="427" y="-255"/>
      <point x="506" y="-213"/>
      <point x="506" y="-104" type="curve" smooth="yes"/>
      <point x="506" y="356" type="line"/>
      <point x="506" y="468"/>
      <point x="432" y="544"/>
      <point x="326" y="544" type="curve" smooth="yes"/>
      <point x="228" y="544"/>
      <point x="152" y="480"/>
      <point x="140" y="388" type="curve"/>
      <point x="148" y="388" type="line"/>
      <point x="148" y="532" type="line"/>
      <point x="64" y="532" type="line"/>
      <point x="64" y="0" type="line"/>
      <point x="150" y="0" type="line"/>
      <point x="150" y="240" type="line" smooth="yes"/>
      <point x="150" y="388"/>
      <point x="206" y="470"/>
      <point x="300" y="470" type="curve" smooth="yes"/>
      <point x="374" y="470"/>
      <point x="420" y="419"/>
      <point x="420" y="328" type="curve"/>
      <point x="420" y="-100" type="line" smooth="yes"/>
      <point x="420" y="-156"/>
      <point x="374" y="-174"/>
      <point x="302" y="-146" type="curve"/>
    </contour>
  </outline>
</glyph>
<glyph name="OE" format="2">
  <advance width="1040"/>
  <unicode hex="0152"/>
  <outline>
    <contour>
      <point x="346" y="-12" type="curve" smooth="yes"/>
      <point x="526" y="-12"/>
      <point x="649" y="131"/>
      <point x="649" y="340" type="curve" smooth="yes"/>
      <point x="649" y="549"/>
      <point x="526" y="692"/>
      <point x="346" y="692" type="curve" smooth="yes"/>
      <point x="166" y="692"/>
      <point x="43" y="549"/>
      <point x="43" y="340" type="curve" smooth="yes"/>
      <point x="43" y="131"/>
      <point x="166" y="-12"/>
    </contour>
    <contour>
      <point x="352" y="64" type="curve" smooth="yes"/>
      <point x="224" y="64"/>
      <point x="143" y="172"/>
      <point x="143" y="341" type="curve" smooth="yes"/>
      <point x="143" y="510"/>
      <point x="224" y="618"/>
      <point x="352" y="618" type="curve" smooth="yes"/>
      <point x="480" y="618"/>
      <point x="561" y="510"/>
      <point x="561" y="341" type="curve" smooth="yes"/>
      <point x="561" y="172"/>
      <point x="480" y="64"/>
    </contour>
    <contour>
      <point x="561" y="0" type="line"/>
      <point x="1005" y="0" type="line"/>
      <point x="1005" y="74" type="line"/>
      <point x="647" y="74" type="line"/>
      <point x="655" y="66" type="line"/>
      <point x="655" y="614" type="line"/>
      <point x="647" y="606" type="line"/>
      <point x="999" y="606" type="line"/>
      <point x="999" y="680" type="line"/>
      <point x="561" y="680" type="line"/>
    </contour>
    <contour>
      <point x="647" y="314" type="line"/>
      <point x="967" y="314" type="line"/>
      <point x="967" y="387" type="line"/>
      <point x="647" y="387" type="line"/>
    </contour>
  </outline>
</glyph>
<glyph name="oe" format="2">
  <advance width="916"/>
  <unicode hex="0153"/>
  <outline>
    <contour>
      <point x="271" y="-12" type="curve" smooth="yes"/>
      <point x="358" y="-12"/>
      <point x="434" y="32"/>
      <point x="471" y="104" type="curve"/>
      <point x="463" y="104" type="line"/>
      <point x="497" y="31"/>
      <point x="575" y="-12"/>
      <point x="665" y="-12" type="curve" smooth="yes"/>
      <point x="773" y="-12"/>
      <point x="857" y="50"/>
      <point x="881" y="154" type="curve"/>
      <point x="797" y="176" type="line"/>
      <point x="782" y="105"/>
      <point x="733" y="60"/>
      <point x="663" y="60" type="curve" smooth="yes"/>
      <point x="569" y="60"/>
      <point x="509" y="142"/>
      <point x="509" y="272" type="curve" smooth="yes"/>
      <point x="509" y="396"/>
      <point x="564" y="474"/>
      <point x="651" y="474" type="curve" smooth="yes"/>
      <point x="731" y="474"/>
      <point x="783" y="409"/>
      <point x="785" y="308" type="curve"/>
      <point x="793" y="316" type="line"/>
      <point x="501" y="316" type="line"/>
      <point x="501" y="250" type="line"/>
      <point x="873" y="250" type="line"/>
      <point x="885" y="425"/>
      <point x="795" y="544"/>
      <point x="655" y="544" type="curve" smooth="yes"/>
      <point x="567" y="544"/>
      <point x="491" y="496"/>
      <point x="463" y="424" type="curve"/>
      <point x="471" y="424" type="line"/>
      <point x="443" y="492"/>
      <point x="365" y="544"/>
      <point x="271" y="544" type="curve" smooth="yes"/>
      <point x="130" y="544"/>
      <point x="33" y="431"/>
      <point x="33" y="266" type="curve" smooth="yes"/>
      <point x="33" y="101"/>
      <point x="130" y="-12"/>
    </contour>
    <contour>
      <point x="273" y="60" type="curve" smooth="yes"/>
      <point x="181" y="60"/>
      <point x="123" y="141"/>
      <point x="123" y="268" type="curve" smooth="yes"/>
      <point x="123" y="394"/>
      <point x="181" y="474"/>
      <point x="273" y="474" type="curve" smooth="yes"/>
      <point x="365" y="474"/>
      <point x="423" y="394"/>
      <point x="423" y="268" type="curve" smooth="yes"/>
      <point x="423" y="141"/>
      <point x="365" y="60"/>
    </contour>
  </outline>
</glyph>
<glyph name="longs" format="2">
  <advance width="269"/>
  <unicode hex="017F"/>
  <outline>
    <contour>
      <point x="60" y="0" type="line"/>
      <point x="146" y="0" type="line"/>
      <point x="146" y="584" type="line" smooth="yes"/>
      <point x="146" y="644"/>
      <point x="189" y="666"/>
      <point x="263" y="644" type="curve"/>
      <point x="276" y="712" type="line"/>
      <point x="140" y="750"/>
      <point x="60" y="701"/>
      <point x="60" y="582" type="curve" smooth="yes"/>
    </contour>
  </outline>
</glyph>
<glyph name="Schwa" format="2">
  <advance width="699"/>
  <unicode hex="018F"/>
  <outline>
    <contour>
      <point x="344" y="-14" type="curve" smooth="yes"/>
      <point x="530" y="-14"/>
      <point x="656" y="136"/>
      <point x="656" y="348" type="curve" smooth="yes"/>
      <point x="656" y="556"/>
      <point x="532" y="694"/>
      <point x="344" y="694" type="curve" smooth="yes"/>
      <point x="198" y="694"/>
      <point x="80" y="608"/>
      <point x="48" y="480" type="curve"/>
      <point x="144" y="454" type="line"/>
      <point x="163" y="555"/>
      <point x="240" y="620"/>
      <point x="342" y="620" type="curve" smooth="yes"/>
      <point x="475" y="620"/>
      <point x="560" y="511"/>
      <point x="560" y="340" type="curve" smooth="yes"/>
      <point x="560" y="170"/>
      <point x="476" y="62"/>
      <point x="344" y="62" type="curve" smooth="yes"/>
      <point x="222" y="62"/>
      <point x="144" y="153"/>
      <point x="142" y="296" type="curve"/>
      <point x="134" y="288" type="line"/>
      <point x="568" y="288" type="line"/>
      <point x="568" y="360" type="line"/>
      <point x="45" y="360" type="line"/>
      <point x="29" y="140"/>
      <point x="152" y="-14"/>
    </contour>
  </outline>
</glyph>
<glyph name="florin" format="2">
  <advance width="524"/>
  <unicode hex="0192"/>
  <outline>
    <contour>
      <point x="12" y="6" type="line"/>
      <point x="160" y="-40"/>
      <point x="258" y="4"/>
      <point x="278" y="128" type="curve" smooth="yes"/>
      <point x="344" y="542" type="line" smooth="yes"/>
      <point x="356" y="616"/>
      <point x="416" y="640"/>
      <point x="508" y="604" type="curve"/>
      <point x="524" y="676" type="line"/>
      <point x="376" y="722"/>
      <point x="278" y="678"/>
      <point x="258" y="554" type="curve" smooth="yes"/>
      <point x="192" y="140" type="line" smooth="yes"/>
      <point x="180" y="66"/>
      <point x="120" y="44"/>
      <point x="28" y="80" type="curve"/>
    </contour>
    <contour>
      <point x="76" y="338" type="line"/>
      <point x="480" y="338" type="line"/>
      <point x="480" y="408" type="line"/>
      <point x="76" y="408" type="line"/>
    </contour>
  </outline>
</glyph>
<glyph name="jdotless" format="2">
  <advance width="222"/>
  <unicode hex="0237"/>
  <anchor x="115" y="532" name="top"/>
  <outline>
    <contour>
      <point x="-56" y="-216" type="line"/>
      <point x="-21" y="-229"/>
      <point x="10" y="-235"/>
      <point x="37" y="-235" type="curve" smooth="yes"/>
      <point x="114" y="-235"/>
      <point x="158" y="-185"/>
      <point x="158" y="-104" type="curve" smooth="yes"/>
      <point x="158" y="532" type="line"/>
      <point x="72" y="532" type="line"/>
      <point x="72" y="-100" type="line" smooth="yes"/>
      <point x="72" y="-138"/>
      <point x="50" y="-159"/>
      <point x="13" y="-159" type="curve" smooth="yes"/>
      <point x="-3" y="-159"/>
      <point x="-23" y="-155"/>
      <point x="-46" y="-146" type="curve"/>
    </contour>
  </outline>
</glyph>
<glyph name="schwa" format="2">
  <advance width="547"/>
  <unicode hex="0259"/>
  <outline>
    <contour>
      <point x="270" y="-12" type="curve" smooth="yes"/>
      <point x="416" y="-12"/>
      <point x="514" y="100"/>
      <point x="514" y="264" type="curve" smooth="yes"/>
      <point x="514" y="430"/>
      <point x="412" y="544"/>
      <point x="264" y="544" type="curve" smooth="yes"/>
      <point x="159" y="544"/>
      <point x="73" y="486"/>
      <point x="42" y="400" type="curve"/>
      <point x="120" y="368" type="line"/>
      <point x="140" y="433"/>
      <point x="197" y="474"/>
      <point x="266" y="474" type="curve" smooth="yes"/>
      <point x="363" y="474"/>
      <point x="424" y="392"/>
      <point x="424" y="264" type="curve" smooth="yes"/>
      <point x="424" y="138"/>
      <point x="364" y="60"/>
      <point x="268" y="60" type="curve" smooth="yes"/>
      <point x="180" y="60"/>
      <point x="123" y="126"/>
      <point x="121" y="228" type="curve"/>
      <point x="113" y="220" type="line"/>
      <point x="432" y="220" type="line"/>
      <point x="432" y="290" type="line"/>
      <point x="34" y="290" type="line"/>
      <point x="18" y="110"/>
      <point x="114" y="-12"/>
    </contour>
  </outline>
</glyph>
<glyph name="gravecomb" format="2">
  <advance width="346"/>
  <unicode hex="0300"/>
  <anchor x="216" y="532" name="_top"/>
  <outline>
    <contour>
      <point x="204" y="594" type="line"/>
      <point x="272" y="594" type="line"/>
      <point x="174" y="744" type="line"/>
      <point x="74" y="744" type="line"/>
    </contour>
  </outline>
</glyph>
<glyph name="acutecomb" format="2">
  <advance width="390"/>
  <unicode hex="0301"/>
  <anchor x="130" y="532" name="_top"/>
  <outline>
    <contour>
      <point x="95" y="594" type="line"/>
      <point x="163" y="594" type="line"/>
      <point x="295" y="744" type="line"/>
      <point x="197" y="744" type="line"/>
    </contour>
  </outline>
</glyph>
<glyph name="circumflexcomb" format="2">
  <advance width="450"/>
  <unicode hex="0302"/>
  <anchor x="225" y="532" name="_top"/>
  <outline>
    <contour>
      <point x="74" y="594" type="line"/>
      <point x="150" y="594" type="line"/>
      <point x="230" y="702" type="line"/>
      <point x="222" y="702" type="line"/>
      <point x="301" y="594" type="line"/>
      <point x="376" y="594" type="line"/>
      <point x="273" y="744" type="line"/>
      <point x="181" y="744" type="line"/>
    </contour>
  </outline>
</glyph>
<glyph name="tildecomb" format="2">
  <advance width="462"/>
  <unicode hex="0303"/>
  <anchor x="233" y="532" name="_top"/>
  <outline>
    <contour>
      <point x="114" y="606" type="line"/>
      <point x="128" y="638"/>
      <point x="140" y="656"/>
      <point x="166" y="656" type="curve" smooth="yes"/>
      <point x="206" y="656"/>
      <point x="234" y="604"/>
      <point x="290" y="604" type="curve" smooth="yes"/>
      <point x="343" y="604"/>
      <point x="385" y="646"/>
      <point x="403" y="721" type="curve"/>
      <point x="349" y="728" type="line"/>
      <point x="339" y="687"/>
      <point x="324" y="668"/>
      <point x="302" y="668" type="curve" smooth="yes"/>
      <point x="263" y="668"/>
      <point x="234" y="720"/>
      <point x="176" y="720" type="curve" smooth="yes"/>
      <point x="124" y="720"/>
      <point x="81" y="681"/>
      <point x="59" y="612" type="curve"/>
    </contour>
  </outline>
</glyph>
<glyph name="macroncomb" format="2">
  <advance width="420"/>
  <unicode hex="0304"/>
  <anchor x="210" y="532" name="_top"/>
  <outline>
    <contour>
      <point x="74" y="618" type="line"/>
      <point x="346" y="618" type="line"/>
      <point x="346" y="680" type="line"/>
      <point x="74" y="680" type="line"/>
    </contour>
  </outline>
</glyph>
<glyph name="brevecomb" format="2">
  <advance width="406"/>
  <unicode hex="0306"/>
  <anchor x="203" y="532" name="_top"/>
  <outline>
    <contour>
      <point x="203" y="588" type="curve" smooth="yes"/>
      <point x="285" y="588"/>
      <point x="332" y="638"/>
      <point x="332" y="724" type="curve"/>
      <point x="270" y="724" type="line"/>
      <point x="270" y="678"/>
      <point x="247" y="652"/>
      <point x="203" y="652" type="curve" smooth="yes"/>
      <point x="159" y="652"/>
      <point x="136" y="678"/>
      <point x="136" y="724" type="curve"/>
      <point x="74" y="724" type="line"/>
      <point x="74" y="638"/>
      <point x="121" y="588"/>
    </contour>
  </outline>
</glyph>
<glyph name="dotaccentcomb" format="2">
  <advance width="240"/>
  <unicode hex="0307"/>
  <anchor x="120" y="532" name="_top"/>
  <outline>
    <contour>
      <point x="73" y="616" type="line"/>
      <point x="167" y="616" type="line"/>
      <point x="167" y="712" type="line"/>
      <point x="73" y="712" type="line"/>
    </contour>
  </outline>
</glyph>
<glyph name="dieresiscomb" format="2">
  <advance width="390"/>
  <unicode hex="0308"/>
  <anchor x="195" y="532" name="_top"/>
  <outline>
    <contour>
      <point x="230" y="617" type="line"/>
      <point x="316" y="617" type="line"/>
      <point x="316" y="702" type="line"/>
      <point x="230" y="702" type="line"/>
    </contour>
    <contour>
      <point x="74" y="617" type="line"/>
      <point x="160" y="617" type="line"/>
      <point x="160" y="702" type="line"/>
      <point x="74" y="702" type="line"/>
    </contour>
  </outline>
</glyph>
<glyph name="ringcomb" format="2">
  <advance width="346"/>
  <unicode hex="030A"/>
  <anchor x="173" y="532" name="_top"/>
  <outline>
    <contour>
      <point x="173" y="588" type="curve" smooth="yes"/>
      <point x="231" y="588"/>
      <point x="272" y="621"/>
      <point x="272" y="669" type="curve" smooth="yes"/>
      <point x="272" y="717"/>
      <point x="231" y="750"/>
      <point x="173" y="750" type="curve" smooth="yes"/>
      <point x="115" y="750"/>
      <point x="74" y="717"/>
      <point x="74" y="669" type="curve" smooth="yes"/>
      <point x="74" y="621"/>
      <point x="115" y="588"/>
    </contour>
    <contour>
      <point x="173" y="624" type="curve" smooth="yes"/>
      <point x="147" y="624"/>
      <point x="130" y="642"/>
      <point x="130" y="669" type="curve" smooth="yes"/>
      <point x="130" y="695"/>
      <point x="147" y="713"/>
      <point x="173" y="713" type="curve" smooth="yes"/>
      <point x="199" y="713"/>
      <point x="216" y="695"/>
      <point x="216" y="669" type="curve" smooth="yes"/>
      <point x="216" y="642"/>
      <point x="199" y="624"/>
    </contour>
  </outline>
</glyph>
<glyph name="hungarumlautcomb" format="2">
  <advance width="438"/>
  <unicode hex="030B"/>
  <anchor x="180" y="532" name="_top"/>
  <outline>
    <contour>
      <point x="196" y="594" type="line"/>
      <point x="258" y="594" type="line"/>
      <point x="364" y="744" type="line"/>
      <point x="272" y="744" type="line"/>
    </contour>
    <contour>
      <point x="74" y="594" type="line"/>
      <point x="138" y="594" type="line"/>
      <point x="238" y="744" type="line"/>
      <point x="150" y="744" type="line"/>
    </contour>
  </outline>
</glyph>
<glyph name="caroncomb" format="2">
  <advance width="452"/>
  <unicode hex="030C"/>
  <anchor x="226" y="532" name="_top"/>
  <outline>
    <contour>
      <point x="180" y="594" type="line"/>
      <point x="273" y="594" type="line"/>
      <point x="378" y="744" type="line"/>
      <point x="300" y="744" type="line"/>
      <point x="224" y="636" type="line"/>
      <point x="232" y="636" type="line"/>
      <point x="151" y="744" type="line"/>
      <point x="74" y="744" type="line"/>
    </contour>
  </outline>
</glyph>
<glyph name="commaaccentcomb" format="2">
  <advance width="248"/>
  <unicode hex="0326"/>
  <anchor x="127" y="0" name="_bottom"/>
  <outline>
    <contour>
      <point x="84" y="-242" type="line"/>
      <point x="141" y="-233"/>
      <point x="174" y="-194"/>
      <point x="174" y="-138" type="curve" smooth="yes"/>
      <point x="174" y="-48" type="line"/>
      <point x="78" y="-48" type="line"/>
      <point x="78" y="-142" type="line"/>
      <point x="134" y="-142" type="line"/>
      <point x="134" y="-146" type="line" smooth="yes"/>
      <point x="134" y="-179"/>
      <point x="112" y="-200"/>
      <point x="74" y="-204" type="curve"/>
    </contour>
  </outline>
</glyph>
<glyph name="cedillacomb" format="2">
  <advance width="358"/>
  <unicode hex="0327"/>
  <anchor x="192" y="0" name="_bottom"/>
  <outline>
    <contour>
      <point x="74" y="-212" type="line"/>
      <point x="190" y="-253"/>
      <point x="284" y="-220"/>
      <point x="284" y="-148" type="curve" smooth="yes"/>
      <point x="284" y="-102"/>
      <point x="246" y="-68"/>
      <point x="190" y="-60" type="curve"/>
      <point x="194" y="-68" type="line"/>
      <point x="224" y="0" type="line"/>
      <point x="170" y="0" type="line"/>
      <point x="128" y="-86" type="line"/>
      <point x="182" y="-93"/>
      <point x="216" y="-109"/>
      <point x="216" y="-136" type="curve" smooth="yes"/>
      <point x="216" y="-166"/>
      <point x="174" y="-185"/>
      <point x="88" y="-154" type="curve"/>
    </contour>
  </outline>
</glyph>
<glyph name="ogonekcomb" format="2">
  <advance width="336"/>
  <unicode hex="0328"/>
  <anchor x="210" y="0" name="_ogonek"/>
  <outline>
    <contour>
      <point x="262" y="-212" type="curve"/>
      <point x="246" y="-156" type="line"/>
      <point x="190" y="-186"/>
      <point x="144" y="-168"/>
      <point x="144" y="-124" type="curve" smooth="yes"/>
      <point x="144" y="-87"/>
      <point x="176" y="-38"/>
      <point x="218" y="-8" type="curve"/>
      <point x="172" y="0" type="line"/>
      <point x="112" y="-36"/>
      <point x="74" y="-88"/>
      <point x="74" y="-140" type="curve" smooth="yes"/>
      <point x="74" y="-222"/>
      <point x="170" y="-252"/>
    </contour>
  </outline>
</glyph>
<glyph name="strokeshortcomb" format="2">
  <advance width="428"/>
  <unicode hex="0335"/>
  <anchor x="214" y="340" name="_center"/>
  <outline>
    <contour>
      <point x="74" y="307" type="line"/>
      <point x="354" y="307" type="line"/>
      <point x="354" y="373" type="line"/>
      <point x="74" y="373" type="line"/>
    </contour>
  </outline>
</glyph>
<glyph name="slashshortcomb" format="2">
  <advance width="644"/>
  <unicode hex="0337"/>
  <anchor x="322" y="266" name="_center"/>
  <outline>
    <contour>
      <point x="122" y="-14" type="line"/>
      <point x="570" y="498" type="line"/>
      <point x="520" y="544" type="line"/>
      <point x="74" y="32" type="line"/>
    </contour>
  </outline>
</glyph>
<glyph name="slashlongcomb" format="2">
  <advance width="774"/>
  <unicode hex="0338"/>
  <anchor x="387" y="339" name="_center"/>
  <outline>
    <contour>
      <point x="130" y="-2" type="line"/>
      <point x="700" y="628" type="line"/>
      <point x="644" y="680" type="line"/>
      <point x="74" y="50" type="line"/>
    </contour>
  </outline>
</glyph>
<glyph name="Germandbls" format="2">
  <advance width="658"/>
  <unicode hex="1E9E"/>
  <outline>
    <contour>
      <point x="392" y="-14" type="curve" smooth="yes"/>
      <point x="536" y="-14"/>
      <point x="632" y="64"/>
      <point x="632" y="180" type="curve" smooth="yes"/>
      <point x="632" y="292"/>
      <point x="544" y="377"/>
      <point x="416" y="388" type="curve"/>
      <point x="420" y="380" type="line"/>
      <point x="560" y="648" type="line"/>
      <point x="500" y="681"/>
      <point x="416" y="702"/>
      <point x="336" y="702" type="curve" smooth="yes"/>
      <point x="201" y="702"/>
      <point x="74" y="644"/>
      <point x="74" y="488" type="curve" smooth="yes"/>
      <point x="74" y="0" type="line"/>
      <point x="168" y="0" type="line"/>
      <point x="168" y="480" type="line" smooth="yes"/>
      <point x="168" y="595"/>
      <point x="246" y="629"/>
      <point x="325" y="629" type="curve" smooth="yes"/>
      <point x="379" y="629"/>
      <point x="435" y="613"/>
      <point x="466" y="595" type="curve"/>
      <point x="466" y="639" type="line"/>
      <point x="312" y="336" type="line"/>
      <point x="447" y="332"/>
      <point x="532" y="271"/>
      <point x="532" y="180" type="curve" smooth="yes"/>
      <point x="532" y="108"/>
      <point x="481" y="62"/>
      <point x="400" y="62" type="curve" smooth="yes"/>
      <point x="348" y="62"/>
      <point x="296" y="79"/>
      <point x="260" y="108" type="curve"/>
      <point x="232" y="24" type="line"/>
      <point x="276" y="0"/>
      <point x="332" y="-14"/>
    </contour>
  </outline>
</glyph>
<glyph name="emdash" format="2">
  <advance width="930"/>
  <unicode hex="2014"/>
  <outline>
    <contour>
      <point x="0" y="229" type="line"/>
      <point x="930" y="229" type="line"/>
      <point x="930" y="301" type="line"/>
      <point x="0" y="301" type="line"/>
    </contour>
  </outline>
</glyph>
<glyph name="horizontalbar" format="2">
  <advance width="930"/>
  <unicode hex="2015"/>
  <outline>
    <contour>
      <point x="52" y="229" type="line"/>
      <point x="878" y="229" type="line"/>
      <point x="878" y="301" type="line"/>
      <point x="52" y="301" type="line"/>
    </contour>
  </outline>
</glyph>
<glyph name="dagger" format="2">
  <advance width="460"/>
  <unicode hex="2020"/>
  <outline>
    <contour>
      <point x="187" y="0" type="line"/>
      <point x="273" y="0" type="line"/>
      <point x="273" y="680" type="line"/>
      <point x="187" y="680" type="line"/>
    </contour>
    <contour>
      <point x="32" y="440" type="line"/>
      <point x="428" y="440" type="line"/>
      <point x="428" y="510" type="line"/>
      <point x="32" y="510" type="line"/>
    </contour>
  </outline>
</glyph>
<glyph name="daggerdbl" format="2">
  <advance width="494"/>
  <unicode hex="2021"/>
  <outline>
    <contour>
      <point x="204" y="0" type="line"/>
      <point x="290" y="0" type="line"/>
      <point x="290" y="680" type="line"/>
      <point x="204" y="680" type="line"/>
    </contour>
    <contour>
      <point x="52" y="158" type="line"/>
      <point x="442" y="158" type="line"/>
      <point x="442" y="228" type="line"/>
      <point x="52" y="228" type="line"/>
    </contour>
    <contour>
      <point x="53" y="464" type="line"/>
      <point x="440" y="464" type="line"/>
      <point x="440" y="532" type="line"/>
      <point x="53" y="532" type="line"/>
    </contour>
  </outline>
</glyph>
<glyph name="bullet" format="2">
  <advance width="432"/>
  <unicode hex="2022"/>
  <outline>
    <contour>
      <point x="216" y="194" type="curve" smooth="yes"/>
      <point x="298" y="194"/>
      <point x="358" y="254"/>
      <point x="358" y="338" type="curve" smooth="yes"/>
      <point x="358" y="422"/>
      <point x="298" y="482"/>
      <point x="216" y="482" type="curve" smooth="yes"/>
      <point x="134" y="482"/>
      <point x="74" y="422"/>
      <point x="74" y="338" type="curve" smooth="yes"/>
      <point x="74" y="254"/>
      <point x="134" y="194"/>
    </contour>
  </outline>
</glyph>
<glyph name="minute" format="2">
  <advance width="240"/>
  <unicode hex="2032"/>
  <outline>
    <contour>
      <point x="60" y="448" type="line"/>
      <point x="125" y="448" type="line"/>
      <point x="220" y="680" type="line"/>
      <point x="120" y="680" type="line"/>
    </contour>
  </outline>
</glyph>
<glyph name="second" format="2">
  <advance width="372"/>
  <unicode hex="2033"/>
  <outline>
    <contour>
      <point x="60" y="448" type="line"/>
      <point x="125" y="448" type="line"/>
      <point x="214" y="680" type="line"/>
      <point x="120" y="680" type="line"/>
    </contour>
    <contour>
      <point x="190" y="448" type="line"/>
      <point x="255" y="448" type="line"/>
      <point x="352" y="680" type="line"/>
      <point x="258" y="680" type="line"/>
    </contour>
  </outline>
</glyph>
<glyph name="guilsinglleft" format="2">
  <advance width="346"/>
  <unicode hex="2039"/>
  <outline>
    <contour>
      <point x="299" y="50" type="line"/>
      <point x="299" y="140" type="line"/>
      <point x="88" y="258" type="line"/>
      <point x="88" y="250" type="line"/>
      <point x="297" y="368" type="line"/>
      <point x="297" y="456" type="line"/>
      <point x="26" y="290" type="line"/>
      <point x="26" y="216" type="line"/>
    </contour>
  </outline>
</glyph>
<glyph name="fraction" format="2">
  <advance width="182"/>
  <unicode hex="2044"/>
  <outline>
    <contour>
      <point x="-131" y="-12" type="line"/>
      <point x="377" y="652" type="line"/>
      <point x="323" y="694" type="line"/>
      <point x="-185" y="30" type="line"/>
    </contour>
  </outline>
</glyph>
<glyph name="zeroinferior" format="2">
  <advance width="404"/>
  <unicode hex="2080"/>
  <outline>
    <contour>
      <point x="202" y="-76" type="curve" smooth="yes"/>
      <point x="306" y="-76"/>
      <point x="377" y="10"/>
      <point x="377" y="140" type="curve" smooth="yes"/>
      <point x="377" y="268"/>
      <point x="307" y="355"/>
      <point x="202" y="355" type="curve" smooth="yes"/>
      <point x="99" y="355"/>
      <point x="28" y="269"/>
      <point x="28" y="140" type="curve" smooth="yes"/>
      <point x="28" y="10"/>
      <point x="98" y="-76"/>
    </contour>
    <contour>
      <point x="202" y="-14" type="curve" smooth="yes"/>
      <point x="146" y="-14"/>
      <point x="109" y="46"/>
      <point x="109" y="141" type="curve" smooth="yes"/>
      <point x="109" y="234"/>
      <point x="146" y="294"/>
      <point x="202" y="294" type="curve" smooth="yes"/>
      <point x="258" y="294"/>
      <point x="295" y="234"/>
      <point x="295" y="141" type="curve" smooth="yes"/>
      <point x="295" y="47"/>
      <point x="258" y="-14"/>
    </contour>
  </outline>
</glyph>
<glyph name="twoinferior" format="2">
  <advance width="349"/>
  <unicode hex="2082"/>
  <outline>
    <contour>
      <point x="19" y="-68" type="line"/>
      <point x="321" y="-68" type="line"/>
      <point x="321" y="-3" type="line"/>
      <point x="114" y="-3" type="line"/>
      <point x="117" y="-6" type="line"/>
      <point x="154" y="80"/>
      <point x="317" y="109"/>
      <point x="317" y="233" type="curve" smooth="yes"/>
      <point x="317" y="305"/>
      <point x="259" y="355"/>
      <point x="175" y="355" type="curve" smooth="yes"/>
      <point x="98" y="355"/>
      <point x="34" y="312"/>
      <point x="19" y="243" type="curve"/>
      <point x="93" y="220" type="line"/>
      <point x="99" y="269"/>
      <point x="134" y="294"/>
      <point x="172" y="294" type="curve" smooth="yes"/>
      <point x="212" y="294"/>
      <point x="238" y="269"/>
      <point x="238" y="233" type="curve" smooth="yes"/>
      <point x="238" y="128"/>
      <point x="31" y="104"/>
      <point x="20" y="-54" type="curve" smooth="yes"/>
    </contour>
  </outline>
</glyph>
<glyph name="threeinferior" format="2">
  <advance width="358"/>
  <unicode hex="2083"/>
  <outline>
    <contour>
      <point x="176" y="-76" type="curve" smooth="yes"/>
      <point x="270" y="-76"/>
      <point x="334" y="-26"/>
      <point x="334" y="49" type="curve" smooth="yes"/>
      <point x="334" y="106"/>
      <point x="296" y="146"/>
      <point x="242" y="154" type="curve"/>
      <point x="242" y="150" type="line"/>
      <point x="290" y="161"/>
      <point x="319" y="198"/>
      <point x="319" y="244" type="curve" smooth="yes"/>
      <point x="319" y="309"/>
      <point x="261" y="355"/>
      <point x="177" y="355" type="curve" smooth="yes"/>
      <point x="100" y="355"/>
      <point x="37" y="316"/>
      <point x="29" y="257" type="curve"/>
      <point x="101" y="233" type="line"/>
      <point x="107" y="273"/>
      <point x="135" y="299"/>
      <point x="176" y="299" type="curve" smooth="yes"/>
      <point x="215" y="299"/>
      <point x="240" y="273"/>
      <point x="240" y="238" type="curve" smooth="yes"/>
      <point x="240" y="201"/>
      <point x="214" y="175"/>
      <point x="173" y="175" type="curve" smooth="yes"/>
      <point x="129" y="175" type="line"/>
      <point x="129" y="125" type="line"/>
      <point x="177" y="125" type="line" smooth="yes"/>
      <point x="223" y="125"/>
      <point x="252" y="97"/>
      <point x="252" y="53" type="curve" smooth="yes"/>
      <point x="252" y="10"/>
      <point x="222" y="-18"/>
      <point x="177" y="-18" type="curve" smooth="yes"/>
      <point x="132" y="-18"/>
      <point x="99" y="10"/>
      <point x="95" y="56" type="curve"/>
      <point x="16" y="39" type="line"/>
      <point x="22" y="-27"/>
      <point x="83" y="-76"/>
    </contour>
  </outline>
</glyph>
<glyph name="fourinferior" format="2">
  <advance width="359"/>
  <unicode hex="2084"/>
  <outline>
    <contour>
      <point x="217" y="-68" type="line"/>
      <point x="294" y="-68" type="line"/>
      <point x="294" y="346" type="line"/>
      <point x="223" y="346" type="line"/>
      <point x="11" y="80" type="line"/>
      <point x="11" y="23" type="line"/>
      <point x="349" y="23" type="line"/>
      <point x="349" y="85" type="line"/>
      <point x="77" y="85" type="line"/>
      <point x="79" y="80" type="line"/>
      <point x="221" y="259" type="line"/>
      <point x="217" y="259" type="line"/>
    </contour>
  </outline>
</glyph>
<glyph name="fiveinferior" format="2">
  <advance width="364"/>
  <unicode hex="2085"/>
  <outline>
    <contour>
      <point x="186" y="-76" type="curve" smooth="yes"/>
      <point x="279" y="-76"/>
      <point x="342" y="-20"/>
      <point x="342" y="68" type="curve" smooth="yes"/>
      <point x="342" y="151"/>
      <point x="283" y="207"/>
      <point x="200" y="207" type="curve" smooth="yes"/>
      <point x="141" y="207"/>
      <point x="99" y="182"/>
      <point x="87" y="149" type="curve"/>
      <point x="107" y="149" type="line"/>
      <point x="128" y="285" type="line"/>
      <point x="319" y="285" type="line"/>
      <point x="319" y="347" type="line"/>
      <point x="67" y="347" type="line"/>
      <point x="38" y="121" type="line"/>
      <point x="104" y="105" type="line"/>
      <point x="118" y="130"/>
      <point x="146" y="144"/>
      <point x="183" y="144" type="curve" smooth="yes"/>
      <point x="231" y="144"/>
      <point x="263" y="112"/>
      <point x="263" y="66" type="curve" smooth="yes"/>
      <point x="263" y="21"/>
      <point x="235" y="-12"/>
      <point x="183" y="-12" type="curve" smooth="yes"/>
      <point x="145" y="-12"/>
      <point x="110" y="9"/>
      <point x="104" y="49" type="curve"/>
      <point x="28" y="38" type="line"/>
      <point x="37" y="-30"/>
      <point x="101" y="-76"/>
    </contour>
  </outline>
</glyph>
<glyph name="sixinferior" format="2">
  <advance width="380"/>
  <unicode hex="2086"/>
  <outline>
    <contour>
      <point x="198" y="-76" type="curve" smooth="yes"/>
      <point x="291" y="-76"/>
      <point x="357" y="-19"/>
      <point x="357" y="66" type="curve" smooth="yes"/>
      <point x="357" y="148"/>
      <point x="295" y="203"/>
      <point x="206" y="203" type="curve" smooth="yes"/>
      <point x="146" y="203"/>
      <point x="100" y="176"/>
      <point x="87" y="135" type="curve"/>
      <point x="100" y="135" type="line"/>
      <point x="101" y="233"/>
      <point x="136" y="294"/>
      <point x="201" y="294" type="curve" smooth="yes"/>
      <point x="241" y="294"/>
      <point x="268" y="272"/>
      <point x="275" y="238" type="curve"/>
      <point x="342" y="259" type="line"/>
      <point x="327" y="317"/>
      <point x="267" y="354"/>
      <point x="202" y="354" type="curve" smooth="yes"/>
      <point x="93" y="354"/>
      <point x="28" y="261"/>
      <point x="28" y="127" type="curve" smooth="yes"/>
      <point x="28" y="4"/>
      <point x="89" y="-76"/>
    </contour>
    <contour>
      <point x="195" y="-21" type="curve" smooth="yes"/>
      <point x="147" y="-21"/>
      <point x="114" y="13"/>
      <point x="114" y="64" type="curve" smooth="yes"/>
      <point x="114" y="116"/>
      <point x="147" y="150"/>
      <point x="195" y="150" type="curve" smooth="yes"/>
      <point x="244" y="150"/>
      <point x="278" y="115"/>
      <point x="278" y="64" type="curve" smooth="yes"/>
      <point x="278" y="13"/>
      <point x="245" y="-21"/>
    </contour>
  </outline>
</glyph>
<glyph name="seveninferior" format="2">
  <advance width="328"/>
  <unicode hex="2087"/>
  <outline>
    <contour>
      <point x="83" y="-68" type="curve"/>
      <point x="164" y="-68" type="line"/>
      <point x="174" y="90"/>
      <point x="231" y="215"/>
      <point x="319" y="298" type="curve"/>
      <point x="319" y="347" type="line"/>
      <point x="8" y="347" type="line"/>
      <point x="8" y="285" type="line"/>
      <point x="229" y="285" type="line"/>
      <point x="227" y="289" type="line"/>
      <point x="147" y="202"/>
      <point x="92" y="61"/>
    </contour>
  </outline>
</glyph>
<glyph name="eightinferior" format="2">
  <advance width="388"/>
  <unicode hex="2088"/>
  <outline>
    <contour>
      <point x="195" y="-75" type="curve" smooth="yes"/>
      <point x="294" y="-75"/>
      <point x="364" y="-25"/>
      <point x="364" y="48" type="curve" smooth="yes"/>
      <point x="364" y="98"/>
      <point x="333" y="139"/>
      <point x="283" y="159" type="curve"/>
      <point x="283" y="154" type="line"/>
      <point x="327" y="170"/>
      <point x="348" y="204"/>
      <point x="348" y="242" type="curve" smooth="yes"/>
      <point x="348" y="308"/>
      <point x="287" y="355"/>
      <point x="195" y="355" type="curve" smooth="yes"/>
      <point x="102" y="355"/>
      <point x="41" y="308"/>
      <point x="41" y="242" type="curve" smooth="yes"/>
      <point x="41" y="202"/>
      <point x="65" y="169"/>
      <point x="108" y="154" type="curve"/>
      <point x="108" y="159" type="line"/>
      <point x="61" y="141"/>
      <point x="25" y="102"/>
      <point x="25" y="48" type="curve" smooth="yes"/>
      <point x="25" y="-25"/>
      <point x="95" y="-75"/>
    </contour>
    <contour>
      <point x="195" y="-16" type="curve" smooth="yes"/>
      <point x="143" y="-16"/>
      <point x="106" y="12"/>
      <point x="106" y="58" type="curve" smooth="yes"/>
      <point x="106" y="103"/>
      <point x="142" y="131"/>
      <point x="195" y="131" type="curve" smooth="yes"/>
      <point x="247" y="131"/>
      <point x="283" y="103"/>
      <point x="283" y="58" type="curve" smooth="yes"/>
      <point x="283" y="12"/>
      <point x="246" y="-16"/>
    </contour>
    <contour>
      <point x="195" y="179" type="curve" smooth="yes"/>
      <point x="148" y="179"/>
      <point x="117" y="203"/>
      <point x="117" y="238" type="curve" smooth="yes"/>
      <point x="117" y="273"/>
      <point x="149" y="296"/>
      <point x="195" y="296" type="curve" smooth="yes"/>
      <point x="240" y="296"/>
      <point x="272" y="273"/>
      <point x="272" y="238" type="curve" smooth="yes"/>
      <point x="272" y="202"/>
      <point x="241" y="179"/>
    </contour>
  </outline>
</glyph>
<glyph name="plusinferior" format="2">
  <advance width="356"/>
  <unicode hex="208A"/>
  <outline>
    <contour>
      <point x="147" y="-2" type="line"/>
      <point x="209" y="-2" type="line"/>
      <point x="209" y="283" type="line"/>
      <point x="147" y="283" type="line"/>
    </contour>
    <contour>
      <point x="31" y="111" type="line"/>
      <point x="326" y="111" type="line"/>
      <point x="326" y="168" type="line"/>
      <point x="31" y="168" type="line"/>
    </contour>
  </outline>
</glyph>
<glyph name="equalinferior" format="2">
  <advance width="356"/>
  <unicode hex="208C"/>
  <outline>
    <contour>
      <point x="37" y="58" type="line"/>
      <point x="319" y="58" type="line"/>
      <point x="319" y="116" type="line"/>
      <point x="37" y="116" type="line"/>
    </contour>
    <contour>
      <point x="37" y="165" type="line"/>
      <point x="319" y="165" type="line"/>
      <point x="319" y="222" type="line"/>
      <point x="37" y="222" type="line"/>
    </contour>
  </outline>
</glyph>
<glyph name="parenleftinferior" format="2">
  <advance width="196"/>
  <unicode hex="208D"/>
  <outline>
    <contour>
      <point x="135" y="-142" type="curve"/>
      <point x="186" y="-113" type="line"/>
      <point x="138" y="-40"/>
      <point x="115" y="49"/>
      <point x="115" y="139" type="curve" smooth="yes"/>
      <point x="115" y="237"/>
      <point x="140" y="325"/>
      <point x="184" y="390" type="curve"/>
      <point x="134" y="420" type="line"/>
      <point x="77" y="345"/>
      <point x="40" y="242"/>
      <point x="40" y="139" type="curve" smooth="yes"/>
      <point x="40" y="41"/>
      <point x="75" y="-64"/>
    </contour>
  </outline>
</glyph>
<glyph name="euro" format="2">
  <advance width="620"/>
  <unicode hex="20AC"/>
  <anchor x="351.05" y="0" name="bottom"/>
  <anchor x="340.6" y="680" name="top"/>
  <outline>
    <contour>
      <point x="1" y="368" type="line"/>
      <point x="431" y="368" type="line"/>
      <point x="431" y="432" type="line"/>
      <point x="1" y="432" type="line"/>
    </contour>
    <contour>
      <point x="0" y="256" type="line"/>
      <point x="427" y="256" type="line"/>
      <point x="427" y="320" type="line"/>
      <point x="0" y="320" type="line"/>
    </contour>
    <contour>
      <point x="355" y="-14" type="curve" smooth="yes"/>
      <point x="484" y="-14"/>
      <point x="588" y="80"/>
      <point x="610" y="218" type="curve"/>
      <point x="519" y="246" type="line"/>
      <point x="505" y="134"/>
      <point x="442" y="63"/>
      <point x="355" y="63" type="curve" smooth="yes"/>
      <point x="245" y="63"/>
      <point x="175" y="172"/>
      <point x="175" y="344" type="curve" smooth="yes"/>
      <point x="175" y="513"/>
      <point x="245" y="620"/>
      <point x="353" y="620" type="curve" smooth="yes"/>
      <point x="433" y="620"/>
      <point x="492" y="556"/>
      <point x="507" y="456" type="curve"/>
      <point x="595" y="480" type="line"/>
      <point x="567" y="610"/>
      <point x="473" y="694"/>
      <point x="349" y="694" type="curve" smooth="yes"/>
      <point x="189" y="694"/>
      <point x="80" y="551"/>
      <point x="80" y="342" type="curve" smooth="yes"/>
      <point x="80" y="130"/>
      <point x="192" y="-14"/>
    </contour>
  </outline>
</glyph>
<glyph name="published" format="2">
  <advance width="804"/>
  <unicode hex="2117"/>
  <outline>
    <contour>
      <point x="278" y="160" type="line"/>
      <point x="354" y="160" type="line"/>
      <point x="354" y="492" type="line"/>
      <point x="328" y="464" type="line"/>
      <point x="424" y="464" type="line" smooth="yes"/>
      <point x="453" y="464"/>
      <point x="471" y="446"/>
      <point x="471" y="412" type="curve" smooth="yes"/>
      <point x="471" y="377"/>
      <point x="452" y="358"/>
      <point x="422" y="358" type="curve" smooth="yes"/>
      <point x="332" y="358" type="line"/>
      <point x="332" y="302" type="line"/>
      <point x="420" y="302" type="line" smooth="yes"/>
      <point x="500" y="302"/>
      <point x="554" y="348"/>
      <point x="554" y="412" type="curve" smooth="yes"/>
      <point x="554" y="475"/>
      <point x="501" y="520"/>
      <point x="422" y="520" type="curve" smooth="yes"/>
      <point x="278" y="520" type="line"/>
    </contour>
    <contour>
      <point x="402" y="-18" type="curve" smooth="yes"/>
      <point x="608" y="-18"/>
      <point x="758" y="135"/>
      <point x="758" y="340" type="curve" smooth="yes"/>
      <point x="758" y="545"/>
      <point x="608" y="698"/>
      <point x="402" y="698" type="curve" smooth="yes"/>
      <point x="196" y="698"/>
      <point x="46" y="545"/>
      <point x="46" y="340" type="curve" smooth="yes"/>
      <point x="46" y="135"/>
      <point x="196" y="-18"/>
    </contour>
    <contour>
      <point x="402" y="46" type="curve" smooth="yes"/>
      <point x="237" y="46"/>
      <point x="124" y="163"/>
      <point x="124" y="340" type="curve" smooth="yes"/>
      <point x="124" y="517"/>
      <point x="237" y="634"/>
      <point x="402" y="634" type="curve" smooth="yes"/>
      <point x="567" y="634"/>
      <point x="680" y="517"/>
      <point x="680" y="340" type="curve" smooth="yes"/>
      <point x="680" y="163"/>
      <point x="567" y="46"/>
    </contour>
  </outline>
</glyph>
<glyph name="trademark" format="2">
  <advance width="710"/>
  <unicode hex="2122"/>
  <outline>
    <contour>
      <point x="330" y="326" type="line"/>
      <point x="394" y="326" type="line"/>
      <point x="394" y="604" type="line"/>
      <point x="386" y="604" type="line"/>
      <point x="480" y="326" type="line"/>
      <point x="534" y="326" type="line"/>
      <point x="626" y="604" type="line"/>
      <point x="618" y="604" type="line"/>
      <point x="618" y="326" type="line"/>
      <point x="690" y="326" type="line"/>
      <point x="690" y="680" type="line"/>
      <point x="594" y="680" type="line"/>
      <point x="506" y="408" type="line"/>
      <point x="514" y="408" type="line"/>
      <point x="424" y="680" type="line"/>
      <point x="330" y="680" type="line"/>
    </contour>
    <contour>
      <point x="121" y="326" type="line"/>
      <point x="195" y="326" type="line"/>
      <point x="195" y="628" type="line"/>
      <point x="121" y="628" type="line"/>
    </contour>
    <contour>
      <point x="20" y="620" type="line"/>
      <point x="296" y="620" type="line"/>
      <point x="296" y="680" type="line"/>
      <point x="20" y="680" type="line"/>
    </contour>
  </outline>
</glyph>
<glyph name="minus" format="2">
  <advance width="560"/>
  <unicode hex="2212"/>
  <outline>
    <contour>
      <point x="56" y="248" type="line"/>
      <point x="504" y="248" type="line"/>
      <point x="504" y="320" type="line"/>
      <point x="56" y="320" type="line"/>
    </contour>
  </outline>
</glyph>
<glyph name="approxequal" format="2">
  <advance width="560"/>
  <unicode hex="2248"/>
  <outline>
    <contour>
      <point x="374" y="134" type="curve" smooth="yes"/>
      <point x="443" y="134"/>
      <point x="495" y="180"/>
      <point x="506" y="252" type="curve"/>
      <point x="442" y="266" type="line"/>
      <point x="436" y="226"/>
      <point x="410" y="204"/>
      <point x="376" y="204" type="curve" smooth="yes"/>
      <point x="320" y="204"/>
      <point x="264" y="264"/>
      <point x="186" y="264" type="curve" smooth="yes"/>
      <point x="117" y="264"/>
      <point x="65" y="218"/>
      <point x="54" y="146" type="curve"/>
      <point x="118" y="132" type="line"/>
      <point x="124" y="172"/>
      <point x="150" y="194"/>
      <point x="184" y="194" type="curve" smooth="yes"/>
      <point x="240" y="194"/>
      <point x="296" y="134"/>
    </contour>
    <contour>
      <point x="374" y="304" type="curve" smooth="yes"/>
      <point x="443" y="304"/>
      <point x="495" y="350"/>
      <point x="506" y="422" type="curve"/>
      <point x="442" y="436" type="line"/>
      <point x="436" y="396"/>
      <point x="410" y="374"/>
      <point x="376" y="374" type="curve" smooth="yes"/>
      <point x="320" y="374"/>
      <point x="264" y="434"/>
      <point x="186" y="434" type="curve" smooth="yes"/>
      <point x="117" y="434"/>
      <point x="65" y="388"/>
      <point x="54" y="316" type="curve"/>
      <point x="118" y="302" type="line"/>
      <point x="124" y="342"/>
      <point x="150" y="364"/>
      <point x="184" y="364" type="curve" smooth="yes"/>
      <point x="240" y="364"/>
      <point x="296" y="304"/>
    </contour>
  </outline>
</glyph>
<glyph name="notequal" format="2">
  <advance width="560"/>
  <unicode hex="2260"/>
  <outline>
    <contour>
      <point x="158" y="64" type="line"/>
      <point x="452" y="470" type="line"/>
      <point x="402" y="508" type="line"/>
      <point x="108" y="100" type="line"/>
    </contour>
    <component base="equal"/>
  </outline>
</glyph>
<glyph name="equivalence" format="2">
  <advance width="560"/>
  <unicode hex="2261"/>
  <outline>
    <contour>
      <point x="68" y="104" type="line"/>
      <point x="492" y="104" type="line"/>
      <point x="492" y="175" type="line"/>
      <point x="68" y="175" type="line"/>
    </contour>
    <contour>
      <point x="68" y="250" type="line"/>
      <point x="492" y="250" type="line"/>
      <point x="492" y="320" type="line"/>
      <point x="68" y="320" type="line"/>
    </contour>
    <contour>
      <point x="68" y="394" type="line"/>
      <point x="492" y="394" type="line"/>
      <point x="492" y="464" type="line"/>
      <point x="68" y="464" type="line"/>
    </contour>
  </outline>
</glyph>
<glyph name="lessequal" format="2">
  <advance width="560"/>
  <unicode hex="2264"/>
  <outline>
    <contour>
      <point x="496" y="0" type="line"/>
      <point x="496" y="72" type="line"/>
      <point x="64" y="72" type="line"/>
      <point x="64" y="0" type="line"/>
    </contour>
    <contour>
      <point x="495" y="114" type="line"/>
      <point x="495" y="194" type="line"/>
      <point x="148" y="324" type="line"/>
      <point x="148" y="316" type="line"/>
      <point x="494" y="448" type="line"/>
      <point x="494" y="526" type="line"/>
      <point x="64" y="350" type="line"/>
      <point x="64" y="288" type="line"/>
    </contour>
  </outline>
</glyph>
<glyph name="greaterequal" format="2">
  <advance width="560"/>
  <unicode hex="2265"/>
  <outline>
    <contour>
      <point x="64" y="0" type="line"/>
      <point x="496" y="0" type="line"/>
      <point x="496" y="72" type="line"/>
      <point x="64" y="72" type="line"/>
    </contour>
    <contour>
      <point x="65" y="114" type="line"/>
      <point x="496" y="288" type="line"/>
      <point x="496" y="350" type="line"/>
      <point x="66" y="526" type="line"/>
      <point x="66" y="448" type="line"/>
      <point x="412" y="316" type="line"/>
      <point x="412" y="324" type="line"/>
      <point x="65" y="194" type="line"/>
    </contour>
  </outline>
</glyph>
<glyph name="downBlackTriangle" format="2">
  <advance width="596"/>
  <unicode hex="25BC"/>
  <outline>
    <contour>
      <point x="282" y="-2" type="line" smooth="yes"/>
      <point x="291" y="-20"/>
      <point x="305" y="-20"/>
      <point x="314" y="-2" type="curve" smooth="yes"/>
      <point x="566" y="510" type="line" smooth="yes"/>
      <point x="572" y="522"/>
      <point x="566" y="532"/>
      <point x="552" y="532" type="curve" smooth="yes"/>
      <point x="44" y="532" type="line" smooth="yes"/>
      <point x="30" y="532"/>
      <point x="24" y="522"/>
      <point x="30" y="510" type="curve" smooth="yes"/>
    </contour>
  </outline>
</glyph>
<glyph name="G.ss03" format="2">
  <advance width="695"/>
  <note>
Versione senza gamba?
</note>
  <anchor x="367" y="0" name="bottom"/>
  <anchor x="355" y="680" name="top"/>
  <outline>
    <contour>
      <point x="341" y="-14" type="curve" smooth="yes"/>
      <point x="461" y="-14"/>
      <point x="548" y="51"/>
      <point x="559" y="148" type="curve"/>
      <point x="551" y="148" type="line"/>
      <point x="551" y="0" type="line"/>
      <point x="635" y="0" type="line"/>
      <point x="635" y="356" type="line"/>
      <point x="343" y="356" type="line"/>
      <point x="343" y="282" type="line"/>
      <point x="549" y="282" type="line"/>
      <point x="549" y="147"/>
      <point x="476" y="62"/>
      <point x="361" y="62" type="curve" smooth="yes"/>
      <point x="228" y="62"/>
      <point x="143" y="172"/>
      <point x="143" y="344" type="curve" smooth="yes"/>
      <point x="143" y="513"/>
      <point x="225" y="620"/>
      <point x="355" y="620" type="curve" smooth="yes"/>
      <point x="450" y="620"/>
      <point x="522" y="562"/>
      <point x="541" y="472" type="curve"/>
      <point x="631" y="496" type="line"/>
      <point x="605" y="614"/>
      <point x="493" y="694"/>
      <point x="355" y="694" type="curve" smooth="yes"/>
      <point x="170" y="694"/>
      <point x="43" y="550"/>
      <point x="43" y="338" type="curve" smooth="yes"/>
      <point x="43" y="128"/>
      <point x="164" y="-14"/>
    </contour>
  </outline>
</glyph>
<glyph name="I_J.dlig" format="2">
  <advance width="585"/>
  <outline>
    <contour>
      <point x="83" y="383" type="line"/>
      <point x="173" y="383" type="line"/>
      <point x="173" y="680" type="line"/>
      <point x="83" y="680" type="line"/>
    </contour>
    <component base="J" xOffset="63"/>
  </outline>
</glyph>
<glyph name=".notdef" format="2">
  <advance width="685"/>
  <outline>
    <contour>
      <point x="47" y="256" type="curve"/>
      <point x="66" y="256"/>
      <point x="65" y="282"/>
      <point x="71" y="297" type="curve" smooth="yes"/>
      <point x="79" y="318"/>
      <point x="83" y="351"/>
      <point x="92" y="370" type="curve" smooth="yes"/>
      <point x="98" y="381"/>
      <point x="101" y="386"/>
      <point x="104" y="386" type="curve" smooth="yes"/>
      <point x="113" y="386"/>
      <point x="107" y="322"/>
      <point x="112" y="322" type="curve"/>
      <point x="123" y="338"/>
      <point x="119" y="424"/>
      <point x="139" y="424" type="curve"/>
      <point x="141" y="394"/>
      <point x="120" y="370"/>
      <point x="120" y="340" type="curve"/>
      <point x="133" y="340"/>
      <point x="146" y="383"/>
      <point x="151" y="399" type="curve" smooth="yes"/>
      <point x="159" y="426"/>
      <point x="195" y="511"/>
      <point x="217" y="511" type="curve" smooth="yes"/>
      <point x="221" y="511"/>
      <point x="211" y="500"/>
      <point x="211" y="495" type="curve" smooth="yes"/>
      <point x="211" y="488"/>
      <point x="227" y="500"/>
      <point x="231" y="509" type="curve" smooth="yes"/>
      <point x="249" y="546"/>
      <point x="299" y="573"/>
      <point x="339" y="585" type="curve"/>
      <point x="340" y="582"/>
      <point x="339" y="574"/>
      <point x="344" y="567" type="curve" smooth="yes"/>
      <point x="347" y="562"/>
      <point x="334" y="551"/>
      <point x="334" y="545" type="curve" smooth="yes"/>
      <point x="334" y="543"/>
      <point x="335" y="542"/>
      <point x="337" y="542" type="curve" smooth="yes"/>
      <point x="355" y="542"/>
      <point x="351" y="568"/>
      <point x="351" y="582" type="curve" smooth="yes"/>
      <point x="351" y="593"/>
      <point x="375" y="630"/>
      <point x="375" y="617" type="curve" smooth="yes"/>
      <point x="375" y="609"/>
      <point x="364" y="584"/>
      <point x="364" y="567" type="curve" smooth="yes"/>
      <point x="364" y="561"/>
      <point x="365" y="556"/>
      <point x="370" y="556" type="curve" smooth="yes"/>
      <point x="384" y="556"/>
      <point x="392" y="563"/>
      <point x="397" y="574" type="curve" smooth="yes"/>
      <point x="403" y="587"/>
      <point x="416" y="613"/>
      <point x="418" y="623" type="curve" smooth="yes"/>
      <point x="423" y="649"/>
      <point x="437" y="672"/>
      <point x="439" y="696" type="curve" smooth="yes"/>
      <point x="440" y="703"/>
      <point x="438" y="713"/>
      <point x="432" y="713" type="curve" smooth="yes"/>
      <point x="425" y="713"/>
      <point x="422" y="703"/>
      <point x="422" y="697" type="curve" smooth="yes"/>
      <point x="422" y="692"/>
      <point x="423" y="690"/>
      <point x="425" y="687" type="curve"/>
      <point x="415" y="672"/>
      <point x="402" y="649"/>
      <point x="381" y="641" type="curve"/>
      <point x="361" y="658"/>
      <point x="364" y="599"/>
      <point x="347" y="599" type="curve" smooth="yes"/>
      <point x="340" y="599"/>
      <point x="346" y="610"/>
      <point x="342" y="610" type="curve" smooth="yes"/>
      <point x="340" y="610"/>
      <point x="335" y="608"/>
      <point x="331" y="604" type="curve" smooth="yes"/>
      <point x="314" y="587"/>
      <point x="289" y="590"/>
      <point x="269" y="568" type="curve" smooth="yes"/>
      <point x="265" y="564"/>
      <point x="254" y="560"/>
      <point x="254" y="564" type="curve" smooth="yes"/>
      <point x="254" y="567"/>
      <point x="262" y="573"/>
      <point x="257" y="573" type="curve" smooth="yes"/>
      <point x="257" y="573"/>
      <point x="220" y="555"/>
      <point x="213" y="548" type="curve" smooth="yes"/>
      <point x="205" y="540"/>
      <point x="191" y="541"/>
      <point x="183" y="532" type="curve" smooth="yes"/>
      <point x="154" y="500"/>
      <point x="146" y="490"/>
      <point x="108" y="462" type="curve" smooth="yes"/>
      <point x="78" y="439"/>
      <point x="49" y="393"/>
      <point x="34" y="368" type="curve" smooth="yes"/>
      <point x="24" y="351"/>
      <point x="-12" y="329"/>
      <point x="-6" y="321" type="curve" smooth="yes"/>
      <point x="1" y="312"/>
      <point x="41" y="350"/>
      <point x="41" y="340" type="curve" smooth="yes"/>
      <point x="41" y="329"/>
      <point x="22" y="306"/>
      <point x="22" y="294" type="curve" smooth="yes"/>
      <point x="22" y="291"/>
      <point x="25" y="287"/>
      <point x="28" y="287" type="curve" smooth="yes"/>
      <point x="36" y="287"/>
      <point x="39" y="322"/>
      <point x="53" y="336" type="curve" smooth="yes"/>
      <point x="59" y="342"/>
      <point x="57" y="351"/>
      <point x="61" y="357" type="curve" smooth="yes"/>
      <point x="66" y="365"/>
      <point x="73" y="384"/>
      <point x="79" y="384" type="curve" smooth="yes"/>
      <point x="82" y="384"/>
      <point x="80" y="378"/>
      <point x="75" y="367" type="curve" smooth="yes"/>
      <point x="59" y="333"/>
      <point x="47" y="287"/>
    </contour>
    <contour>
      <point x="90" y="393" type="curve" smooth="yes"/>
      <point x="76" y="393"/>
      <point x="112" y="434"/>
      <point x="118" y="429" type="curve" smooth="yes"/>
      <point x="120" y="427"/>
      <point x="119" y="422"/>
      <point x="114" y="417" type="curve" smooth="yes"/>
      <point x="109" y="412"/>
      <point x="110" y="396"/>
      <point x="101" y="396" type="curve" smooth="yes"/>
      <point x="95" y="396"/>
      <point x="92" y="393"/>
    </contour>
    <contour>
      <point x="277" y="486" type="curve" smooth="yes"/>
      <point x="315" y="486"/>
      <point x="309" y="519"/>
      <point x="319" y="544" type="curve" smooth="yes"/>
      <point x="324" y="558"/>
      <point x="338" y="563"/>
      <point x="330" y="568" type="curve" smooth="yes"/>
      <point x="321" y="574"/>
      <point x="315" y="542"/>
      <point x="304" y="553" type="curve" smooth="yes"/>
      <point x="297" y="560"/>
      <point x="297" y="533"/>
      <point x="297" y="530" type="curve" smooth="yes"/>
      <point x="295" y="520"/>
      <point x="296" y="503"/>
      <point x="283" y="503" type="curve" smooth="yes"/>
      <point x="279" y="503"/>
      <point x="279" y="507"/>
      <point x="279" y="510" type="curve" smooth="yes"/>
      <point x="279" y="521"/>
      <point x="299" y="543"/>
      <point x="286" y="543" type="curve" smooth="yes"/>
      <point x="277" y="543"/>
      <point x="281" y="525"/>
      <point x="276" y="520" type="curve" smooth="yes"/>
      <point x="273" y="517"/>
      <point x="269" y="509"/>
      <point x="269" y="505" type="curve" smooth="yes"/>
      <point x="269" y="496"/>
      <point x="271" y="486"/>
    </contour>
    <contour>
      <point x="444" y="357" type="curve" smooth="yes"/>
      <point x="454" y="357"/>
      <point x="444" y="365"/>
      <point x="441" y="373" type="curve" smooth="yes"/>
      <point x="434" y="389"/>
      <point x="435" y="408"/>
      <point x="435" y="425" type="curve"/>
      <point x="402" y="425"/>
      <point x="391" y="416"/>
      <point x="391" y="379" type="curve" smooth="yes"/>
      <point x="391" y="369"/>
      <point x="406" y="367"/>
      <point x="416" y="367" type="curve" smooth="yes"/>
      <point x="421" y="367"/>
      <point x="428" y="369"/>
      <point x="434" y="369" type="curve" smooth="yes"/>
      <point x="440" y="369"/>
      <point x="436" y="357"/>
    </contour>
    <contour>
      <point x="417" y="393" type="curve" smooth="yes"/>
      <point x="413" y="393"/>
      <point x="412" y="398"/>
      <point x="412" y="402" type="curve" smooth="yes"/>
      <point x="412" y="406"/>
      <point x="422" y="402"/>
      <point x="422" y="396" type="curve"/>
      <point x="421" y="394"/>
      <point x="419" y="393"/>
    </contour>
    <contour>
      <point x="414" y="447" type="curve" smooth="yes"/>
      <point x="421" y="447"/>
      <point x="424" y="456"/>
      <point x="424" y="464" type="curve" smooth="yes"/>
      <point x="424" y="470"/>
      <point x="422" y="478"/>
      <point x="417" y="480" type="curve" smooth="yes"/>
      <point x="407" y="485"/>
      <point x="398" y="462"/>
      <point x="398" y="453" type="curve" smooth="yes"/>
      <point x="398" y="447"/>
      <point x="406" y="447"/>
    </contour>
    <contour>
      <point x="375" y="378" type="curve" smooth="yes"/>
      <point x="380" y="378"/>
      <point x="381" y="381"/>
      <point x="381" y="383" type="curve" smooth="yes"/>
      <point x="381" y="388"/>
      <point x="371" y="394"/>
      <point x="371" y="401" type="curve" smooth="yes"/>
      <point x="371" y="407"/>
      <point x="372" y="412"/>
      <point x="372" y="416" type="curve" smooth="yes"/>
      <point x="372" y="428"/>
      <point x="366" y="432"/>
      <point x="362" y="447" type="curve" smooth="yes"/>
      <point x="360" y="452"/>
      <point x="360" y="459"/>
      <point x="363" y="464" type="curve" smooth="yes"/>
      <point x="367" y="471"/>
      <point x="371" y="463"/>
      <point x="381" y="473" type="curve" smooth="yes"/>
      <point x="394" y="486"/>
      <point x="422" y="506"/>
      <point x="439" y="506" type="curve" smooth="yes"/>
      <point x="448" y="506"/>
      <point x="453" y="501"/>
      <point x="453" y="489" type="curve" smooth="yes"/>
      <point x="453" y="486"/>
      <point x="451" y="481"/>
      <point x="451" y="476" type="curve"/>
      <point x="458" y="476"/>
      <point x="461" y="483"/>
      <point x="461" y="489" type="curve" smooth="yes"/>
      <point x="461" y="494"/>
      <point x="458" y="499"/>
      <point x="458" y="502" type="curve" smooth="yes"/>
      <point x="458" y="508"/>
      <point x="465" y="522"/>
      <point x="470" y="522" type="curve" smooth="yes"/>
      <point x="474" y="522"/>
      <point x="474" y="515"/>
      <point x="477" y="515" type="curve" smooth="yes"/>
      <point x="484" y="515"/>
      <point x="488" y="526"/>
      <point x="488" y="530" type="curve"/>
      <point x="473" y="556"/>
      <point x="462" y="554"/>
      <point x="460" y="588" type="curve"/>
      <point x="456" y="588"/>
      <point x="455" y="587"/>
      <point x="455" y="582" type="curve" smooth="yes"/>
      <point x="455" y="579"/>
      <point x="456" y="573"/>
      <point x="456" y="567" type="curve" smooth="yes"/>
      <point x="456" y="553"/>
      <point x="449" y="536"/>
      <point x="428" y="518" type="curve" smooth="yes"/>
      <point x="425" y="515"/>
      <point x="422" y="517"/>
      <point x="422" y="520" type="curve" smooth="yes"/>
      <point x="422" y="531"/>
      <point x="429" y="533"/>
      <point x="429" y="547" type="curve" smooth="yes"/>
      <point x="429" y="565"/>
      <point x="424" y="580"/>
      <point x="413" y="580" type="curve" smooth="yes"/>
      <point x="409" y="580"/>
      <point x="405" y="576"/>
      <point x="403" y="570" type="curve" smooth="yes"/>
      <point x="394" y="539"/>
      <point x="335" y="523"/>
      <point x="335" y="494" type="curve"/>
      <point x="348" y="491"/>
      <point x="369" y="515"/>
      <point x="379" y="525" type="curve" smooth="yes"/>
      <point x="384" y="530"/>
      <point x="394" y="534"/>
      <point x="403" y="534" type="curve" smooth="yes"/>
      <point x="409" y="534"/>
      <point x="411" y="532"/>
      <point x="405" y="528" type="curve" smooth="yes"/>
      <point x="402" y="526"/>
      <point x="400" y="527"/>
      <point x="400" y="524" type="curve" smooth="yes"/>
      <point x="400" y="521"/>
      <point x="405" y="519"/>
      <point x="405" y="515" type="curve" smooth="yes"/>
      <point x="405" y="509"/>
      <point x="411" y="513"/>
      <point x="412" y="512" type="curve" smooth="yes"/>
      <point x="413" y="511"/>
      <point x="408" y="505"/>
      <point x="404" y="502" type="curve" smooth="yes"/>
      <point x="326" y="444"/>
      <point x="358" y="457"/>
      <point x="316" y="390" type="curve" smooth="yes"/>
      <point x="310" y="380"/>
      <point x="332" y="389"/>
      <point x="335" y="396" type="curve" smooth="yes"/>
      <point x="339" y="405"/>
      <point x="350" y="411"/>
      <point x="358" y="411" type="curve"/>
      <point x="358" y="395"/>
      <point x="360" y="378"/>
    </contour>
    <contour>
      <point x="473" y="583" type="curve" smooth="yes"/>
      <point x="477" y="583"/>
      <point x="478" y="584"/>
      <point x="478" y="588" type="curve" smooth="yes"/>
      <point x="478" y="596"/>
      <point x="468" y="608"/>
      <point x="465" y="615" type="curve" smooth="yes"/>
      <point x="462" y="622"/>
      <point x="456" y="626"/>
      <point x="448" y="626" type="curve" smooth="yes"/>
      <point x="441" y="626"/>
      <point x="431" y="621"/>
      <point x="431" y="614" type="curve" smooth="yes"/>
      <point x="431" y="608"/>
      <point x="434" y="605"/>
      <point x="437" y="605" type="curve" smooth="yes"/>
      <point x="443" y="605"/>
      <point x="447" y="612"/>
      <point x="452" y="612" type="curve" smooth="yes"/>
      <point x="464" y="612"/>
      <point x="464" y="583"/>
    </contour>
    <contour>
      <point x="524" y="165" type="curve"/>
      <point x="523" y="183"/>
      <point x="512" y="205"/>
      <point x="501" y="213" type="curve"/>
      <point x="500" y="198"/>
      <point x="507" y="170"/>
    </contour>
    <contour>
      <point x="482" y="247" type="curve" smooth="yes"/>
      <point x="486" y="247"/>
      <point x="491" y="252"/>
      <point x="488" y="260" type="curve" smooth="yes"/>
      <point x="480" y="281"/>
      <point x="462" y="317"/>
      <point x="456" y="317" type="curve" smooth="yes"/>
      <point x="452" y="317"/>
      <point x="456" y="309"/>
      <point x="459" y="305" type="curve" smooth="yes"/>
      <point x="461" y="303"/>
      <point x="461" y="294"/>
      <point x="459" y="291" type="curve"/>
      <point x="450" y="304"/>
      <point x="450" y="334"/>
      <point x="440" y="334" type="curve" smooth="yes"/>
      <point x="423" y="334"/>
      <point x="452" y="292"/>
      <point x="450" y="276" type="curve" smooth="yes"/>
      <point x="448" y="262"/>
      <point x="454" y="257"/>
      <point x="461" y="257" type="curve" smooth="yes"/>
      <point x="464" y="257"/>
      <point x="466" y="260"/>
      <point x="466" y="264" type="curve" smooth="yes"/>
      <point x="466" y="268"/>
      <point x="461" y="272"/>
      <point x="461" y="278" type="curve" smooth="yes"/>
      <point x="461" y="285"/>
      <point x="467" y="284"/>
      <point x="469" y="281" type="curve" smooth="yes"/>
      <point x="474" y="273"/>
      <point x="470" y="247"/>
    </contour>
    <contour>
      <point x="577" y="229" type="curve"/>
      <point x="584" y="258"/>
      <point x="566" y="275"/>
      <point x="552" y="302" type="curve" smooth="yes"/>
      <point x="536" y="331"/>
      <point x="531" y="378"/>
      <point x="497" y="382" type="curve"/>
      <point x="525" y="335"/>
      <point x="554" y="279"/>
    </contour>
    <contour>
      <point x="544" y="333" type="curve"/>
      <point x="554" y="336"/>
      <point x="543" y="358"/>
      <point x="541" y="362" type="curve"/>
      <point x="539" y="361"/>
      <point x="537" y="358"/>
      <point x="537" y="353" type="curve" smooth="yes"/>
      <point x="537" y="345"/>
      <point x="539" y="338"/>
    </contour>
    <contour>
      <point x="490" y="404" type="curve"/>
      <point x="489" y="412"/>
      <point x="487" y="421"/>
      <point x="487" y="430" type="curve" smooth="yes"/>
      <point x="487" y="437"/>
      <point x="483" y="438"/>
      <point x="483" y="442" type="curve" smooth="yes"/>
      <point x="483" y="443"/>
      <point x="483" y="444"/>
      <point x="485" y="445" type="curve" smooth="yes"/>
      <point x="489" y="448"/>
      <point x="483" y="449"/>
      <point x="483" y="453" type="curve"/>
      <point x="488" y="453"/>
      <point x="487" y="465"/>
      <point x="486" y="468" type="curve" smooth="yes"/>
      <point x="482" y="479"/>
      <point x="475" y="471"/>
      <point x="475" y="464" type="curve" smooth="yes"/>
      <point x="475" y="456"/>
      <point x="481" y="444"/>
      <point x="481" y="440" type="curve"/>
      <point x="474" y="440"/>
      <point x="473" y="435"/>
      <point x="473" y="430" type="curve" smooth="yes"/>
      <point x="473" y="418"/>
      <point x="482" y="401"/>
    </contour>
    <contour>
      <point x="535" y="378" type="curve"/>
      <point x="543" y="379"/>
      <point x="547" y="384"/>
      <point x="547" y="390" type="curve" smooth="yes"/>
      <point x="547" y="406"/>
      <point x="528" y="429"/>
      <point x="519" y="435" type="curve"/>
      <point x="522" y="417"/>
      <point x="533" y="394"/>
    </contour>
    <contour>
      <point x="607" y="57" type="curve"/>
      <point x="613" y="59"/>
      <point x="613" y="66"/>
      <point x="613" y="74" type="curve" smooth="yes"/>
      <point x="613" y="87"/>
      <point x="615" y="83"/>
      <point x="615" y="99" type="curve" smooth="yes"/>
      <point x="615" y="112"/>
      <point x="611" y="123"/>
      <point x="599" y="123" type="curve" smooth="yes"/>
      <point x="596" y="123"/>
      <point x="592" y="122"/>
      <point x="587" y="120" type="curve" smooth="yes"/>
      <point x="584" y="119"/>
      <point x="581" y="109"/>
      <point x="581" y="101" type="curve" smooth="yes"/>
      <point x="581" y="97"/>
      <point x="581" y="93"/>
      <point x="585" y="91" type="curve" smooth="yes"/>
      <point x="590" y="87"/>
      <point x="593" y="76"/>
      <point x="600" y="76" type="curve" smooth="yes"/>
      <point x="609" y="76"/>
      <point x="603" y="65"/>
    </contour>
    <contour>
      <point x="604" y="84" type="curve" smooth="yes"/>
      <point x="599" y="84"/>
      <point x="595" y="93"/>
      <point x="595" y="99" type="curve" smooth="yes"/>
      <point x="595" y="102"/>
      <point x="596" y="104"/>
      <point x="598" y="104" type="curve" smooth="yes"/>
      <point x="604" y="104"/>
      <point x="608" y="93"/>
      <point x="608" y="87" type="curve" smooth="yes"/>
      <point x="608" y="86"/>
      <point x="607" y="84"/>
    </contour>
    <contour>
      <point x="637" y="104" type="curve" smooth="yes"/>
      <point x="646" y="104"/>
      <point x="648" y="112"/>
      <point x="648" y="117" type="curve" smooth="yes"/>
      <point x="648" y="135"/>
      <point x="623" y="163"/>
      <point x="621" y="178" type="curve" smooth="yes"/>
      <point x="619" y="189"/>
      <point x="593" y="248"/>
      <point x="593" y="235" type="curve" smooth="yes"/>
      <point x="593" y="227"/>
      <point x="601" y="221"/>
      <point x="598" y="209" type="curve"/>
      <point x="608" y="192"/>
      <point x="618" y="170"/>
      <point x="621" y="148" type="curve" smooth="yes"/>
      <point x="622" y="142"/>
      <point x="627" y="142"/>
      <point x="630" y="133" type="curve" smooth="yes"/>
      <point x="632" y="127"/>
      <point x="631" y="104"/>
    </contour>
    <contour>
      <point x="607" y="-10" type="curve" smooth="yes"/>
      <point x="614" y="-8"/>
      <point x="627" y="1"/>
      <point x="627" y="4" type="curve" smooth="yes"/>
      <point x="627" y="28"/>
      <point x="664" y="33"/>
      <point x="664" y="59" type="curve" smooth="yes"/>
      <point x="664" y="75"/>
      <point x="688" y="93"/>
      <point x="685" y="113" type="curve" smooth="yes"/>
      <point x="683" y="124"/>
      <point x="684" y="120"/>
      <point x="674" y="131" type="curve" smooth="yes"/>
      <point x="655" y="151"/>
      <point x="656" y="171"/>
      <point x="648" y="195" type="curve" smooth="yes"/>
      <point x="634" y="240"/>
      <point x="613" y="279"/>
      <point x="589" y="319" type="curve" smooth="yes"/>
      <point x="583" y="328"/>
      <point x="581" y="337"/>
      <point x="581" y="345" type="curve" smooth="yes"/>
      <point x="581" y="352"/>
      <point x="582" y="359"/>
      <point x="582" y="367" type="curve" smooth="yes"/>
      <point x="582" y="380"/>
      <point x="580" y="394"/>
      <point x="580" y="406" type="curve" smooth="yes"/>
      <point x="580" y="413"/>
      <point x="581" y="419"/>
      <point x="585" y="419" type="curve" smooth="yes"/>
      <point x="590" y="419"/>
      <point x="598" y="413"/>
      <point x="611" y="399" type="curve"/>
      <point x="619" y="416"/>
      <point x="594" y="436"/>
      <point x="583" y="447" type="curve" smooth="yes"/>
      <point x="557" y="473"/>
      <point x="561" y="509"/>
      <point x="535" y="537" type="curve" smooth="yes"/>
      <point x="521" y="552"/>
      <point x="514" y="557"/>
      <point x="514" y="564" type="curve" smooth="yes"/>
      <point x="514" y="578"/>
      <point x="541" y="583"/>
      <point x="541" y="613" type="curve" smooth="yes"/>
      <point x="541" y="620"/>
      <point x="531" y="684"/>
      <point x="528" y="692" type="curve"/>
      <point x="515" y="688"/>
      <point x="513" y="682"/>
      <point x="513" y="675" type="curve" smooth="yes"/>
      <point x="513" y="669"/>
      <point x="516" y="658"/>
      <point x="512" y="651" type="curve" smooth="yes"/>
      <point x="502" y="638"/>
      <point x="503" y="629"/>
      <point x="498" y="615" type="curve" smooth="yes"/>
      <point x="493" y="605"/>
      <point x="492" y="591"/>
      <point x="492" y="580" type="curve" smooth="yes"/>
      <point x="492" y="563"/>
      <point x="497" y="553"/>
      <point x="501" y="553" type="curve" smooth="yes"/>
      <point x="513" y="553"/>
      <point x="515" y="552"/>
      <point x="524" y="544" type="curve"/>
      <point x="514" y="529"/>
      <point x="544" y="507"/>
      <point x="539" y="486" type="curve"/>
      <point x="543" y="485"/>
      <point x="552" y="485"/>
      <point x="552" y="476" type="curve" smooth="yes"/>
      <point x="552" y="472"/>
      <point x="549" y="468"/>
      <point x="546" y="469" type="curve" smooth="yes"/>
      <point x="529" y="473"/>
      <point x="524" y="481"/>
      <point x="523" y="492" type="curve" smooth="yes"/>
      <point x="520" y="514"/>
      <point x="512" y="530"/>
      <point x="498" y="543" type="curve"/>
      <point x="498" y="517"/>
      <point x="511" y="456"/>
      <point x="539" y="447" type="curve" smooth="yes"/>
      <point x="559" y="441"/>
      <point x="563" y="434"/>
      <point x="563" y="418" type="curve" smooth="yes"/>
      <point x="563" y="408"/>
      <point x="562" y="398"/>
      <point x="562" y="388" type="curve" smooth="yes"/>
      <point x="562" y="379"/>
      <point x="568" y="375"/>
      <point x="568" y="365" type="curve" smooth="yes"/>
      <point x="568" y="295"/>
      <point x="632" y="239"/>
      <point x="639" y="169" type="curve" smooth="yes"/>
      <point x="640" y="156"/>
      <point x="652" y="146"/>
      <point x="655" y="134" type="curve" smooth="yes"/>
      <point x="657" y="126"/>
      <point x="654" y="116"/>
      <point x="664" y="116" type="curve" smooth="yes"/>
      <point x="669" y="116"/>
      <point x="671" y="113"/>
      <point x="671" y="107" type="curve" smooth="yes"/>
      <point x="671" y="87"/>
      <point x="654" y="49"/>
      <point x="641" y="37" type="curve" smooth="yes"/>
      <point x="631" y="27"/>
      <point x="614" y="25"/>
      <point x="600" y="25" type="curve" smooth="yes"/>
      <point x="592" y="25"/>
      <point x="589" y="23"/>
      <point x="589" y="20" type="curve" smooth="yes"/>
      <point x="589" y="18"/>
      <point x="612" y="18"/>
      <point x="617" y="11" type="curve" smooth="yes"/>
      <point x="620" y="7"/>
      <point x="612" y="5"/>
      <point x="601" y="5" type="curve" smooth="yes"/>
      <point x="586" y="5"/>
      <point x="566" y="8"/>
      <point x="559" y="11" type="curve" smooth="yes"/>
      <point x="541" y="17"/>
      <point x="543" y="33"/>
      <point x="539" y="46" type="curve" smooth="yes"/>
      <point x="537" y="51"/>
      <point x="532" y="57"/>
      <point x="532" y="62" type="curve" smooth="yes"/>
      <point x="532" y="64"/>
      <point x="532" y="66"/>
      <point x="533" y="68" type="curve" smooth="yes"/>
      <point x="535" y="71"/>
      <point x="557" y="51"/>
      <point x="555" y="38" type="curve" smooth="yes"/>
      <point x="554" y="32"/>
      <point x="569" y="22"/>
      <point x="576" y="22" type="curve" smooth="yes"/>
      <point x="583" y="22"/>
      <point x="584" y="27"/>
      <point x="580" y="30" type="curve" smooth="yes"/>
      <point x="563" y="43"/>
      <point x="568" y="50"/>
      <point x="557" y="74" type="curve" smooth="yes"/>
      <point x="554" y="81"/>
      <point x="547" y="85"/>
      <point x="541" y="85" type="curve" smooth="yes"/>
      <point x="538" y="85"/>
      <point x="534" y="85"/>
      <point x="531" y="82" type="curve" smooth="yes"/>
      <point x="527" y="78"/>
      <point x="532" y="69"/>
      <point x="528" y="69" type="curve" smooth="yes"/>
      <point x="521" y="69"/>
      <point x="520" y="82"/>
      <point x="520" y="92" type="curve" smooth="yes"/>
      <point x="520" y="106"/>
      <point x="513" y="99"/>
      <point x="510" y="109" type="curve" smooth="yes"/>
      <point x="499" y="152"/>
      <point x="463" y="162"/>
      <point x="463" y="179" type="curve" smooth="yes"/>
      <point x="463" y="184"/>
      <point x="472" y="184"/>
      <point x="476" y="181" type="curve" smooth="yes"/>
      <point x="492" y="167"/>
      <point x="500" y="141"/>
      <point x="520" y="129" type="curve"/>
      <point x="528" y="151"/>
      <point x="471" y="194"/>
      <point x="471" y="210" type="curve" smooth="yes"/>
      <point x="471" y="214"/>
      <point x="476" y="214"/>
      <point x="480" y="217" type="curve" smooth="yes"/>
      <point x="483" y="219"/>
      <point x="485" y="223"/>
      <point x="485" y="225" type="curve" smooth="yes"/>
      <point x="485" y="227"/>
      <point x="483" y="228"/>
      <point x="481" y="228" type="curve" smooth="yes"/>
      <point x="475" y="228"/>
      <point x="467" y="221"/>
      <point x="464" y="218" type="curve" smooth="yes"/>
      <point x="455" y="210"/>
      <point x="444" y="207"/>
      <point x="439" y="196" type="curve" smooth="yes"/>
      <point x="434" y="185"/>
      <point x="412" y="182"/>
      <point x="413" y="175" type="curve"/>
      <point x="385" y="169"/>
      <point x="346" y="198"/>
      <point x="329" y="221" type="curve" smooth="yes"/>
      <point x="325" y="227"/>
      <point x="328" y="233"/>
      <point x="328" y="236" type="curve"/>
      <point x="313" y="241"/>
      <point x="305" y="260"/>
      <point x="303" y="273" type="curve" smooth="yes"/>
      <point x="302" y="280"/>
      <point x="301" y="285"/>
      <point x="298" y="285" type="curve" smooth="yes"/>
      <point x="296" y="285"/>
      <point x="295" y="284"/>
      <point x="295" y="282" type="curve" smooth="yes"/>
      <point x="295" y="280"/>
      <point x="295" y="278"/>
      <point x="297" y="274" type="curve"/>
      <point x="294" y="269"/>
      <point x="291" y="267"/>
      <point x="289" y="267" type="curve" smooth="yes"/>
      <point x="284" y="267"/>
      <point x="296" y="334"/>
      <point x="263" y="334" type="curve" smooth="yes"/>
      <point x="247" y="334"/>
      <point x="238" y="315"/>
      <point x="238" y="298" type="curve" smooth="yes"/>
      <point x="238" y="282"/>
      <point x="207" y="226"/>
      <point x="223" y="226" type="curve" smooth="yes"/>
      <point x="226" y="226"/>
      <point x="232" y="227"/>
      <point x="234" y="233" type="curve" smooth="yes"/>
      <point x="239" y="248"/>
      <point x="247" y="255"/>
      <point x="260" y="258" type="curve" smooth="yes"/>
      <point x="263" y="259"/>
      <point x="261" y="250"/>
      <point x="264" y="248" type="curve" smooth="yes"/>
      <point x="268" y="246"/>
      <point x="267" y="240"/>
      <point x="266" y="238" type="curve" smooth="yes"/>
      <point x="263" y="232"/>
      <point x="259" y="239"/>
      <point x="253" y="228" type="curve"/>
      <point x="257" y="226"/>
      <point x="258" y="222"/>
      <point x="258" y="218" type="curve" smooth="yes"/>
      <point x="258" y="212"/>
      <point x="251" y="215"/>
      <point x="250" y="211" type="curve" smooth="yes"/>
      <point x="250" y="209"/>
      <point x="251" y="207"/>
      <point x="254" y="201" type="curve"/>
      <point x="237" y="193"/>
      <point x="249" y="172"/>
      <point x="228" y="167" type="curve"/>
      <point x="232" y="159"/>
      <point x="233" y="155"/>
      <point x="233" y="153" type="curve" smooth="yes"/>
      <point x="233" y="146"/>
      <point x="228" y="153"/>
      <point x="226" y="146" type="curve"/>
      <point x="235" y="139"/>
      <point x="224" y="140"/>
      <point x="222" y="133" type="curve" smooth="yes"/>
      <point x="221" y="127"/>
      <point x="206" y="113"/>
      <point x="208" y="108" type="curve" smooth="yes"/>
      <point x="212" y="98"/>
      <point x="206" y="81"/>
      <point x="201" y="72" type="curve" smooth="yes"/>
      <point x="199" y="68"/>
      <point x="188" y="70"/>
      <point x="188" y="64" type="curve" smooth="yes"/>
      <point x="188" y="56"/>
      <point x="191" y="47"/>
      <point x="191" y="43" type="curve" smooth="yes"/>
      <point x="191" y="41"/>
      <point x="190" y="39"/>
      <point x="189" y="37" type="curve" smooth="yes"/>
      <point x="186" y="27"/>
      <point x="195" y="20"/>
      <point x="195" y="7" type="curve" smooth="yes"/>
      <point x="195" y="-1"/>
      <point x="204" y="-7"/>
      <point x="211" y="-7" type="curve" smooth="yes"/>
      <point x="224" y="-7"/>
      <point x="225" y="8"/>
      <point x="230" y="20" type="curve" smooth="yes"/>
      <point x="242" y="46"/>
      <point x="277" y="207"/>
      <point x="316" y="207" type="curve" smooth="yes"/>
      <point x="322" y="207"/>
      <point x="325" y="202"/>
      <point x="332" y="197" type="curve" smooth="yes"/>
      <point x="355" y="180"/>
      <point x="371" y="164"/>
      <point x="397" y="160" type="curve" smooth="yes"/>
      <point x="401" y="159"/>
      <point x="408" y="161"/>
      <point x="411" y="161" type="curve" smooth="yes"/>
      <point x="435" y="161"/>
      <point x="442" y="141"/>
      <point x="465" y="132" type="curve" smooth="yes"/>
      <point x="482" y="125"/>
      <point x="483" y="101"/>
      <point x="492" y="86" type="curve" smooth="yes"/>
      <point x="501" y="71"/>
      <point x="516" y="59"/>
      <point x="525" y="47" type="curve"/>
      <point x="520" y="35"/>
      <point x="526" y="24"/>
      <point x="541" y="7" type="curve" smooth="yes"/>
      <point x="559" y="-13"/>
      <point x="592" y="-14"/>
    </contour>
  </outline>
</glyph>
<glyph name="a.sc" format="2">
  <advance width="527"/>
  <anchor x="509" y="7" name="ogonek"/>
  <anchor x="260" y="561" name="top"/>
  <outline>
    <contour>
      <point x="8" y="0" type="line"/>
      <point x="97" y="0" type="line"/>
      <point x="261" y="479" type="line"/>
      <point x="255" y="479" type="line"/>
      <point x="419" y="0" type="line"/>
      <point x="516" y="0" type="line"/>
      <point x="310" y="561" type="line"/>
      <point x="214" y="561" type="line"/>
    </contour>
    <contour>
      <point x="140" y="150" type="line"/>
      <point x="376" y="150" type="line"/>
      <point x="376" y="216" type="line"/>
      <point x="140" y="216" type="line"/>
    </contour>
  </outline>
</glyph>
<glyph name="a.ss01" format="2">
  <advance width="594"/>
  <anchor x="292" y="0" name="bottom"/>
  <anchor x="517" y="8" name="ogonek"/>
  <anchor x="292" y="532" name="top"/>
  <outline>
    <contour>
      <point x="265" y="-12" type="curve" smooth="yes"/>
      <point x="359" y="-12"/>
      <point x="433" y="41"/>
      <point x="449" y="123" type="curve"/>
      <point x="441" y="123" type="line"/>
      <point x="441" y="0" type="line"/>
      <point x="525" y="0" type="line"/>
      <point x="525" y="532" type="line"/>
      <point x="439" y="532" type="line"/>
      <point x="439" y="420" type="line"/>
      <point x="447" y="420" type="line"/>
      <point x="423" y="496"/>
      <point x="354" y="544"/>
      <point x="264" y="544" type="curve" smooth="yes"/>
      <point x="127" y="544"/>
      <point x="33" y="430"/>
      <point x="33" y="266" type="curve" smooth="yes"/>
      <point x="33" y="100"/>
      <point x="125" y="-12"/>
    </contour>
    <contour>
      <point x="280" y="62" type="curve" smooth="yes"/>
      <point x="183" y="62"/>
      <point x="122" y="142"/>
      <point x="122" y="267" type="curve" smooth="yes"/>
      <point x="122" y="392"/>
      <point x="185" y="472"/>
      <point x="282" y="472" type="curve" smooth="yes"/>
      <point x="379" y="472"/>
      <point x="439" y="393"/>
      <point x="439" y="268" type="curve" smooth="yes"/>
      <point x="439" y="142"/>
      <point x="377" y="62"/>
    </contour>
  </outline>
</glyph>
<glyph name="acutecomb.case" format="2">
  <advance width="352"/>
  <anchor x="124" y="532" name="_top"/>
  <outline>
    <contour>
      <point x="74" y="586" type="line"/>
      <point x="149" y="586" type="line"/>
      <point x="278" y="708" type="line"/>
      <point x="166" y="708" type="line"/>
    </contour>
  </outline>
</glyph>
<glyph name="acutecomb.sc" format="2">
  <advance width="293"/>
  <anchor x="114" y="431" name="_top"/>
  <outline>
    <contour>
      <point x="59" y="479" type="line"/>
      <point x="126" y="479" type="line"/>
      <point x="234" y="599" type="line"/>
      <point x="135" y="599" type="line"/>
    </contour>
  </outline>
</glyph>
<glyph name="asterisk.ss04" format="2">
  <advance width="378"/>
  <outline>
    <contour>
      <point x="44" y="333" type="line"/>
      <point x="100" y="315" type="line"/>
      <point x="156" y="307" type="line"/>
      <point x="156" y="311" type="line"/>
      <point x="112" y="269" type="line"/>
      <point x="78" y="219" type="line"/>
      <point x="130" y="181" type="line"/>
      <point x="166" y="229" type="line"/>
      <point x="191" y="277" type="line"/>
      <point x="187" y="277" type="line"/>
      <point x="212" y="229" type="line"/>
      <point x="248" y="181" type="line"/>
      <point x="300" y="219" type="line"/>
      <point x="266" y="269" type="line"/>
      <point x="222" y="311" type="line"/>
      <point x="222" y="307" type="line"/>
      <point x="278" y="315" type="line"/>
      <point x="334" y="333" type="line"/>
      <point x="316" y="397" type="line"/>
      <point x="258" y="379" type="line"/>
      <point x="210" y="353" type="line"/>
      <point x="214" y="349" type="line"/>
      <point x="222" y="405" type="line"/>
      <point x="222" y="465" type="line"/>
      <point x="156" y="465" type="line"/>
      <point x="156" y="405" type="line"/>
      <point x="164" y="349" type="line"/>
      <point x="168" y="353" type="line"/>
      <point x="120" y="379" type="line"/>
      <point x="62" y="397" type="line"/>
    </contour>
  </outline>
</glyph>
<glyph name="b.sc" format="2">
  <advance width="526"/>
  <outline>
    <contour>
      <point x="68" y="0" type="line"/>
      <point x="314" y="0" type="line" smooth="yes"/>
      <point x="422" y="0"/>
      <point x="491" y="60"/>
      <point x="491" y="152" type="curve" smooth="yes"/>
      <point x="491" y="242"/>
      <point x="429" y="297"/>
      <point x="339" y="298" type="curve"/>
      <point x="339" y="292" type="line"/>
      <point x="418" y="297"/>
      <point x="469" y="348"/>
      <point x="469" y="421" type="curve" smooth="yes"/>
      <point x="469" y="506"/>
      <point x="404" y="561"/>
      <point x="303" y="561" type="curve" smooth="yes"/>
      <point x="68" y="561" type="line"/>
    </contour>
    <contour>
      <point x="158" y="64" type="line"/>
      <point x="158" y="498" type="line"/>
      <point x="151" y="492" type="line"/>
      <point x="288" y="492" type="line" smooth="yes"/>
      <point x="344" y="492"/>
      <point x="378" y="460"/>
      <point x="378" y="408" type="curve" smooth="yes"/>
      <point x="378" y="355"/>
      <point x="344" y="323"/>
      <point x="287" y="323" type="curve" smooth="yes"/>
      <point x="151" y="323" type="line"/>
      <point x="151" y="255" type="line"/>
      <point x="303" y="255" type="line" smooth="yes"/>
      <point x="360" y="255"/>
      <point x="395" y="220"/>
      <point x="395" y="162" type="curve" smooth="yes"/>
      <point x="395" y="105"/>
      <point x="360" y="70"/>
      <point x="300" y="70" type="curve" smooth="yes"/>
      <point x="151" y="70" type="line"/>
    </contour>
  </outline>
</glyph>
<glyph name="braceleft.case" format="2">
  <advance width="337"/>
  <outline>
    <contour>
      <point x="312" y="-22" type="curve"/>
      <point x="302" y="34" type="line"/>
      <point x="230" y="22"/>
      <point x="198" y="46"/>
      <point x="198" y="102" type="curve" smooth="yes"/>
      <point x="198" y="252" type="line" smooth="yes"/>
      <point x="198" y="307"/>
      <point x="169" y="341"/>
      <point x="115" y="344" type="curve"/>
      <point x="115" y="336" type="line"/>
      <point x="169" y="340"/>
      <point x="198" y="374"/>
      <point x="198" y="428" type="curve" smooth="yes"/>
      <point x="198" y="580" type="line" smooth="yes"/>
      <point x="198" y="636"/>
      <point x="230" y="658"/>
      <point x="302" y="646" type="curve"/>
      <point x="309" y="702" type="line"/>
      <point x="177" y="734"/>
      <point x="104" y="690"/>
      <point x="114" y="580" type="curve" smooth="yes"/>
      <point x="126" y="444" type="line" smooth="yes"/>
      <point x="130" y="399"/>
      <point x="111" y="375"/>
      <point x="72" y="375" type="curve" smooth="yes"/>
      <point x="30" y="375" type="line"/>
      <point x="30" y="306" type="line"/>
      <point x="72" y="306" type="line" smooth="yes"/>
      <point x="111" y="306"/>
      <point x="130" y="282"/>
      <point x="126" y="238" type="curve" smooth="yes"/>
      <point x="114" y="102" type="line" smooth="yes"/>
      <point x="104" y="-9"/>
      <point x="178" y="-54"/>
    </contour>
  </outline>
</glyph>
